<?xml version="1.0" standalone="no"?>
<!DOCTYPE svg PUBLIC "-//W3C//DTD SVG 1.1//EN" "http://www.w3.org/Graphics/SVG/1.1/DTD/svg11.dtd" >
<svg xmlns="http://www.w3.org/2000/svg">
<metadata></metadata>
<defs>
<font id="stylobold" horiz-adv-x="1024" >
<font-face units-per-em="2048" ascent="1638" descent="-410" />
<missing-glyph horiz-adv-x="500" />
<glyph horiz-adv-x="0" />
<glyph unicode="&#xd;" />
<glyph unicode=" " />
<glyph unicode="!" horiz-adv-x="301" d="M41 948q2 -109 3 -217t1 -215q0 -45 10.5 -86t40.5 -41q23 0 66 21l8 4q6 55 12 97t8 71q6 74 13 110l33 279q16 147 24 286q-57 23 -87 32t-42 16v-2h-10q-8 0 -20.5 -7.5t-24.5 -13.5l-13 -4q-10 -66 -16 -147.5t-6 -182.5zM43 92q2 0 11 -7t18.5 -14.5t16.5 -15.5 t7 -10v-4q43 -47 74 -47q39 0 50 33.5t11 62.5v14q-2 2 -2 15l-8 28q-10 20 -24.5 23.5t-30.5 18t-36.5 29.5t-33.5 24v-4q-23 -43 -38 -68t-15 -68v-10z" />
<glyph unicode="&#x22;" horiz-adv-x="819" d="M41 883q16 -10 33.5 -12.5t44.5 -2.5l229 191l21 39q23 25 28.5 42t5.5 44q0 35 -6 72.5t-18 64.5q-14 0 -35.5 -24.5t-44.5 -58.5t-44.5 -69.5t-35.5 -60.5q-178 -90 -178 -215v-10zM96 956q0 2 5 18.5t14.5 35t25 34t35.5 15.5h4q-6 -4 -19.5 -19.5t-13.5 -25.5v-4 q-12 -18 -25.5 -31t-25.5 -23zM434 971q14 -35 26.5 -51.5t20.5 -24.5t14.5 -9t10.5 -5v-2q10 0 32 -1l21 -1l-4 8q-2 2 -8 14l-4 6q0 2 6 20.5t13 40t9 23.5q4 31 39 81t74 99.5t68.5 84t23.5 34.5l-94 12q-23 2 -23 5l-38 10l-52 -33h-4q-6 -29 -21.5 -63.5t-30.5 -63.5 t-27.5 -48.5t-12.5 -16.5q-29 -66 -39 -119z" />
<glyph unicode="#" horiz-adv-x="542" d="M45 231q0 -2 43 -2h64q-4 -18 -5.5 -34.5t-1.5 -18.5l-2 -6l2 -10q2 -23 3 -28l2 -5h2q4 -8 3 -17.5t1 -9.5t7 9.5t15 35.5l35 84h33l-15 -32q-4 -8 -7 -21.5t-7 -30.5q-4 -10 -4 -16v-10q0 -10 4 -13v-8q6 -18 8 -23t8 -9h5q0 -20 4 -21q8 0 20 33l49 121q6 18 15.5 24 t16.5 8t13 2q8 0 13 5l12 6q41 12 59.5 23.5t20.5 31.5q0 4 -6 14h-93q12 31 22.5 33t27.5 10l8 4q41 10 60.5 20.5t21.5 27.5q0 6 -6 12h-103q6 39 6 63q0 27 -18 29q-10 0 -12 -4l-39 -88h-35q8 16 11 29.5t3 17.5l2 12q10 51 11 72q0 25 -15 27q-6 0 -10 -5l-68 -153h-10 v-2q-18 0 -43.5 -10.5t-28.5 -12.5l-10 -6q-20 -14 -23 -17l-3 -3v-2q-29 -14 -29 -17q0 -2 47 -2h68l-15 -35h-4q-14 0 -43 -7t-31 -17v-4l-8 -2q-16 -16 -17 -18.5t-5 -10.5l-2 -4q-10 -8 -18.5 -12.5t-8.5 -6.5zM250 313q4 10 7 18.5t7 16.5h35l-16 -35h-33z" />
<glyph unicode="$" horiz-adv-x="884" d="M41 205l47 -74q39 -33 95.5 -64.5t125.5 -54.5q39 -14 69 -20l50 -10v-19q-4 0 -4 -4v-27q0 -39 14.5 -78.5t30.5 -66.5q74 0 74 70v20q-4 16 -4 21v53q0 33 31.5 59.5t76.5 26.5q66 0 105 30.5t58 69.5t24.5 77t5.5 54q0 100 -56.5 178t-158.5 132l17 14t37.5 31.5 t37 33t16.5 19.5v2q12 8 30.5 21.5t36 28.5t31 31.5t13.5 31.5v12q0 8 -4 28l-9 29q-12 39 -12 49q0 25 -7 40.5t-19.5 24.5t-28.5 15t-35 15q-33 14 -61.5 19t-52 14.5t-41 31t-27.5 70.5v6q-10 39 -16.5 62.5t-34.5 41.5l-76 -225q-43 -29 -80 -54.5t-64.5 -52t-43 -54 t-15.5 -58.5v-8q-12 -33 -24.5 -69t-22.5 -69q27 -123 135 -188q92 -53 183.5 -87t189.5 -56q0 -35 -45 -54.5t-103.5 -31t-114 -14.5t-77.5 -3q-94 0 -135 8l-58 5q-6 0 -20 3t-25 3zM328 725q129 111 258 111h18q0 -4 4 -5q4 0 8 5v-5l-8 -16q-29 -41 -55.5 -87t-26.5 -69 q0 -16 3 -23t3 -15q0 -4 -6 -5q-4 0 -24 5q-125 29 -174 104z" />
<glyph unicode="%" horiz-adv-x="786" d="M41 307q0 -23 12.5 -50.5t31.5 -54t42 -44t45 -17.5q18 0 31 15q18 27 29.5 49t20.5 42.5t19.5 39t26.5 41.5q14 16 32.5 37.5t35 42t29 37t14.5 22.5l-7 4q-2 0 -10 8t-6 13l80 151q80 154 144.5 282t111.5 228q2 10 3 17.5t1 13.5q0 14 -5 24.5t-11 18.5l-13.5 18 t-13.5 29v4q-6 2 -15.5 17.5t-11.5 19.5q-20 0 -41.5 -6t-29.5 -17q-121 -262 -318 -641q-41 -80 -73.5 -136t-60.5 -96t-50.5 -66.5t-42.5 -45.5zM70 1110q0 -66 51 -112t123 -46t124 46t52 112t-52 113t-124 47t-123 -47t-51 -113zM111 1110q0 49 35.5 63.5t91.5 14.5l8 2 q55 0 94 -15.5t39 -64.5t-38 -65.5t-93 -16.5t-96 16.5t-41 65.5zM395 313q0 -66 51.5 -111.5t122.5 -45.5q72 0 124 46t52 111q0 66 -52 113t-124 47t-123 -47t-51 -113zM436 313q0 49 36 63.5t91 14.5l8 2q55 0 94.5 -15.5t39.5 -64.5t-38 -65.5t-94 -16.5q-55 0 -96 16.5 t-41 65.5z" />
<glyph unicode="&#x26;" horiz-adv-x="1212" d="M41 166q55 -111 147.5 -148.5t212.5 -37.5q102 0 195.5 25.5t179.5 72.5q12 0 46 -14.5t71 -47.5q29 -23 58.5 -40t56.5 -17q33 0 63.5 21.5t52 50t34.5 58.5t13 46q0 41 -26 41q-16 0 -31.5 -14.5t-32.5 -14.5q-4 0 -19 6.5t-32.5 15.5t-32 19.5t-14.5 20.5l-7 1t-7 3v8 q-2 2 -2 8q0 23 1 32t3 20q8 61 10 84.5t2 31.5q0 29 -6 44.5t-16.5 27.5t-21.5 25.5t-21 35.5v2h-5q-31 49 -61 50q-10 0 -16 -4q0 -23 18 -41.5t18 -49.5q0 -8 -3 -24.5t-8 -33.5t-12 -30.5t-18 -13.5h-4q-23 0 -38 9t-26 22.5t-19.5 28t-14.5 22.5q-53 72 -86 126t-33 87 q0 27 29 60.5t63.5 68.5t63.5 69.5t29 63.5l4 25q0 37 -14.5 77.5t-47.5 75.5q-45 47 -101 69.5t-112 22.5l-65 -8q20 -43 44.5 -65.5t45 -39t35 -33.5t14.5 -50v-17q-8 -39 -32.5 -70.5t-51.5 -31.5h-10q-18 25 -33.5 72t-27 101t-19.5 107.5t-12 92.5q-74 -12 -109 -58v-2 q-14 -23 -24.5 -64.5t-10.5 -64.5q0 -63 11.5 -113t25.5 -91t25.5 -77t11.5 -71q0 -66 -47 -128t-103.5 -128.5t-103.5 -141.5t-47 -165zM174 205q0 14 12.5 36.5t14.5 24.5l241 260l25 -4l160 -235q-45 -33 -135.5 -53.5t-204.5 -40.5q-27 -4 -47.5 -7.5t-51.5 -3.5 q-8 14 -12 15q-2 0 -2 8z" />
<glyph unicode="(" horiz-adv-x="1032" d="M41 535q0 -117 25.5 -215.5t81 -169t143.5 -110.5t211 -40h67q14 0 15 23q0 23 -14.5 62.5t-35 80.5t-43 74.5t-36.5 46.5q-23 18 -55.5 24t-63.5 11.5t-53.5 15.5t-22.5 35v28q0 127 36 246t101.5 224.5t154.5 193.5t198 154q25 14 65.5 32.5t79.5 40t67.5 45t28.5 49.5 q0 29 -32.5 42.5t-73.5 13.5l-238 16q-172 0 -266 -76q29 -14 51 -14q16 0 33.5 -4t17.5 -16q0 -14 -11 -22.5t-13 -8.5q-66 -14 -122 -65.5t-102.5 -123t-83 -156.5t-61 -167t-37 -153.5t-12.5 -116.5z" />
<glyph unicode=")" horiz-adv-x="1032" d="M41 59q0 -47 74 -47h24v4q41 0 82 -3t76 -6t58.5 -5t29.5 -2q172 0 266 76q-14 6 -32.5 11t-34 8t-25.5 6t-10 10q0 14 11 22t13 8q55 16 108.5 68.5t99.5 124.5t85 156.5t67 165.5t43 152t15 116q0 117 -25.5 215t-81 168.5t-143.5 110.5t-211 40h-67q-14 0 -14 -22 q0 -23 14 -63t34.5 -81t42 -74.5t38.5 -46.5q23 -18 55.5 -24t63 -11.5t53 -15.5t22.5 -35v-28q0 -127 -36 -246t-101.5 -224.5t-155.5 -193.5t-196 -153q-25 -14 -66 -35t-80 -44.5t-67.5 -49t-28.5 -52.5z" />
<glyph unicode="+" horiz-adv-x="532" d="M41 256h2q2 0 12.5 2t32.5 2h115l-13 -45h3q-6 -16 -7 -41q0 -14 3.5 -26.5t11.5 -12.5h4l35 -29q0 -4 12 -15l12 -11l51 170q0 6 17.5 12t33 8t17.5 2l10 7q12 10 28.5 20t32 20.5t27 19.5t11.5 17l-4 8q-3 7 -7 11h-129q8 27 10.5 46t2.5 25l-5 9q-6 80 -38 80 q-10 0 -16.5 -2.5t-14.5 -6.5l-49 -149h-37l-2 -2q-16 0 -48 -10.5t-36 -24.5v-4l-8 -4q-10 -10 -15.5 -14.5t-8.5 -7.5t-5 -6t-4 -11v-4q-16 -16 -26.5 -23.5t-10.5 -9.5z" />
<glyph unicode="," horiz-adv-x="307" d="M41 -233q0 8 2 28.5t12 30.5l4 8q0 2 6.5 13.5t12.5 26.5t11 29.5t5 24.5v4q6 20 11.5 36t5.5 32q0 43 -20.5 64.5t-20.5 66.5q0 16 2 30.5t12 26.5v2h43q59 0 99 -39.5t40 -89.5v-16q0 -4 -2 -9t-4 -11l-18 -11l-33 -145l-164 -131l-4 12v17z" />
<glyph unicode="-" horiz-adv-x="368" d="M39 397q0 -6 33 -6h71q33 0 72 2t47 10l8 9q49 31 56 69l2 13q-2 2 -2 20h-187q-16 0 -28.5 -12.5t-22.5 -24.5t-16 -23.5t-11 -27.5v-4q-10 -16 -16 -19.5t-6 -5.5z" />
<glyph unicode="." horiz-adv-x="274" d="M41 156q0 -2 1 -3l1 -1v-5q8 -14 8 -28v-45q0 -2 2 -15.5t7.5 -28t11.5 -26.5t14 -12q2 0 3 1t3 1l8 4h9q2 2 10 2h20l11 -2h12q2 -2 12 -2q59 0 59 49v12q0 57 -55 144l-112 28q-8 -10 -16.5 -26.5t-8.5 -30.5v-16z" />
<glyph unicode="/" horiz-adv-x="768" d="M41 233q0 -25 12.5 -58.5t31.5 -63t42 -51t45 -21.5q20 0 31 16q18 35 29.5 60.5t20.5 49t19.5 45t26.5 48.5l33 47q2 2 14 17.5t25.5 35t25 38t13.5 26.5l-7 4q-2 0 -9 12l-7 13l80 176q80 180 144.5 331.5t111.5 270.5q2 10 3 18t1 17q0 18 -5 29.5t-12.5 21.5 t-14.5 22.5t-11 32.5v4q-6 2 -15.5 21.5t-11.5 23.5q-16 4 -24 4q-27 0 -41 -20q-59 -156 -141 -345.5t-189 -416.5q-6 -10 -10 -21.5t-10 -26.5t-15.5 -39t-25.5 -60l-8 -19q-72 -160 -152 -242z" />
<glyph unicode="0" horiz-adv-x="1316" d="M41 659q0 -336 136 -512t401 -176q47 0 77.5 3t55 7.5t49 11.5t59.5 15q37 68 164 103l4 4q43 12 70.5 23.5t46 25.5t32 34.5t27.5 51.5q51 111 82 239.5t31 227.5q0 106 -28.5 210.5t-86 187.5t-143.5 133t-201 50q-33 0 -48 -2t-24 -2v-2q-31 -66 -100 -65q-37 0 -79 9 t-72 9q-90 -23 -171 -83t-144.5 -142t-100.5 -176t-37 -185zM266 512q0 35 13.5 64.5t25.5 66.5q25 80 64 158t88 140.5t108.5 101t126.5 38.5q47 0 76 -8t61 -8q23 0 30 4t7 12q0 12 -13 30.5t-30.5 37t-36 34t-26.5 19.5l10 27q92 -18 123 -90v-2q23 -72 31 -129.5 t8 -128.5q0 -96 -16.5 -186.5t-45 -177.5t-66.5 -171t-79 -168q-41 -4 -57.5 -6t-24.5 -2q-72 0 -140.5 31.5t-120.5 82t-84 111t-32 119.5z" />
<glyph unicode="1" horiz-adv-x="641" d="M41 918q25 -43 72 -53.5t88 -10.5q59 0 77.5 -1t28.5 -5l23 -639q-23 -35 -33 -60.5t-10 -44.5q0 -25 22.5 -46t54 -37.5t67.5 -25.5t65 -9q18 0 32.5 1t32.5 3q39 2 39 18q0 14 -9 29.5t-18 15.5q-10 4 -21 11.5t-11 13.5l-9 139q-10 197 -19 322t-15 201.5t-9.5 118.5 t-3.5 73q14 57 22.5 92t13.5 56.5t7 32.5t2 22q-10 45 -30.5 71.5t-53.5 42.5q-68 39 -116 47v-2q-31 -37 -31 -88q0 -16 6 -55t6 -66l-4 -38q-18 -23 -37.5 -33t-56.5 -23q-23 0 -37 -11t-33 -13q-59 -4 -80.5 -15.5t-21.5 -33.5z" />
<glyph unicode="2" horiz-adv-x="1148" d="M41 164q0 -16 11 -47t28 -60q8 -29 31.5 -46t50 -26.5t52.5 -13.5t42 -4q59 0 103 7.5t73 15.5q117 18 238 18q41 0 106.5 3t129 14.5t113.5 33t62 60.5q12 43 19.5 75.5t7.5 69.5q-2 37 -4 54l-2 16q-16 -4 -31.5 -16.5t-15.5 -22.5q-39 -23 -70 -34t-55 -17 q-27 -6 -85.5 -11.5t-122 -10.5t-119.5 -8t-77 -3q-27 0 -45 2t-32 4v21l403 383q72 68 117 146.5t45 176.5q0 29 -11.5 63.5t-28 64.5t-38 49.5t-41.5 19.5v-39q0 -35 -8 -72t-25 -65q-49 -92 -120.5 -174t-141.5 -146.5t-126 -110t-77 -63.5l-264 -250l-92 -43v-14z M256 934q0 -16 10 -43t24.5 -52.5t30 -44t25.5 -18.5q35 -2 59.5 -4t43.5 -2q72 0 71 23q0 18 -15.5 30.5t-33.5 21.5t-33.5 19t-15.5 25q0 53 31.5 95t80 75t106.5 56.5t110.5 39.5t93.5 26.5t55 14.5q-43 82 -231 82h-39q-57 0 -111.5 -26.5t-101.5 -68.5t-85 -92.5 t-63 -99.5q-4 -18 -8 -31.5t-4 -21.5v-4z" />
<glyph unicode="3" horiz-adv-x="1071" d="M41 201q0 -27 24.5 -51.5t63.5 -47t85 -41t91 -32t82 -20.5t55 -7q109 0 214.5 27.5t188.5 83t134 137.5t51 190q0 31 -12 52.5t-31 50.5q-55 88 -145 150.5t-244 97.5q-59 14 -97 20t-38 29l1 2l3 6q39 51 107.5 95t137 84t125 79t68.5 82q-18 72 -60 91t-102 19 q-115 0 -196.5 -3t-143 -8t-104.5 -8t-80 -3q-35 0 -58.5 4t-29.5 14q-10 14 -17.5 18.5t-11.5 4.5q-10 0 -12 -2v-2q-4 -41 -6 -64.5t-2 -31.5q0 -94 45 -128t127 -34q96 0 144 11t69 15l55 9q16 -25 18.5 -35.5t2.5 -16.5q-92 -92 -163 -167.5t-138 -108.5 q0 -27 21.5 -59.5t47 -62.5t51 -51.5t35.5 -27.5q55 31 76 40t33 9q100 0 163.5 -3t100.5 -10t54.5 -21.5t27.5 -38.5q-35 -80 -96.5 -151t-139 -123t-163.5 -81.5t-170 -29.5q-45 0 -67.5 9t-33.5 29q2 16 42 31t86 29t84 29.5t38 33.5q0 8 -20.5 9.5t-26.5 1.5 q-100 0 -165.5 -13.5t-104.5 -32t-55.5 -40t-18.5 -37.5z" />
<glyph unicode="4" horiz-adv-x="1298" d="M41 438q0 -16 3 -49t12.5 -65.5t25.5 -57t41 -24.5q20 0 37.5 10t31 22.5t21.5 22.5l8 10l479 17q45 -33 45 -107v-70q0 -37 15.5 -66.5t41 -49t57.5 -29.5t65 -10q27 0 55 6l-16 293q27 45 110 45q8 0 25.5 -2t35 -3t34 -3t22.5 -2q47 0 55 26.5t12 71.5 q-18 57 -49.5 125.5t-70.5 155.5q-18 39 -37 84t-36 84.5t-29.5 69.5t-18.5 38q-18 27 -29.5 61.5t-16.5 72.5t-6 77t-1 74v37q-68 -16 -123 -62q-61 -53 -62 -117v-2q-283 -215 -620 -608q-8 -4 -19.5 -5t-19.5 -1q-43 0 -60.5 -12.5t-17.5 -57.5zM451 522q8 25 32.5 57.5 t65.5 79.5q61 68 94 108t50.5 60.5t23.5 27.5t12 7q13 0 25 -39q0 2 -2 -21.5t-4.5 -55t-4.5 -64.5t-2 -51q0 -43 -5 -67.5t-19.5 -36t-40 -13.5t-66.5 -2q-43 0 -87 5t-72 5zM963 561v391l16 9q12 -27 31.5 -63t39 -76t36 -78.5t20.5 -71.5q10 -35 18.5 -64t12.5 -47 q-41 -16 -64.5 -26.5t-60.5 -10.5z" />
<glyph unicode="5" horiz-adv-x="1001" d="M41 213q0 -45 36 -85t85 -69.5t100 -47t80 -17.5q90 0 191.5 23.5t187.5 74.5t142.5 130t56.5 188q0 61 -33 134.5t-89.5 136t-133 104.5t-162.5 42l-62 -4q-53 0 -86 21q0 20 -3 42.5t-5 43t-4 35t-2 18.5q0 53 35 76q78 -14 157.5 -20.5t157.5 -6.5q2 0 47 2t133 6 q33 -41 42.5 -52t17.5 -11q10 0 16 12t9 29.5t4.5 33t1.5 21.5q0 98 -62 170q-35 2 -65.5 5t-63.5 5q-133 4 -230.5 8.5t-170 10.5t-123.5 14t-90 21v-2q-55 -59 -56 -148q0 -33 4.5 -81t10.5 -97t10 -91t4 -61q0 -25 3 -64.5t13.5 -77.5t33 -64.5t63.5 -26.5q25 0 45 7 t37.5 15.5t29 15.5t17.5 7q322 -12 422 -205q-55 -63 -130 -99t-150 -54.5t-139.5 -22.5t-101.5 -4q-35 0 -58.5 6t-23.5 23q0 20 18.5 41.5t41 40t43 33t24.5 22.5q-18 -2 -63 -17.5t-92 -41t-84 -63.5t-37 -85z" />
<glyph unicode="6" horiz-adv-x="1019" d="M41 483q2 -94 17.5 -182t52 -156.5t98 -109.5t153.5 -41q37 0 73 9t69 9q29 0 53.5 -20.5t50.5 -20.5q16 0 33.5 8.5t32.5 8.5h4q57 25 112.5 68.5t96.5 101t66.5 124t25.5 136.5q0 147 -86 233t-234 86q-45 0 -95 -10t-93 -32.5t-70.5 -57.5t-27.5 -84q0 -2 2 -3l2 -1 q31 -68 65.5 -110t63.5 -66.5t49 -33.5t25 -9h38v6q-12 27 -34 26q-14 0 -26.5 16.5t-22 36t-14.5 38t-5 22.5q8 25 31.5 44.5t53.5 31.5t61.5 18t56.5 6q20 0 34.5 -8t14.5 -30v-19q0 -55 -24.5 -133t-65.5 -148.5t-96.5 -120.5t-118.5 -50q-47 0 -79 36.5t-50.5 87 t-26.5 101.5t-8 78q0 70 16.5 158.5t46 183t72.5 185.5t95.5 161.5t112.5 115t128 44.5q25 0 58.5 -9.5t65.5 -21.5t54.5 -23.5t24.5 -15.5v29q-12 18 -29.5 33.5t-37 27.5t-36 22.5t-24.5 18.5q-41 8 -84 8q-145 0 -273.5 -67.5t-223.5 -178t-153.5 -249t-66.5 -279.5 q-2 -16 -3 -23.5t-1 -5.5z" />
<glyph unicode="7" horiz-adv-x="1067" d="M41 1188q31 -111 57.5 -154t38.5 -43q8 0 8 17q14 33 45 45q197 37 357 37q43 0 88 -4.5t80 -18.5q-18 -39 -40 -84t-44.5 -90t-46 -85t-45.5 -67q-27 -4 -61 -9t-64 -5q-12 0 -57.5 4t-96.5 9t-96 9.5t-60 4.5q-12 0 -20 -13.5t-12 -31t-6.5 -36t-2.5 -26.5 q0 -10 3.5 -25.5t10.5 -29.5t17 -24.5t23 -10.5q45 0 72.5 -24.5t42 -63.5t20.5 -85t10 -89t9 -76t18 -43q14 -12 19 -30.5t5 -41.5v-43q0 -20 4 -41q39 -35 52.5 -42t23.5 -7q63 0 64 70q0 29 18.5 60.5t26.5 54.5l33 104q0 31 11 64.5t26.5 64.5t29.5 54.5t21 31.5 q68 94 182 94q63 0 97 15.5t54 48.5q18 25 37 57.5t33 67.5q-96 0 -137 -8.5t-60 -8.5q-53 0 -53 31q27 47 49.5 90t40.5 82q37 78 103 100v29q0 45 -20.5 91t-49.5 81l-399 33q-119 0 -222.5 -5t-195.5 -16q-23 -8 -32 -27.5t-9 -41.5zM240 498q0 31 45 30q16 0 50 -6 t52 -6h8v-20q0 -12 -6 -36t-16.5 -47.5t-23.5 -40t-27 -16.5q-12 0 -26.5 18.5t-27 43t-20.5 47t-8 33.5z" />
<glyph unicode="8" horiz-adv-x="1075" d="M41 279q0 -78 29.5 -134.5t80 -93.5t116 -54t136.5 -17q90 0 122 18t32 27q0 16 -45 40.5t-100.5 56.5t-100.5 69.5t-45 80.5q0 45 48 101.5t113 105.5t129.5 83t98.5 34q35 0 74 -11.5t73 -28.5t55.5 -38.5t21.5 -42.5q0 -49 -43 -103.5t-101.5 -99.5t-122 -73.5 t-102.5 -28.5q-18 2 -36.5 1t-22.5 7q61 -70 132.5 -105.5t137.5 -35.5q63 0 120.5 31.5t100.5 80t67.5 102.5t24.5 99q0 74 -26.5 126t-69.5 91t-97.5 69t-107.5 56q41 31 79 72t67.5 84t47 84t17.5 76q-10 61 -31.5 109t-72.5 54q-20 2 -55 13.5t-73 28t-77 35t-70 34.5 v-4q-66 12 -94 12q-72 0 -134.5 -25.5t-108.5 -69.5t-71.5 -105.5t-25.5 -133.5q0 -59 22.5 -98t50 -69.5t51.5 -57t24 -59.5v-4q-47 -35 -90.5 -77t-76 -91t-52 -104.5t-19.5 -116.5zM303 868q0 27 25.5 60t63.5 65.5t84 62t88 52t74 37t42 14.5q41 0 53 -37v-2 q0 -61 -37 -121.5t-88 -109.5t-103 -79t-83 -30q-29 0 -50.5 10.5t-37 23.5t-23.5 28.5t-8 25.5z" />
<glyph unicode="9" horiz-adv-x="1136" d="M41 805q0 -80 46 -139.5t115.5 -99.5t150.5 -59.5t151 -19.5q39 0 93 10.5t109.5 28t103.5 37t75 37.5q-94 -137 -377 -301q-55 -25 -95 -48.5t-73 -48t-64.5 -53t-74.5 -61.5q18 -23 46.5 -40t61.5 -29.5t66 -19.5t59 -9q117 27 234.5 91t213 156.5t155 206t59.5 240.5 q0 109 -60 223q-4 6 -28.5 35t-53 67t-52 77.5t-23.5 68.5q0 10 8 15.5t33 5.5q45 0 47 20q-152 90 -344 90q-102 0 -184.5 -30.5t-147 -78t-111.5 -104.5t-77.5 -111.5t-46 -96.5t-15.5 -60zM205 745q31 86 92 153t139 116t161 79.5t157 47.5q160 -145 159 -342 q0 -68 -12 -88v-2q-45 -12 -85 -21.5t-82 -15.5t-90 -11.5t-107 -9.5q-211 0 -332 94z" />
<glyph unicode=":" horiz-adv-x="356" d="M41 53q0 -27 30.5 -52.5t82.5 -25.5q12 0 23 10.5t20 10.5q31 12 39 12q41 0 60 13.5t19 78.5q0 39 -15 69t-37.5 51.5t-48.5 32.5t-48 11q-43 0 -58.5 -4t-35.5 -14v-2l2 -27q0 -29 -5.5 -49.5t-11.5 -36.5t-11 -34.5t-5 -43.5zM86 578q53 -53 84 -82t59 -29q20 8 47 43 t27 80q4 25 7 39t3 24q0 12 -16 36t-40 46.5t-51.5 40t-49.5 17.5q-14 -2 -21 -2h-12v-3q-16 -51 -24.5 -85.5t-8.5 -73.5q0 -20 -2 -35z" />
<glyph unicode=";" horiz-adv-x="497" d="M41 -344h20q80 63 203 246q29 59 46.5 97t28.5 61.5t17 38t13 26.5q29 53 28 92q-12 20 -35 21q-31 0 -50 -5.5t-32.5 -13.5t-23.5 -15t-23 -9l-98 -314q-16 -35 -31.5 -73.5t-28 -71.5t-21.5 -55.5t-13 -24.5zM260 553q0 -45 26.5 -86t73.5 -41h5q25 0 42 24.5t28 55.5 t16.5 57.5t5.5 30.5q0 23 -15.5 43t-35 36.5t-36 29t-20.5 18.5q-16 25 -51 24l-37 -4q8 -27 8 -51q0 -20 -2 -43.5t-3 -44t-3 -34.5z" />
<glyph unicode="&#x3c;" horiz-adv-x="839" d="M41 664q0 -66 39 -114t95 -86t117.5 -68.5t106.5 -59.5q143 -285 359 -285q29 27 35 55.5t6 67.5v27q-18 68 -49 117t-72 87.5t-92 70.5t-109 65q-61 27 -101 48t-62.5 38.5t-31 33t-8.5 29.5q0 16 7.5 30.5t17.5 31.5q51 68 108.5 106.5t111.5 64t103.5 43t87.5 42 t59.5 64.5t21.5 110q0 53 -21 61q-18 8 -25 27q0 2 -10 10t-22.5 16.5t-23.5 15.5t-13 7q0 -14 1 -21.5t1 -13.5v-14q0 -37 -38 -71t-93 -66.5t-122 -65.5t-122 -65.5t-93 -68.5t-38 -77q0 -16 2 -28.5t2 -32.5q-70 -4 -102.5 -43t-32.5 -88zM471 274l6 11q4 -12 29 -37 q27 -27 49 -27q35 -18 57.5 -40t38.5 -42q-53 0 -84 35q-16 16 -37.5 40t-50.5 52z" />
<glyph unicode="=" horiz-adv-x="464" d="M41 143q0 -4 41 -4q242 0 254 13q72 41 72 77q-2 14 -4.5 21.5l-4.5 13.5h-254q-16 0 -36.5 -11t-20.5 -28l-6 -8q-2 -8 -9 -19.5t-14.5 -22.5t-12.5 -20.5t-5 -11.5zM57 322q0 -6 41 -7q121 0 183.5 1t70.5 10q72 35 72 65q0 8 -3 16.5t-5 8.5l-248 2q-16 0 -37.5 -15.5 t-24.5 -17.5q-18 -27 -33.5 -43t-15.5 -20z" />
<glyph unicode="&#x3e;" horiz-adv-x="839" d="M41 1171q18 -68 49 -117.5t72 -87.5t91 -70t109 -65q115 -51 158 -85.5t43 -67.5q0 -55 -38 -97t-92 -74t-114.5 -57.5t-105.5 -48.5q-66 -41 -115 -88t-49 -123q0 -53 18.5 -61t26.5 -27q0 -2 10.5 -10t22.5 -17t23.5 -15.5t13.5 -6.5q0 14 -1 21.5t-1 13.5q0 41 38 77 t93 70.5t121.5 67.5t122 66.5t93.5 70.5t38 76q0 16 -2 28.5t-2 33.5q70 4 102.5 42.5t32.5 88.5q0 47 -29 95t-80 75q-35 31 -62.5 50t-55 34.5t-59.5 32t-73 40.5q-143 285 -358 285q-29 -27 -35 -55.5t-6 -67.5v-27zM188 1233q53 0 84 -35q16 -16 38 -39.5t50 -52.5l9 -8 l-7 -11q-2 6 -12 16.5t-22.5 22t-24.5 18.5t-18 7h-4q-33 18 -55 40t-38 42z" />
<glyph unicode="?" horiz-adv-x="684" d="M41 905q0 -25 18.5 -54.5t40 -55t40 -42t18.5 -12.5l2 29q-12 12 -22.5 21.5t-10.5 39.5v21q0 2 -4 14q0 55 46 94t101.5 63t104.5 35t55 11q18 0 33 -8q0 -41 -26.5 -101.5t-65.5 -128t-86 -136t-86 -126t-66 -99.5t-27 -56q37 -43 97.5 -81t120.5 -38q68 14 113.5 45 t80.5 71t62.5 87t56.5 94q-37 -4 -79 -22.5t-84 -40t-83 -38t-76 -16.5q-12 0 -32 4q80 96 145.5 187.5t112.5 169t72.5 139t25.5 98.5q0 98 -59.5 149.5t-139.5 51.5q-119 0 -196.5 -48t-122.5 -110.5t-62.5 -124t-17.5 -86.5zM158 80q0 -23 12 -40t30.5 -31.5t41 -26 t41.5 -19.5q8 4 11 7t9 5q29 0 48.5 15.5t31.5 34t17.5 36t5.5 23.5q0 23 -22 36t-47.5 24.5t-50 23.5t-30.5 33q-10 29 -23 28h-12q-10 -6 -20.5 -24.5t-20.5 -42t-16 -47t-6 -35.5z" />
<glyph unicode="A" horiz-adv-x="1617" d="M41 410q18 -47 64.5 -88t95.5 -52q0 -47 -15.5 -89t-15.5 -70q0 -16 17.5 -33t42 -30t52 -21.5t48.5 -8.5q25 0 51.5 27t47 60.5t33.5 65.5t13 42q29 0 69 -3t52 -3q156 -59 370 -110.5t502 -96.5q55 0 56 41q0 20 -22.5 60t-50.5 87.5t-50.5 94.5t-22.5 82q0 18 11.5 23 t15.5 5q39 -4 62.5 -5t36 -2t16.5 -1h12q33 0 45 12q-51 39 -83 68t-53.5 47t-34.5 27.5t-26 9.5l-53 -17q-29 27 -55.5 80.5t-51 119t-48 137t-42 139t-33 125t-24.5 90.5q-10 37 -19.5 64.5t-21.5 48t-30.5 32.5t-49.5 23q-61 31 -106 47t-76 20q-35 -63 -78 -147 t-88 -179.5t-90 -193.5t-85 -188.5t-72.5 -168t-53.5 -128.5q-23 -2 -66.5 -3t-87 -5.5t-76 -12.5t-32.5 -22zM565 238v18q94 6 164 18.5t131.5 26.5t120.5 24.5t137 10.5q51 0 89 -22.5t38 -61.5q14 -53 41 -80q0 -33 -33 -33q-23 0 -29.5 2t-9.5 2q-47 0 -113.5 6.5 t-138 15.5t-143 19.5t-128 21.5t-91.5 19t-35 13zM586 483q14 29 27.5 58.5t25.5 60.5q43 106 76 183t58.5 131.5t45 91t35.5 61.5h16v-2q10 -14 27.5 -50t39 -84t43 -103.5t40 -107.5t30 -95t11.5 -66t-10 -22q-31 -12 -94.5 -18.5t-134 -11.5t-135 -10t-101.5 -16z" />
<glyph unicode="B" horiz-adv-x="1335" d="M41 1290l14 -82q35 -43 60.5 -92t44.5 -67q94 -184 200 -230q14 -45 22.5 -124t11.5 -156.5t4 -137t1 -65.5v-66q-23 -16 -43 -16q-25 0 -47 13.5t-39.5 30.5t-30 30.5t-18.5 13.5q-16 0 -16 -35q0 -82 32.5 -140t89 -95t133.5 -54.5t167 -17.5q92 0 207.5 8t218 38 t172 89.5t69.5 163.5q0 82 -24.5 137.5t-61.5 97t-81 74.5t-85 70v12q184 111 224 383q-35 104 -112 177t-176 119t-211 67.5t-218 21.5q-160 0 -277.5 -31.5t-216.5 -97.5v-2q-14 -14 -14 -37zM242 1145v10q0 4 1 5t1 3v21q16 12 35.5 23.5t39.5 17.5q10 4 40 12t59 16 l12 4q20 0 29 9v-13q0 -33 -49 -69q-14 -14 -25.5 -23.5t-19 -20t-10.5 -25.5t-3 -42q0 -8 -2 -18.5t-2 -20.5v-55q0 -20 4 -48t8 -46q-8 18 -19 45.5t-28 60.5l-4 8q-14 43 -40.5 76t-26.5 70zM594 762v215q0 90 1 148.5t1 88.5v48q141 0 244.5 -29t158.5 -107v-2 q-12 -68 -63 -138.5t-112.5 -127.5t-117 -93t-75.5 -36q-37 0 -37 33zM596 250q6 66 11 107.5t5 93.5v98q8 8 23 8q53 4 73.5 12.5t28.5 8.5q125 -12 196 -46t109 -92v-2q-10 -59 -59 -101t-110.5 -69.5t-123 -41t-94.5 -13.5q-18 0 -34.5 8t-24.5 29z" />
<glyph unicode="C" horiz-adv-x="1200" d="M41 535q0 -117 25.5 -215.5t81 -169t143.5 -110.5t211 -40q125 0 242.5 49t210 125t148.5 166t56 170q0 10 -6 19.5t-20 11.5q-18 -33 -71.5 -64t-123.5 -58.5t-147.5 -52t-147.5 -42t-121 -27.5t-67 -10q-29 0 -63 4t-63.5 13t-49 25.5t-19.5 43.5q0 135 34 259 t97.5 232.5t153.5 198.5t205 156q68 -51 97.5 -97.5t29.5 -109.5q0 -59 -9.5 -101.5t-25.5 -74.5q49 4 97 28.5t86 64.5t61.5 91t23.5 108q-16 55 -25.5 88t-14.5 50.5l-7 24.5t-2 14q0 141 -143 141h-78q-47 4 -95.5 8t-97.5 4q-172 0 -266 -76q29 -14 51 -14q16 0 33.5 -4 t17.5 -12q-14 -23 -18 -28t-6 -7q-96 -37 -174 -124t-132.5 -197.5t-83 -232.5t-28.5 -228z" />
<glyph unicode="D" horiz-adv-x="1376" d="M41 1249q0 -29 13.5 -72.5t34 -92t44 -97.5t43.5 -86q6 -12 10 -26.5t11 -30.5q8 -29 22 -59.5t43 -39.5v17q0 16 -12 57t-27.5 88t-29 91t-17.5 69q45 98 193 117q20 -8 20 -25q0 -14 -10 -31.5t-22.5 -34t-23.5 -29.5t-11 -20q-4 -45 -5.5 -96t-1.5 -86l29 -543 q0 -65 -59 -65h-2q-33 0 -71 14.5t-69 14.5h-10q12 -86 55 -140.5t104.5 -86t137.5 -44t158 -12.5q131 0 258 39t230.5 111.5t173 175t85.5 231.5q-10 82 -17 128t-7 93q0 10 2 13.5t2 5.5v18l4 12q0 39 -12.5 67t-22.5 56q-41 104 -89 177t-122 124q-37 23 -110.5 57.5 t-164.5 68.5t-189.5 57.5t-184.5 23.5q-66 0 -133.5 -9t-122.5 -32.5t-91 -64t-36 -103.5zM506 270q0 10 10 38t16 42q35 53 41.5 104.5t6.5 118.5q0 39 -3.5 91.5t-8.5 107.5t-8 106.5t-3 88.5q0 27 3 62.5t7 67t8.5 53t6.5 21.5l24 9q109 -39 208 -85t179 -110.5 t134.5 -150.5t70.5 -205v-2q-49 -88 -121.5 -156t-162 -114t-188.5 -70.5t-202 -24.5l-6 -1t-10 -1q-2 6 -2 10z" />
<glyph unicode="E" horiz-adv-x="1458" d="M41 186q0 -61 23.5 -97t61.5 -56.5t84 -26.5t89 -6q184 0 317.5 6t226.5 16.5t152.5 22.5t99.5 24.5t63.5 23.5t45.5 18q123 39 172 180q4 16 22.5 38.5t18.5 41.5q0 23 -39 22q-115 0 -230.5 -21.5t-225 -46t-210 -46t-184.5 -21.5h-36q-16 12 -21.5 38t-5.5 64v119 q31 43 61.5 68.5t58 40t48 21.5t31.5 14q49 27 104 40t137 13q57 0 110.5 13t97.5 32.5t76 41t48 38.5q-6 6 -9 19.5t-7 27.5v4q0 45 -43 56.5t-99 11.5q-74 0 -175 -4t-193.5 -8.5t-159 -8.5t-74.5 -6q-23 10 -22 25q0 33 -6.5 49t-6.5 45q4 18 8.5 30.5t4.5 22.5 q0 78 -8.5 110.5t-8.5 36.5q35 0 100.5 5.5t140.5 10.5t150.5 10t133.5 5q8 0 23 -8t15 -21q-45 -37 -109.5 -68.5t-133 -59t-132 -53t-106.5 -52.5l684 240q33 8 50.5 27.5t25.5 38t10 32.5l2 14q0 12 -8 31.5t-22.5 40t-33 35t-38.5 14.5h-2q-12 0 -28.5 1l-33 2t-28.5 1 h-17q-166 0 -304 -5t-242.5 -10t-172 -9t-94.5 -4q-43 0 -89 9t-93 15q-23 -23 -23 -59q0 -16 4.5 -45t13.5 -57.5t25.5 -49t43.5 -20.5q47 -8 65 -31l12 -262q-18 0 -38.5 -16.5t-38 -39t-29.5 -45t-12 -34.5q0 -23 13 -50.5t44 -31.5q47 -20 57 -65.5t10 -115.5 q0 -37 -4 -61.5t-14 -42.5t-25.5 -34.5t-37.5 -37.5q-39 -37 -75 -73.5t-36 -96.5zM133 297q0 25 22.5 50.5t45.5 25.5q41 0 45 -35v-31q0 -51 -53 -51q-33 0 -46.5 12.5t-13.5 28.5zM451 608q0 70 77 70q43 0 71 -5t52 -5q23 0 37 8v-4q4 -8 4 -17q0 -8 -13 -12t-22 -4 q-18 -4 -40.5 -15.5t-45 -24.5t-43 -23.5t-36.5 -10.5q-10 2 -23.5 9.5t-13.5 15.5z" />
<glyph unicode="F" horiz-adv-x="1359" d="M41 1434q0 -43 35 -86t82 -78t94 -59.5t74 -30.5q-37 -66 -43 -189q0 -10 1 -35.5t3 -51t3 -44t1 -16.5q-14 -45 -40 -70.5t-51.5 -44t-45 -34t-19.5 -40.5q0 -49 30 -76.5t65.5 -49t65.5 -45t30 -62.5q0 -12 -1 -26.5t-1 -22.5q0 -23 4 -66t8 -92t8 -95t4 -75 q39 -45 135 -45q33 0 66 4t59.5 14.5t43 26.5t16.5 41q0 37 -16.5 81t-35 88t-35 83t-16.5 63q0 43 16.5 54.5t57.5 11.5q51 0 121.5 4t138.5 8t122 9.5t73 7.5q43 4 79.5 22.5t36.5 83.5q0 41 -11 55.5t-13 26.5q0 18 3 31.5t3 25.5q0 18 -13.5 40t-27.5 22 q-16 0 -25.5 -16.5t-15.5 -24.5q-68 0 -154 -7t-166.5 -16.5t-144 -16.5t-88.5 -7l-16 18q4 4 4 17v61q0 20 9 41.5t26 30.5q106 41 212.5 87t203 94t180.5 95t143 90q-16 12 -25 37q-25 80 -58.5 122t-49.5 42q-82 0 -178.5 -2t-197.5 -4t-199.5 -6t-184.5 -6t-152.5 -4.5 t-103.5 -2.5q-10 8 -28.5 18.5t-35.5 10.5q-57 0 -65 -20zM238 707q0 20 9 31.5t15 11.5q29 0 29 -21v-16q0 -4 -4 -12.5t-13 -8.5q-37 0 -36 15zM553 1081q0 70 43 107q45 4 105.5 6t123.5 2t122 -2t102 -6q0 -12 -2.5 -25.5t-10.5 -19.5q-74 -47 -129 -81t-104 -60.5 t-98.5 -50t-108.5 -50.5h-29v21q0 2 -2 20.5t-5 44t-5 52t-2 42.5z" />
<glyph unicode="G" horiz-adv-x="1599" d="M45 391q0 -98 72.5 -172t181.5 -122t234.5 -72.5t232.5 -24.5q68 0 162 13.5t180 45t145.5 84t59.5 127.5q0 10 -5 26.5t-5 27.5q0 23 34 22q29 0 45.5 -4t24.5 -4q25 0 57.5 25.5t62 61.5t50 75t20.5 65q0 35 -38 35q-16 0 -50 -1t-76 -3t-87.5 -5t-85 -5t-67.5 -3 t-36 -1q-129 0 -207 7t-120 16t-56 18.5t-14 13.5q0 12 28.5 25.5t67.5 13.5q80 0 108.5 2t28.5 6q0 2 -24.5 6t-58 8t-67.5 6.5t-55 2.5q-66 0 -103.5 -8.5t-59 -24t-27.5 -38t-6 -50.5q0 -68 25.5 -113t65.5 -71.5t91 -38t100 -11.5q33 0 75 -2t81 -4t69.5 -7t41.5 -11 q-4 -18 -21.5 -37t-39 -33t-45 -23.5t-42.5 -9.5q-76 0 -137 -12t-108 -12q-135 0 -266.5 40t-229.5 128q0 137 35 247.5t91 197.5t128 150.5t142.5 104.5t136 61.5t110.5 20.5q53 0 120.5 -33t128 -72.5t102.5 -72.5t44 -33q31 0 39 28.5t8 98.5q0 55 -31.5 105.5 t-81.5 94.5t-113.5 78.5t-126 60.5t-118 39t-90.5 13q-49 0 -84 -12t-58.5 -29.5t-34.5 -34t-11 -22.5q0 -31 41 -60q-14 -6 -39 -18t-47 -12q-143 0 -238.5 -74t-153 -193.5t-82 -272t-24.5 -310.5v-29z" />
<glyph unicode="H" horiz-adv-x="1732" d="M41 848q0 -33 8 -76t8 -67q0 -35 20.5 -61t51.5 -48.5t65.5 -45t63.5 -50.5l16 -357q94 -123 207 -143q43 43 43 131q0 12 -1 30.5t-3 37t-3 33t-1 18.5q2 123 47 123q18 0 42 -10.5t48.5 -24.5t49 -27.5t47.5 -19.5q14 -4 35.5 -10.5t44 -14.5t45 -18t38.5 -23 q66 -29 104 -42t56 -17q-55 31 -138 70.5t-161 80.5t-133 79t-55 67l4 12q76 -8 153.5 -16t149.5 -15.5t132 -13.5t101 -8l39 -41q-2 -10 -3 -19.5t-1 -17.5q0 -18 5 -58t5 -65q0 -63 -49 -90q86 -45 135.5 -71.5t77 -40t39.5 -16.5t23 -3q31 0 47 15.5t16 33.5 q-14 102 -22 161.5t-8 84.5q0 45 4 73.5t14 49.5q39 8 68 8q106 2 141 17.5t35 31.5q0 25 -15.5 62.5t-25.5 60.5q-14 31 -39 42t-60 11q-43 0 -67.5 7.5t-38.5 19.5t-18.5 28.5t-4.5 34.5q0 72 11.5 128.5t11.5 91.5q0 117 3 211t3 143q0 29 -26.5 48t-73.5 36 q-33 10 -64 26.5t-39 16.5q-12 0 -18 -3t-6 -1q0 -27 -4 -83.5t-10.5 -127t-12.5 -147t-11 -140t-9 -108t-4 -48.5q0 -37 -6.5 -70.5t-32.5 -37.5q-324 23 -607 92v514q-12 8 -43.5 36t-67.5 58.5t-70 54t-52 23.5q-23 0 -34 -4t-19 -12q16 -88 24 -181.5t8 -150.5 q0 -23 -2 -68t-8 -90t-20.5 -78.5t-38.5 -33.5q-33 0 -54.5 8t-37 17t-27.5 16.5t-29 7.5q-10 -16 -13 -23.5t-3 -13.5z" />
<glyph unicode="I" horiz-adv-x="448" d="M41 123q14 -18 45 -41t69 -42.5t76.5 -31.5t69.5 -12q49 0 57 33q4 29 7.5 51t3.5 39q0 33 -6.5 49t-6.5 45q0 23 8.5 58.5t17.5 72.5t17.5 66.5t8.5 42.5q0 -2 -5 -2q-16 0 -27 6t-18 10q0 37 -2 102.5t-5 144.5t-6 167t-7 168.5t-8 150.5t-8 113q-12 33 -26.5 46 t-32 21.5t-36 16.5t-39.5 28q-14 4 -36.5 16.5t-28.5 16.5q-20 0 -48 -11t-28 -32q37 -332 37 -829q2 -27 5 -46.5t3 -33.5v-100q0 -174 -51 -283z" />
<glyph unicode="J" horiz-adv-x="937" d="M41 1257q0 -74 43 -131t113 -75q10 4 13 5t3 3q-6 10 -25.5 33.5t-19.5 33.5q0 31 37 52.5t90 35t112.5 19.5t104.5 6q66 0 92 -20q6 -47 11.5 -84t7.5 -73t3 -74t1 -83q0 -57 -7.5 -145t-19.5 -188.5t-29.5 -203t-40 -187.5t-48 -143t-52.5 -71q-16 0 -35.5 29t-37 75 t-30 103t-12.5 113v20q-4 12 -4 17q0 35 6.5 62.5t6.5 31.5q0 14 -3.5 25.5t-5.5 11.5q-61 0 -100 -28t-60.5 -69t-28.5 -90t-7 -92q0 -49 12 -99t37 -91t60.5 -68t82.5 -27q25 0 49.5 15.5t40.5 15.5q8 0 13.5 -6t8.5 -14t7 -14.5t10 -6.5q41 0 63.5 19.5t45.5 38.5 q55 45 102 113.5t86 148.5t69 169t50.5 175t30.5 166t10 141q0 63 -12.5 154.5t-38 177.5t-65.5 151.5t-93 81.5l-41 -12v-2q-57 23 -109.5 31t-117.5 8q-45 0 -109.5 -11.5t-125 -34t-102.5 -57t-42 -82.5z" />
<glyph unicode="K" horiz-adv-x="1204" d="M41 209q0 -29 29.5 -74t87.5 -78q29 -23 49 -36t37 -13q23 0 41 34t31.5 77t20.5 81t7 46q0 37 8 75.5t25 38.5q100 -106 183 -175.5t161 -110.5t155.5 -57.5t167.5 -16.5q35 0 57.5 10t37 27.5t19.5 38t5 39.5q0 25 -50 66.5t-111.5 83.5t-111.5 72l-50 30q0 -10 14 -41 t14 -54q0 -10 -6 -17t-16 -7q-41 0 -100.5 35.5t-126 86t-130 104.5t-112.5 91v35q109 80 233.5 174t231 185.5t177.5 168t71 121.5q0 29 -16.5 63t-41 63.5t-51.5 52t-47 30.5q-20 -14 -21 -39q-117 -152 -247.5 -271.5t-284.5 -217.5l-33 -4q-4 72 -16.5 156.5t-39 158.5 t-70.5 124t-107 50q-29 0 -43 -20q8 -78 16 -169t16.5 -180.5t13.5 -167t5 -124.5q0 -6 -10.5 -19.5t-21.5 -29t-21.5 -28.5t-10.5 -22q0 -25 8.5 -39t18.5 -22t19.5 -14.5t9.5 -14.5v-39l4 -43q0 -2 2 -3t2 -5q0 -14 2 -23.5t2 -17.5q0 -49 -13.5 -84t-29.5 -60.5 t-29.5 -44t-13.5 -36.5z" />
<glyph unicode="L" horiz-adv-x="1183" d="M41 291q20 -25 53 -70t76 -89t94 -75.5t109 -31.5q18 0 36.5 15t41.5 38q6 12 33.5 20t61.5 12.5t64.5 6.5t40.5 2q25 0 37 2t21 2q72 0 118.5 -19.5t81.5 -42t61.5 -42t59.5 -19.5q41 0 53.5 14.5t12.5 34.5t-5.5 42t-5.5 36q0 43 9.5 70.5t19.5 48t19.5 38t9.5 40.5 q0 49 -45 69q4 35 7 85t6 98.5t5 86t6 50.5l-37 -2q-6 -129 -22 -208t-41 -122t-57.5 -58.5t-71.5 -15.5q-59 0 -115.5 5t-100.5 12.5t-73 12.5t-35 5q-72 0 -99.5 32t-27.5 97q0 16 1 20.5t1 8.5v53q0 12 -6 17t-6 16q0 16 5 46t5 36q0 16 -1 52t-2 72.5t-2 64.5l-1 28 q0 129 8.5 200.5t21.5 106.5t31.5 42t39.5 7q49 0 101 -22.5t98 -49t83 -49t53 -22.5q6 0 11.5 15t8.5 34.5t4 36t1 20.5q0 76 -29.5 125t-79 78t-113 40t-130.5 11q-72 0 -128.5 -19.5t-94 -45t-58 -50t-20.5 -32.5q2 -33 30 -33q35 0 45.5 -3t14.5 -9q-45 -37 -75 -84 t-48 -100.5t-26.5 -108t-8.5 -103.5q0 -59 10.5 -120.5t22.5 -123t22.5 -122t10.5 -121.5q0 -23 -11.5 -35t-42.5 -12q-35 0 -47 3t-18 3q-43 0 -60.5 -12.5t-21.5 -38.5z" />
<glyph unicode="M" horiz-adv-x="1581" d="M41 121q0 -29 13.5 -58.5t23.5 -29.5q53 0 95 39t74 99t53.5 134t34.5 144.5t19 129t6 89.5q0 57 6.5 71.5t18.5 14.5q35 -57 83 -114.5t91 -110t74 -98.5t31 -81q0 -23 -9.5 -46t-9.5 -56q0 -20 14.5 -44t36 -45.5t45 -35.5t41.5 -14q23 0 36 17t28 17q10 0 25.5 -7 t32 -14t30.5 -14.5t20 -7.5q23 0 46.5 35t23.5 82q16 59 32.5 97t16.5 83q0 20 -2 38t-6 18t-4 -2h-4q-8 -33 -21.5 -61t-26 -48t-23.5 -31.5t-15 -11.5q-14 0 -21.5 17.5t-7.5 23.5q33 100 66.5 177t66.5 140.5t61.5 120t50 115.5t34 128t13.5 159q0 47 -16 76.5t-53 29.5 q-16 0 -38.5 -36t-51 -95t-63.5 -134t-74 -151.5t-82 -149.5t-90 -126q-47 31 -107.5 107.5t-124 172t-125 199t-110.5 189.5t-82 141t-37 55q-23 0 -47 -16.5t-43.5 -37t-33 -39.5t-13.5 -26q0 -41 25.5 -95t56.5 -107.5t56.5 -97.5t25.5 -62q0 -27 -12.5 -85t-31 -136 t-40 -166t-39.5 -174t-30.5 -164t-12.5 -131zM1253 883q0 -90 1 -144.5t1 -87.5v-49v-37q0 -33 1 -90t3.5 -121.5t5.5 -127t7 -103.5q41 -27 80 -49.5t71.5 -38t54 -23.5t27.5 -8q14 0 24.5 10.5t10.5 38.5q0 104 -4 229.5t-11 254.5t-15.5 252.5t-15.5 228t-12 180.5 t-7 107q-23 25 -51.5 47t-59.5 39.5t-59.5 28t-51.5 10.5v-324v-223z" />
<glyph unicode="N" horiz-adv-x="1431" d="M41 1313q0 -23 25.5 -71t55.5 -104.5t55.5 -112.5t25.5 -99q0 -12 2 -36t3 -48.5t3 -47t2 -34.5q0 -10 -2 -60.5t-4 -120t-5 -148.5t-5 -148.5t-4.5 -117.5t-2.5 -56q35 -53 97.5 -81t122.5 -28q27 0 41 7t14 34q0 76 -9.5 125t-29.5 90v223q0 29 1 55.5t3 51.5 q53 -47 118.5 -109.5t137.5 -128t146.5 -128t146.5 -112t135.5 -80t112.5 -30.5q53 0 86 26.5t50 70.5t22.5 100.5t5.5 115.5q0 55 -3.5 97.5t-7.5 74.5l-12 4q-12 -25 -12 -67q0 -18 1 -43t1 -29t-2 -14t-5 -20.5t-7.5 -18.5t-10.5 -8h-20q-4 0 -4 4q0 35 -2 54.5t-2 31.5 q0 41 3 98t7 112.5t7 101.5t3 65q6 84 9 149.5t3 130.5q0 164 -28 295q-92 117 -219 117q-12 0 -23.5 -2t-15.5 -2q0 -12 2 -64.5t4 -111t4 -105.5t2 -45q14 -193 22.5 -357.5t8.5 -305.5v-80q0 -8 -4.5 -16.5t-14.5 -8.5q-57 16 -118.5 62.5t-123 110t-121 136t-112.5 142 t-97 127t-77 90.5q-10 45 -10 127q0 27 -2 65.5t-12.5 73.5t-30 60.5t-54.5 25.5t-63.5 -21.5t-50.5 -21.5q-12 4 -23.5 25.5t-24 45t-23.5 43t-23 19.5q-20 0 -34 -16.5t-21 -39t-10 -47t-3 -42.5z" />
<glyph unicode="O" horiz-adv-x="1372" d="M41 680q0 -152 52 -276.5t137 -215t193.5 -139.5t219.5 -49q123 0 197.5 36t117.5 81t59.5 85t20.5 46q94 0 152.5 41t89.5 105.5t41 144t10 157.5q0 129 -40 264.5t-113.5 246t-180 181t-239.5 70.5q-33 0 -58.5 -10t-50 -22.5t-53.5 -24.5t-68 -17q-6 -4 -21 -7 t-32.5 -7t-34 -7t-24.5 -7q-88 -47 -158 -122t-118 -167t-73.5 -192.5t-25.5 -194.5zM305 508q6 563 389 741q74 0 131.5 -40t99.5 -102.5t69.5 -138t44 -146t23.5 -128t7 -84.5q0 -8 -1 -50t-5 -90t-12.5 -86t-20.5 -38q-6 0 -13 12.5t-14.5 27.5t-12.5 31.5t-7 24.5v7 q-6 6 -9 17t-5 23.5t-4 22.5t-2 12q-2 4 -9.5 12.5t-14.5 16.5t-13 14t-6 8q-4 -16 -5 -14q0 -41 14.5 -88t14.5 -72q0 -35 -30.5 -59.5t-72.5 -39.5t-87 -21.5t-72 -6.5q-86 0 -152.5 30t-113.5 70t-75 78t-36 56z" />
<glyph unicode="P" horiz-adv-x="1261" d="M41 1257q0 -61 13.5 -117.5t35 -105.5t47 -91t51.5 -77l13 -2q-4 41 -13 66q-16 61 -35.5 119.5t-19.5 103.5q0 43 15.5 68.5t38 39t49 17.5t51.5 4q18 0 45.5 -6t36.5 -14q-78 -90 -78 -254q0 -45 1 -72t1 -43q0 -14 1 -20.5t1 -12.5q0 -39 -2 -62.5t-4 -39t-4 -24.5 t-2 -15q0 -20 8 -38.5t8 -29.5q0 -18 -10 -23t-19 -5q-8 0 -21 14t-28.5 30.5t-31 31t-27.5 14.5q-14 0 -22.5 -15.5t-13.5 -39t-6 -49.5t-1 -44q0 -88 37 -132t69 -44q29 -10 49.5 -23.5t20.5 -50.5v-108q0 -41 2 -66.5t4 -40t6 -30.5q94 -70 203 -70q29 0 50.5 4t21.5 25 q0 39 -10.5 81t-23.5 78.5t-23.5 65.5t-10.5 45q0 29 11.5 42t49.5 17q133 14 251 54.5t205 109t138.5 165.5t51.5 226q0 141 -71 244t-179.5 169.5t-236.5 99t-245 32.5q-115 0 -198.5 -22.5t-139 -54t-83 -65.5t-27.5 -59zM514 643q10 61 12 193q0 14 3 72.5t8.5 127 t8.5 129t3 80.5q80 -6 162 -43t149.5 -95t109.5 -133t42 -159q-96 -102 -200.5 -147t-254.5 -45z" />
<glyph unicode="Q" horiz-adv-x="1347" d="M47 487q0 -213 189 -292q43 -4 43 -37q-2 -25 -3.5 -38.5t-1.5 -21.5q0 -29 25 -37q8 33 26.5 55.5t57.5 22.5q70 0 154 -21.5t170 -48t165.5 -48t139.5 -21.5q111 0 188.5 67.5t106.5 178.5l-13 2q-29 -47 -100 -47q-70 0 -113 6t-67.5 15t-33.5 16.5t-9 11.5 q0 12 19.5 27.5t29.5 25.5q123 98 180 226t57 282q0 86 -26.5 168t-68.5 153.5t-93 132t-99 103.5t-87 66.5t-56 23.5q-35 0 -86 -14t-107 -33.5t-110.5 -39t-93.5 -32.5v-20q53 14 114.5 23.5t98.5 9.5q109 0 171.5 -51.5t94 -127t39.5 -163.5t8 -162q0 -147 -33.5 -266 t-103.5 -220q-20 -10 -60 -17t-102 -7q-55 0 -117.5 14.5t-115.5 36.5q-14 0 -31.5 -8t-36 -19.5t-35 -19.5t-26.5 -8q-18 0 -30.5 20.5t-19.5 48t-11.5 57t-4.5 50.5q10 106 47 212.5t98.5 199t144.5 165t186 113.5q-39 20 -66 32.5t-45.5 18.5t-31.5 8.5t-25 2.5 q-98 0 -172 -35t-128.5 -94.5t-91 -138.5t-58 -165t-31 -174t-9.5 -168z" />
<glyph unicode="R" horiz-adv-x="1343" d="M41 1257q0 -66 35 -129t76 -114v10q0 10 -6.5 34.5t-6.5 39.5q0 37 36 61.5t88 39.5t113.5 22.5t110.5 7.5q63 0 145.5 -11.5t156 -32t124 -49t50.5 -63.5q0 -51 -36 -115.5t-92.5 -122t-129 -96.5t-146.5 -39q-43 0 -43 41q0 45 5 93.5t11.5 96.5t11.5 91t5 76 q0 41 -15.5 60.5t-29.5 19.5q-20 0 -45 -7.5t-39 -7.5q-41 0 -66.5 -16.5t-42 -44t-22.5 -63t-6 -74.5q0 -59 -4.5 -95t-20.5 -36q-4 0 -14.5 5t-16.5 5q-37 0 -59.5 -30t-22.5 -69q0 -20 17.5 -37.5t40 -31.5t43 -27.5t28.5 -25.5q0 -10 -2 -47t-4 -87.5t-5 -106.5 t-5 -106.5t-4 -88t-2 -50.5q0 -29 5 -48t22 -19q20 0 38.5 7t51.5 13q47 27 80.5 85t33.5 124q-4 29 -10 47.5t-6 30.5q0 20 10 36.5t25 30.5q98 -72 203.5 -150.5t199.5 -144t166 -107.5t100 -42q39 0 64 50t39 111.5t20 112t9 50.5l-9 4q-16 -16 -32.5 -43t-32.5 -27 q-10 0 -56.5 26.5t-110 66.5t-136 88t-137 91t-110.5 74t-56 35v25q76 0 175 13t188 47t151.5 93.5t62.5 151.5q0 119 -50 200.5t-127 136t-168 85t-175 46t-148.5 18.5t-85.5 3q-74 0 -146.5 -11t-129.5 -36t-93 -63t-36 -91z" />
<glyph unicode="S" horiz-adv-x="1253" d="M41 340q0 -98 36 -163.5t94 -104.5t133 -55.5t151 -16.5q72 0 155.5 11.5t168.5 35t163 60t138.5 89t96 121t35.5 154.5q-10 25 -17 37t-7 33q0 27 3 37t3 14q-16 104 -84 163.5t-186 88.5q-88 20 -198 37.5t-214 35t-191.5 38t-132.5 44.5v-90q6 -29 30 -55.5t55.5 -51 t69.5 -46t73 -37.5q66 -20 146.5 -35.5t160.5 -29t150.5 -25t117.5 -23.5q29 -2 53.5 -12t24.5 -51q-66 -68 -149.5 -120t-176 -89t-188.5 -56.5t-190 -19.5q-80 0 -112 9t-32 32q0 92 49 146.5t140 99.5l-13 12q-129 0 -200.5 -16.5t-106.5 -45t-42 -68.5t-7 -87zM201 1073 q33 -31 73 -43q55 55 117 93t134.5 59.5t161.5 31t204 9.5q35 0 61.5 -13.5t46 -32t29.5 -37t10 -26.5q-4 -29 -7 -52.5t-3 -31.5h23q63 57 99 117.5t36 138.5q0 49 -30 82t-72 52.5t-88 28.5t-83 9q-240 0 -395.5 -46t-259.5 -134q-16 -12 -26.5 -36.5t-17.5 -54.5 t-10 -59.5t-3 -54.5z" />
<glyph unicode="T" horiz-adv-x="1173" d="M41 1298q0 -47 15.5 -75.5t42 -45t61.5 -21.5t76 -5q27 0 67.5 2t82.5 4t76 4t46 2t16 -12t4 -16q-20 -137 -26 -254t-10 -226q-37 90 -59.5 141.5t-35.5 104.5q-14 16 -18 36.5t-8 40t-13.5 37t-31.5 27.5l-4 -18q57 -164 92 -336t65 -383q0 -20 -9 -44.5t-21.5 -47.5 t-21.5 -41t-9 -25q0 -37 29.5 -64.5t71.5 -46t86 -27.5t73 -9q14 0 31.5 1t33 6t25.5 15.5t10 30.5q0 6 -8 22.5t-18.5 37t-18.5 40t-8 29.5q0 16 -1 85t-2 164t-2 204.5t-2 208t-2 172.5t-1 98q0 41 39 41q43 0 97 5t105.5 17.5t91 32t56.5 47.5q12 23 20.5 67t8.5 65 q-2 12 -3.5 27.5t-5.5 21.5q-41 -6 -117.5 -11.5t-170 -9.5t-194.5 -6t-191.5 -4t-160 -3t-102.5 -1q-20 0 -32.5 8t-22.5 19.5t-19.5 19.5t-21.5 8q-16 0 -26.5 -21.5t-15.5 -49t-7 -54.5t-2 -35z" />
<glyph unicode="U" horiz-adv-x="1198" d="M41 1434q0 -16 6 -21.5t12 -15.5q8 -92 10.5 -180.5t2.5 -180.5q0 -131 -5.5 -232.5t-5.5 -187.5q0 -106 16.5 -203.5t59.5 -172t117 -119.5t186 -45q66 0 133.5 4t126 18.5t100.5 43t58 79.5q27 -6 31 -23.5t4 -39.5q0 -31 17.5 -57.5t42 -48t50 -34t44.5 -12.5 q23 0 22 19q0 90 -3 196.5t-8 211t-8 196.5t-3 153q0 82 17 152t37.5 125t38 97t17.5 69q0 45 -31.5 85t-72.5 68.5t-78 46t-47 17.5q-39 0 -51 -31q-4 -61 -6.5 -151.5t-4.5 -192.5t-3 -207.5t-3 -198t-2 -161.5v-99q-44 -69 -157 -69h-3q-35 0 -58.5 -4t-45 -10.5 t-43 -10.5t-47.5 -4q-37 0 -62.5 5t-44 12.5t-33 17.5t-30.5 20q-10 51 -17.5 124t-12.5 155t-8 168t-5 162.5t-3 138t-1 96.5q0 27 -12.5 61.5t-30.5 71.5q-10 18 -28.5 48t-35.5 57v-10q-23 0 -56.5 12t-43.5 12q-14 0 -26.5 -3t-12.5 -17z" />
<glyph unicode="V" horiz-adv-x="1312" d="M41 1411q0 -43 15.5 -123t43 -183.5t66.5 -223t86 -240.5t102.5 -237.5t114.5 -213.5q0 -14 -9 -29.5t-20.5 -30.5t-20.5 -29.5t-9 -26.5q0 -23 41 -41q16 10 29.5 13t25.5 3q20 0 43.5 -8t45 -17.5t40 -16.5t31.5 -7q35 0 66.5 23.5t56 55.5t39 62.5t14.5 46.5t-2 17 q-43 0 -58.5 -26.5t-31.5 -51.5q-12 0 -21 8l-8 4q25 47 59.5 101.5t71.5 110t71.5 106.5t59.5 92q51 86 102.5 177t92.5 185.5t67.5 187.5t26.5 183q0 59 -6 98t-29 39v-2q-53 0 -90 19.5t-62 19.5q-23 0 -37 -27.5t-16 -72.5q-98 -229 -164.5 -384t-113.5 -260.5t-79 -176 t-61 -129.5l-24 -13q-25 55 -51.5 133t-51 157t-45 149.5t-32.5 113.5q0 51 -21 101q-23 55 -24 75q-16 53 -28.5 91t-21.5 65q-129 111 -227 127v14q-2 4 -4 11.5t-10 7.5q-14 0 -23.5 -9.5t-9.5 -17.5z" />
<glyph unicode="W" horiz-adv-x="1871" d="M41 1405q0 -53 27.5 -138t71.5 -190.5t99.5 -223.5t111 -233.5t104.5 -224t82 -194.5q39 -57 76.5 -94t66.5 -37q35 0 48 9t13 23q0 10 -9 35t-9 31q0 8 6 12t12 4q18 -6 23.5 -7t9.5 -1q33 8 61.5 37t45.5 78q31 63 53 105t39.5 67.5t30 39t24.5 19.5q29 -20 49.5 -66 t38 -104.5t34.5 -120t40.5 -113.5t56.5 -85t80 -33q41 0 68 33q31 37 43 45q70 53 126 150.5t100 213t74.5 241.5t50 237.5t29 199.5t9.5 129q0 39 -7.5 76t-23.5 65.5t-43 46t-63 17.5q-27 0 -34 -1t-9 -3q-23 -57 -53.5 -161.5t-65.5 -227.5t-71 -250t-67.5 -231.5 t-58 -170t-41.5 -65.5q-33 53 -57.5 123t-24.5 133q-25 59 -40 99t-23 67t-11.5 42t-3.5 28q59 143 91 235t32 121q-6 27 -15 58.5t-23.5 57t-36 43t-52.5 17.5q-31 -18 -44 -40.5t-21 -44t-18.5 -39t-32.5 -25.5q-29 98 -49.5 144t-47.5 46q-31 0 -43 -3t-18 -9 q-2 -66 -14.5 -160t-38.5 -221q-25 -117 -36 -191.5t-22.5 -135t-27 -119t-49.5 -144.5q-18 2 -23.5 7t-5.5 16q-31 117 -68 235.5t-76.5 230t-78.5 211t-72 179.5q-43 61 -97.5 95t-127.5 34q-41 0 -57.5 -7.5t-16.5 -21.5zM791 811q0 37 17 81t17 91q2 4 4 15.5t5.5 23.5 t7.5 22.5t10 10.5q10 0 20 -31q2 -6 4.5 -14.5t8.5 -10.5l-74 -206l-16 -2v14q-4 4 -4 6z" />
<glyph unicode="X" horiz-adv-x="1429" d="M41 268q10 -14 13 -28.5t3 -34.5q0 -33 12.5 -66t22.5 -39q27 -16 56.5 -35.5t68.5 -19.5q55 0 114.5 43t115 103.5t105.5 125t91 109.5l33 -2q45 -43 99 -114.5t116.5 -140.5t133.5 -119t151 -50q35 0 53 7t28 22q8 78 14.5 124t9.5 72.5t4 37.5t1 20q0 20 -6 33.5 t-23 13.5q-10 0 -15 -13.5t-9 -29t-10 -28.5t-17 -13q-27 0 -64.5 24.5t-78.5 62.5t-81 84t-71.5 88t-51 73.5t-19.5 44.5q0 33 30.5 81t76.5 100t102.5 105.5t106.5 97.5t89 76.5l51 42.5l19 -51v-28q14 0 23.5 22.5t14.5 51t7 55t2 32.5q4 47 15.5 89t11.5 92q0 23 -24 46 t-46 23q-104 -14 -189.5 -75.5t-161 -143.5t-147 -169t-151.5 -152l-23 -5q-43 47 -82 120t-79 144.5t-85 129t-102 73.5q-31 0 -61.5 -17t-57 -44t-49 -60.5t-35.5 -66.5q8 -4 19 -4q6 0 15 7t18.5 15.5t17.5 15.5t12 7q25 0 56.5 -39t63.5 -97.5t61.5 -127t52 -129 t37 -103.5t14.5 -49v-8q-82 -109 -199 -212t-223 -200z" />
<glyph unicode="Y" horiz-adv-x="1484" d="M43 1274q14 0 22.5 2t14.5 2q45 0 86 -56.5t81 -140.5t76.5 -183t74.5 -183t76 -140.5t77 -56.5q16 0 27.5 4t42.5 4q47 0 47 -12q0 -23 -22.5 -72t-49.5 -98t-48.5 -85t-17.5 -30q-27 -20 -57 -20q-57 0 -88 16.5t-49.5 35t-29.5 34.5t-25 16h-5q-14 -61 -32.5 -110 t-18.5 -88q0 -37 33 -58.5t81 -34t100.5 -16.5t90.5 -4q172 0 381 18q14 6 54.5 36t80 66t71.5 72.5t32 59.5v29q-12 -14 -59.5 -23.5t-103.5 -15.5t-108.5 -9.5t-76.5 -3.5h-4q-20 0 -21 25q195 213 352 604q311 219 316 541q0 14 -13.5 25.5t-33 18.5t-44 11t-44.5 4 q-41 0 -81 -18.5t-74 -45t-60.5 -58t-42.5 -58.5q-16 -29 -50 -99.5t-71 -150.5t-70 -152.5t-47 -107.5q-20 -47 -35.5 -80t-46.5 -33q-80 45 -128 121t-81 164t-58.5 178t-58 163t-82 119t-128.5 46q-57 0 -70 -29q-13 -27 -29 -37q-6 -10 -15 -27.5t-18.5 -35t-15.5 -30.5 q-5 -10 -5 -12q0 -1 1 -1zM1186 975q2 4 13 16.5t23.5 29.5t22.5 35.5t10 37.5v4q43 94 91 141v-2q0 -121 -129 -250l-23 -20z" />
<glyph unicode="Z" horiz-adv-x="1683" d="M41 147q0 -18 4 -43.5t12.5 -49t22.5 -39t37 -15.5q8 0 28.5 7t44 16.5t44 17.5t26.5 8q119 0 283 -5t329.5 -11t308 -10.5t218.5 -4.5q29 0 64.5 9.5t66.5 26t52.5 36t21.5 41.5q0 59 -16.5 105.5t-45.5 86t-69.5 78.5t-92.5 84q0 6 16.5 11.5t37 8.5t40 5t27.5 2 q29 0 54.5 23.5t44 58.5t29.5 75t11 70q0 20 -14 21q-20 0 -67.5 -5t-104.5 -9.5t-116.5 -8.5t-106.5 -4q-90 0 -172 17q45 51 117.5 108t151.5 113.5t156 112t130 104.5v39q-18 49 -34.5 82.5t-34 59.5t-38 46t-47.5 43q-49 -2 -123.5 -7t-163 -12t-182.5 -15.5t-182 -15.5 t-163 -11t-124 -3q-147 0 -242.5 20t-140.5 20h-16q16 -70 32.5 -133.5t47.5 -81.5q88 -16 229 -25.5t296 -16t301.5 -11.5t246.5 -9v-24q-104 -100 -203.5 -188.5t-193.5 -164.5q-104 51 -187.5 75t-169.5 24q-18 0 -43.5 -6.5t-47 -19.5t-37 -32.5t-15.5 -44.5 q0 -12 10 -39.5t28.5 -56.5t42 -50.5t50.5 -21.5l80 -55q-150 -115 -233 -176.5t-122.5 -90t-49 -33.5t-11.5 -5q-66 0 -99.5 -30t-33.5 -71zM453 291q20 23 62 56.5t88 67.5t89 64.5t68 48.5q37 -10 96 -14q57 -4 120.5 -6t123 -4t107.5 -5t73 -7q123 -18 197 -146v-10 q0 -29 -47 -33q-14 -2 -88 -3t-176.5 -2t-221.5 -2t-222.5 -2t-178 -2t-90.5 -1zM514 819l12 25q86 0 150.5 -16.5t136.5 -57.5v-2q0 -2 -9 -3t-20.5 -2t-23.5 -1h-15q-68 0 -130 12t-101 45z" />
<glyph unicode="\" horiz-adv-x="768" d="M45 1229q47 -119 111.5 -270.5t144.5 -331.5q41 -96 56.5 -138.5t15.5 -54.5l-15 -12q2 -6 14.5 -24.5t26 -38t24.5 -36t13 -18.5q29 -43 45.5 -74.5t28.5 -59.5t24.5 -54.5t30.5 -61.5q10 -16 31 -16q20 0 44 21.5t43 51t31.5 63.5t12.5 58q-80 82 -152 242 q-55 119 -111 246t-109.5 249t-99.5 233.5t-79 199.5q-4 10 -15 15t-24 5q-10 0 -26 -4q-12 -31 -23.5 -50t-21 -37.5t-14.5 -42t-7 -60.5z" />
<glyph unicode="^" horiz-adv-x="878" d="M41 893q16 -18 33.5 -21.5t44.5 -3.5q94 20 141 68.5t88 122.5q23 41 37 59.5t14 26.5q8 41 35 41t57.5 -30t58.5 -68.5t46 -73.5t22 -43q27 -43 57 -71t77 -28q23 4 35 10.5t19 15.5t14 19.5t18 22.5h-31q-16 0 -32.5 19.5t-32 45t-26.5 48t-18 28.5q-18 29 -38.5 57.5 t-40 52t-38 38t-34.5 14.5q-10 0 -13.5 -3t-11.5 -3q-2 0 -14 4q-4 41 -27.5 61.5t-54.5 20.5q-37 0 -66.5 -21.5t-55 -54.5t-46 -70.5t-39.5 -68.5q-178 -90 -178 -215zM96 956q0 2 5 18.5t14.5 35t25 34t35.5 15.5l4 4l4 -4q-4 -4 -20.5 -19.5t-16.5 -25.5v-4 q-12 -18 -25.5 -31t-25.5 -23z" />
<glyph unicode="_" horiz-adv-x="448" d="M41 -47q0 -4 41 -4q121 0 183.5 1t70.5 9q39 16 55.5 30.5t16.5 30.5q0 8 -3.5 18.5t-5.5 10.5h-247v-2q-16 0 -40 -8t-24 -21v-4q-6 -8 -10 -11t-6 -6t-4 -7t-5 -13q-4 -20 -13 -21t-9 -3z" />
<glyph unicode="a" horiz-adv-x="1110" d="M41 279q0 -84 20.5 -132.5t51 -72t68.5 -28.5t75 -5q254 0 481 317q8 8 15.5 11.5t23.5 3.5q12 0 15 -25q-2 -12 -5.5 -42t-5.5 -64.5t-4 -67.5t-2 -51q0 -45 4 -83t16.5 -65.5t35 -43t59.5 -15.5q49 0 84 47t56.5 107.5t30.5 115t9 70.5q-12 -6 -20 -6q-10 0 -21.5 7 t-19.5 15q0 88 -7.5 160t-7.5 100q0 117 -10 163t-51 46q-23 0 -45.5 12.5t-45 29t-44.5 32t-47 21.5q-20 4 -40 6t-38 2q-68 0 -141.5 -25.5t-143.5 -68.5t-133.5 -99.5t-110.5 -120t-74.5 -128t-27.5 -123.5zM279 279q0 66 55 141.5t133 141t160 109.5t137 44h59v-2 q0 -66 -19.5 -138.5t-86.5 -140.5q-31 -27 -83 -60.5t-108.5 -63t-111 -50t-88.5 -20.5q-47 0 -47 39z" />
<glyph unicode="b" horiz-adv-x="919" d="M41 668q0 -78 8 -171.5t27 -164.5l-31 -271q8 -20 19.5 -35.5t23.5 -15.5q20 0 37.5 12.5t34 25.5t32 25.5t29.5 12.5q14 -6 29.5 -23.5t34 -36t42 -32.5t56.5 -14q76 0 163 29.5t160.5 83.5t123 128t49.5 164q0 76 -30 147.5t-82 129t-120.5 92t-146.5 34.5 q-37 0 -63.5 -14t-49 -38.5t-45.5 -58.5t-49 -75l-29 -2q-12 74 -12 193q0 45 2 99t5 110.5t6 109.5t7 98l4 52q0 10 -15 16t-15 8v4h-4q-49 0 -80 -31.5t-50.5 -77.5t-30.5 -96.5t-18 -89.5q-16 -94 -19 -169.5t-3 -157.5zM260 428q0 31 19.5 70t45 71.5t51 55t38.5 22.5 q80 0 125 -34.5t65.5 -80t24.5 -87.5t4 -56q0 -63 -32 -100t-78 -55.5t-99 -23.5t-98 -5q-4 27 -6.5 35t-2.5 12q0 70 58 133l-17 12l-82 -67q-2 16 -9 48t-7 50z" />
<glyph unicode="c" horiz-adv-x="913" d="M41 365q0 -72 19.5 -138.5t59.5 -118t98 -82t136 -30.5q80 0 153 11t135.5 38t113.5 72t88 112q6 31 17 66t11 55q0 35 -16 35q-43 -59 -113.5 -99t-146.5 -64.5t-147.5 -35t-116.5 -10.5q-23 0 -52.5 8.5t-56 23.5t-45 36.5t-18.5 50.5q0 53 25.5 117.5t77.5 121 t132 94.5t189 38q43 0 71.5 -28t53 -59.5t52 -59t68.5 -27.5q35 0 35 45q0 51 -25.5 110.5t-61.5 109.5t-74.5 82.5t-67.5 32.5l-82 -41q-109 0 -203 -32.5t-162.5 -94t-107.5 -147.5t-39 -192z" />
<glyph unicode="d" horiz-adv-x="946" d="M41 260q0 -49 9 -95t30.5 -80t57.5 -54.5t87 -20.5q57 0 113.5 41t108 102.5t96.5 132t84 130.5l16 -2q2 0 5 -15.5t4 -38t2 -48t1 -44.5q0 -55 8.5 -107t30 -94t57 -67t91.5 -25q27 0 45 10.5t18 26.5q0 8 -7 16.5t-17 12.5q-16 55 -27.5 148.5t-19 202t-11.5 220 t-4 203.5q0 31 12.5 77t26.5 94t26.5 91t12.5 68q0 37 -11.5 55.5t-25.5 28.5q-51 27 -73.5 40t-45.5 21v-4q-35 -92 -57 -225q-10 -70 -17.5 -130.5t-11.5 -115.5q-8 -8 -8 -18q4 -41 8 -59.5t4 -24.5q0 -37 -20 -37t-42 15.5t-42 34.5t-39.5 34.5t-36.5 15.5 q-86 0 -164.5 -48t-140 -123t-97.5 -167t-36 -178zM246 276q0 25 32.5 78.5t83 108.5t112 97t118.5 42q27 0 43 -7t20 -30v-4q-8 -27 -53 -78t-105.5 -102t-122 -89t-104.5 -38q-20 0 -24 22z" />
<glyph unicode="e" d="M41 371q0 -109 40 -180.5t106.5 -114.5t155.5 -60.5t187 -17.5q86 0 152 18.5t118 56.5t96 99t87 147l-12 11q-111 -45 -239 -79t-253 -34q-117 0 -178 21.5t-61 91.5l4 55q2 23 18.5 31t38.5 8q31 0 68 -7t71 -7q76 0 110 2t64 6q4 0 9.5 -4t11.5 -4t26.5 6t43 13 t43 13.5t28.5 6.5q18 0 31.5 -7.5t26.5 -27.5q20 0 36.5 11t25.5 28.5t14 36t5 34.5q0 68 -32.5 131.5t-85 110.5t-119 75.5t-131.5 28.5h-2q-53 0 -88 -27.5t-49 -62.5q-184 -68 -275.5 -159t-91.5 -250zM309 610q0 10 3 15.5t10 17.5q23 47 51 68.5t63 21.5 q76 0 148.5 -28.5t105.5 -83.5q0 -47 -37 -48l-331 13q-12 12 -13 24z" />
<glyph unicode="f" horiz-adv-x="634" d="M41 688q0 -37 13.5 -51t39.5 -14q43 0 64.5 -3.5t29.5 -17.5q0 -31 1 -54.5t4 -37.5q0 -168 6 -268.5t14 -175.5q20 -29 55 -53.5t68 -24.5q35 0 53 41q-4 53 -9 139t-8 172t-5 156.5t-2 93.5q0 10 8 18t20.5 14.5t24.5 9.5t20 3q59 0 75.5 -17.5t16.5 -56.5 q-6 -49 -13 -79.5t-7 -47.5q0 -10 -6 -25.5t-14.5 -34t-14.5 -37t-6 -32.5q0 -29 5 -41t9 -12q6 0 14.5 25.5t12.5 33.5q43 86 43 138q0 25 6 52t14.5 57t14.5 56.5t6 49.5q0 53 -33 86q-12 12 -39.5 18t-58.5 11t-58.5 10.5t-39.5 13.5v162q0 59 8 106t37 47q12 0 27.5 -5 t30.5 -14t25.5 -20.5t10.5 -23.5q0 -10 -5 -28.5t-5 -22.5q0 -12 2 -13q16 0 22 13q57 119 64 184q-53 53 -133 81.5t-166 28.5h-4q-6 -4 -21.5 -19t-31 -33.5t-28 -37t-12.5 -26.5q0 -6 7 -6q10 0 13 4t19 4q39 -4 52.5 -14.5t13.5 -14.5v-8q-94 -82 -94 -238 q0 -12 2 -34.5t6 -55.5q0 -35 -21.5 -43t-48.5 -10q-59 -4 -76.5 -22.5t-17.5 -55.5z" />
<glyph unicode="g" horiz-adv-x="1216" d="M35 -92q0 -82 47 -137.5t118.5 -88t155.5 -46t156 -13.5q33 0 88 5t116.5 16.5t124 31t114 49t83 70.5t31.5 94q0 20 -20.5 28.5t-28.5 21.5q20 16 34.5 66t25 116.5t17.5 143.5t10 145.5t4 124t1 79.5q0 29 27 29q10 0 16 -13.5t6 -21.5q0 -10 1 -17t3 -7t3 9t3.5 21.5 t3.5 23.5t1 13q0 51 -18.5 104.5t-50.5 96.5t-72 70.5t-83 27.5h-2q-16 0 -27.5 -19.5t-11.5 -41.5q0 -10 1 -15.5t1 -7.5q0 -37 -6 -53t-18 -22q-27 0 -49.5 5t-44 11t-45 11t-50.5 5q-57 0 -126.5 -7t-140.5 -24.5t-137.5 -46t-117.5 -72.5t-83 -103.5t-32 -137.5 t50.5 -150.5t127 -129t165 -90t165.5 -33.5q47 0 89 12t77 26.5t61.5 26.5t43.5 12q25 0 24 -36q-10 -111 -74.5 -154t-164.5 -43q-86 0 -174 4t-164 21.5t-134.5 52.5t-88.5 94q-16 -39 -23.5 -72.5t-7.5 -64.5zM236 358q27 117 92 186.5t149 105.5t179.5 47.5t183.5 11.5 q31 0 42 -8.5t11 -22.5v-2q-4 -20 -6 -54t-2 -69q2 -47 3 -63l1 -15v-47q0 -55 -34 -88t-83 -50.5t-107.5 -23.5t-107.5 -6q-59 0 -117.5 7t-103.5 19.5t-72.5 31t-27.5 40.5z" />
<glyph unicode="h" horiz-adv-x="817" d="M41 106q0 -29 17.5 -49t42 -34.5t51 -21.5t45.5 -7q25 0 37 10t18 27.5t7 38t1 41.5q0 25 -2 70.5t-4 93t-4 85t-2 46.5q104 172 235 172q27 0 44.5 -14.5t17.5 -47.5v-295q0 -57 10 -101t35.5 -75t71 -47t114.5 -16q0 72 -3 160.5t-7 169.5t-8 139.5t-4 70.5 q-4 51 -9.5 94t-20.5 72t-43 45.5t-77 16.5q-80 0 -130 -19.5t-86 -53.5t-65.5 -81t-68.5 -102q-4 0 -6 2q-12 82 -12 163q0 57 12 122t27.5 128.5t27.5 123t12 106.5q0 31 -30.5 58.5t-68.5 49t-74 34.5t-46 13t-29.5 -10t-19.5 -22q-2 -57 -3 -94.5t-2 -63t-1 -41.5v-31 q0 -55 2 -125.5t4 -143.5t5 -139.5t5 -115.5q0 -23 4.5 -62.5t8.5 -79.5t7 -69l3 -29q0 -6 -6 -28.5t-13.5 -48t-13.5 -50t-6 -35.5z" />
<glyph unicode="i" horiz-adv-x="411" d="M43 426q0 -16 1 -56t5 -90.5t10.5 -103.5t15.5 -98t23.5 -74t32.5 -29q39 0 77 33t68.5 77t52 88t27.5 69q-6 0 -15 -5.5t-26 -7.5q-14 0 -22 4q-10 92 -16.5 203t-6.5 246v125q-23 20 -57 20q-53 -10 -85 -29.5t-54 -47.5q-31 -148 -31 -324zM43 1012q0 -27 38 -60.5 t99 -33.5q29 0 51.5 28.5t22.5 57.5q0 25 18.5 49t40 47.5t40 45t18.5 38.5q0 14 -11.5 28.5t-27 26.5t-33 19.5t-29.5 7.5q-29 0 -68.5 -20.5t-74.5 -55.5t-59.5 -81t-24.5 -97z" />
<glyph unicode="j" horiz-adv-x="569" d="M41 41q0 -41 18.5 -84t48 -77t64.5 -55.5t68 -21.5q74 0 128 57.5t90 156t53 228.5t17 275q0 59 -9 120.5t-33.5 112t-66.5 82t-108 31.5h-12q10 -37 17.5 -106.5t7.5 -141.5q0 -78 -2.5 -182t-10.5 -204.5t-21.5 -179.5t-37.5 -101q-49 57 -82 128t-33 132q0 41 18.5 81 t18.5 85q0 16 -8 24q-125 -205 -125 -360zM248 1145q0 -29 11 -55.5t29.5 -49t44 -36t56.5 -13.5q49 0 71.5 29t22.5 45q0 37 -4 71.5t-16 62.5t-34.5 45.5t-59.5 17.5q-27 -4 -47.5 -9.5t-47.5 -15.5v-2q-10 -16 -18 -40t-8 -50z" />
<glyph unicode="k" horiz-adv-x="962" d="M41 356q0 -16 9 -28.5t20.5 -25.5t20.5 -29.5t9 -39.5q0 -27 -1 -43t-2 -27t-1 -20v-16v-12q4 -12 4 -13q-4 -35 -5 -48t-3 -21q0 -8 3 -20.5t9 -12.5q27 0 51.5 14.5t44 36t32 46t12.5 42.5q10 49 26.5 81t40.5 32q160 -106 278 -160.5t187 -54.5q29 0 51.5 25.5 t40 56.5t28.5 58.5t15 31.5q-4 16 -10 16q-23 0 -39 -16q-92 14 -191.5 47t-181.5 88v23q88 35 163 88t130.5 112.5t91 117.5t48.5 101q-10 16 -26.5 34t-38 33t-45.5 24.5t-48 9.5q-35 0 -82 -24.5t-91 -58.5t-76 -70t-34 -58l2 -4q4 0 16.5 7t25 16.5t22.5 16.5t14 7 q8 0 8 -6q0 -10 -14 -27.5t-20 -26.5q-18 -23 -44 -49t-55.5 -48.5t-60.5 -37t-60 -14.5q-10 2 -16 2t-12 6v606q0 33 -11.5 64t-35 56.5t-58.5 43t-82 23.5q-47 0 -53 -29q18 -86 30.5 -167t14.5 -167q2 -76 5 -163t3 -185v-151q-4 -10 -13 -21.5t-19.5 -24t-18.5 -24.5 t-8 -23z" />
<glyph unicode="l" horiz-adv-x="430" d="M37 803q0 -72 2 -158t5 -174t9 -171t16.5 -147.5t23.5 -103.5t30 -39q31 0 69.5 -13t57.5 -13q31 0 48 16t28.5 41t17.5 52.5t12 49.5q0 39 12.5 74t20.5 55l-14 -8l-5 5t-5 3q-12 0 -30 -21.5t-36 -21.5q-12 0 -18.5 4.5t-10.5 12.5q0 80 -1 158.5t-3 145t-3 115 t-1 64.5q0 39 3 93.5t8.5 111.5t8.5 112.5t3 98.5q0 66 -11.5 107.5t-40.5 41.5h-2q-49 0 -73 -28q-23 -29 -74 -56v-2q-23 -82 -35 -179t-12 -226z" />
<glyph unicode="m" horiz-adv-x="1419" d="M25 686q0 -23 1 -71t3 -109.5t4 -128t4 -123.5t3 -99t1 -57l76 -96q20 -20 45 -20q20 0 33 20q27 41 64.5 116t79.5 156.5t83 154.5t76 112q45 0 45 -49q-2 -59 -3 -77t-1 -26q0 -43 2 -96t10 -99.5t23.5 -77t41.5 -30.5h9q4 -4 15 -5t13 -1q23 0 44.5 24.5t46 58.5 t53 70.5t65.5 61.5q49 53 86 97t99 87q16 0 23 -19.5t7 -31.5q0 -74 -3 -136.5t-3 -121.5q0 -45 2 -89t13.5 -79t37 -56.5t72.5 -21.5q141 43 182 121q-6 25 -12 60.5t-10 73.5t-6 74t-2 62v41q0 23 2 41q-6 74 -10.5 136.5t-14.5 107.5t-29.5 70.5t-56.5 25.5 q-51 0 -105.5 -18.5t-106.5 -48t-102.5 -66.5t-93.5 -72q-20 49 -26 162q-2 57 -7 95t-18.5 60.5t-41 31t-72.5 8.5q-14 0 -20.5 1t-8.5 1q-121 -82 -196.5 -203t-129.5 -264h-8l-6 -2q-2 0 -7 2t-5 8v68q0 29 -1 49t-2 36.5t-1 35.5q-10 131 -25 202q-61 100 -207 123v-2 q0 -14 -4 -50t-8 -76t-8 -78t-4 -54z" />
<glyph unicode="n" horiz-adv-x="976" d="M41 866q12 -66 21.5 -122t14.5 -114.5t7 -123t4 -146.5v-69q-25 -35 -25 -105q0 -98 39 -143t119 -45l35 2q10 33 17.5 58.5t13.5 49t9 50t5 61.5l-4 123q2 29 29.5 77t64.5 99t74 94t61 64q47 0 52 -17q2 -35 5 -97t9 -135t17.5 -147.5t29.5 -136t44 -100.5t62 -39 q41 0 76 33t60.5 75t40 80.5t14.5 49.5l-2 16q-29 -35 -35 -42t-8 -7q-4 0 -20.5 4t-16.5 8q0 51 -5 97.5t-11.5 83t-11.5 62t-5 36.5q0 43 -8 99t-28.5 107.5t-56.5 86t-91 34.5q-49 0 -98.5 -26.5t-92.5 -57t-74.5 -57.5t-45.5 -27q-35 0 -50.5 25t-15.5 53q0 72 -49 107 t-107 35l-63 -11v-2z" />
<glyph unicode="o" horiz-adv-x="966" d="M41 426q0 -96 27.5 -176t79 -137.5t123 -89t157.5 -31.5q88 0 177 35.5t161 97t116 142.5t44 171q0 74 -10.5 145.5t-41 127t-85 90.5t-142.5 35q-49 0 -100 -14.5t-91 -42t-65.5 -68.5t-25.5 -95q0 -12 12 -23t24 -11q72 29 123 43t94 14q49 0 91 -18q-2 -80 -17.5 -158 t-53.5 -139.5t-103.5 -99.5t-169.5 -38q-41 0 -69 39t-43 92.5t-21.5 108.5t-6.5 90q0 76 29 132.5t76 100.5t106.5 81.5t120.5 78.5q-119 0 -214 -47t-162.5 -118.5t-103.5 -156.5t-36 -159v-2z" />
<glyph unicode="p" horiz-adv-x="1054" d="M39 883q0 -10 9 -21.5t15 -17.5q14 -18 17.5 -26.5t3.5 -16.5q14 -92 23.5 -186.5t13.5 -174.5t6 -140t2 -87v-41l-12 -4q-6 0 -21.5 18.5t-19.5 18.5q-14 -4 -17.5 -24.5t-3.5 -24.5q0 -33 23.5 -71t50.5 -56q8 -31 8 -78q-4 -70 -6 -104.5t-2 -51.5q0 -16 5 -46 t17.5 -59.5t33 -52t51.5 -22.5q23 -12 48 -20.5t27 -8.5q27 0 43 17l-24 364l20 23q61 -18 137 -19q66 0 156 23.5t173 70t140.5 116t57.5 161.5q0 90 -20.5 182t-71 168t-134 123t-210.5 47q-59 0 -101.5 -31.5t-71 -81t-50 -106.5t-42.5 -106q-18 0 -26 55 q-10 61 -25.5 115.5t-38 96.5t-57.5 66.5t-86 24.5h-35q-6 -6 -6 -12zM322 342q0 61 14 119.5t42 102.5t69.5 72t97.5 28q121 0 176 -40t55 -132q0 -74 -48 -142.5t-114.5 -122t-138.5 -86t-117 -32.5h-20q-6 80 -9 123.5t-4 67.5t-2 31t-1 11z" />
<glyph unicode="q" horiz-adv-x="1099" d="M41 338q0 -63 18.5 -123.5t53 -109t88 -77t121.5 -28.5q129 0 215 49t133 133q8 -10 13 -22.5t5 -28.5q-4 -66 -6 -87t-2 -34q0 -29 11 -52.5t11 -55.5q-12 -90 -18 -132t-6 -49q0 -63 36 -90.5t113 -27.5q33 0 47 8q16 113 39 219.5t45.5 197.5t43 160.5t34.5 110.5v47 q0 23 10.5 34t10.5 23q0 8 -8.5 20.5t-18.5 18.5q-4 0 -12 -14t-16.5 -30.5t-13.5 -33t-5 -18.5q0 -20 -11 -45t-23.5 -48.5t-24 -43t-11.5 -31.5q-6 -20 -14 -35.5t-25 -15.5q-4 0 -8 1t-4 3q0 14 -1 52t-2 88.5t-3 107.5t-3 109.5t-2 94.5t-1 62q0 10 11 21.5t20 11.5 q12 0 23 -3t18 -3q25 0 24 18q0 27 -13 49.5t-28.5 42t-28 40t-12.5 44.5q0 23 10.5 39.5t10.5 24.5l-35 12q-53 -16 -90 -39.5t-70 -75.5q-115 0 -230.5 -33.5t-208.5 -96t-151.5 -153.5t-58.5 -206zM270 252q6 49 31 123t68 142.5t107.5 117.5t150.5 49q23 0 40 -6t17 -23 q0 -18 -1 -46.5t-2 -58.5t-2 -56.5t-1 -40.5q0 -59 -35 -113.5t-87 -94.5t-112.5 -63.5t-113.5 -23.5q-45 0 -52.5 26.5t-7.5 67.5z" />
<glyph unicode="r" horiz-adv-x="665" d="M41 854q2 -6 6 -27q23 -117 36 -203.5t17 -152.5q0 -133 -11 -212t-11 -124q0 -41 20.5 -70.5t48 -50t56 -30t45.5 -9.5q76 0 76 48q0 25 -6.5 55.5t-6.5 60.5q0 39 -1 96.5t-3 112.5t-3 98t-1 54q0 155 144 155h2q35 0 62.5 -17t27.5 -73q0 -41 -25 -96q-27 -57 -29 -96 l15 -2q49 117 80.5 229.5t44.5 218.5q-4 16 -24.5 26.5t-50.5 16.5t-63.5 8t-62.5 2q-18 -16 -33.5 -50t-30 -67.5t-29 -59t-32.5 -25.5q-14 0 -23 32q-10 31 -17 62t-20.5 55.5t-39 39.5t-72.5 15q-39 8 -57 12l-17 5z" />
<glyph unicode="s" horiz-adv-x="890" d="M41 150q0 -47 50 -79t114.5 -52.5t128 -28.5t88.5 -8q88 0 167 12t136 44t91 84t34 132q0 53 -22.5 91t-59.5 63.5t-84 44t-96 30.5q-35 8 -75 16.5t-81 17.5t-79 20.5t-64 27.5q33 57 90 89t117.5 47.5t115 19.5t80.5 4q66 0 137 -31q-43 102 -115.5 140t-181.5 38 q-61 0 -128.5 -11t-124 -34.5t-93 -58.5t-36.5 -84q0 -80 -41 -90q8 -96 63 -140t131 -62.5t158 -28t141 -35.5l8 -29q-37 -29 -94 -53.5t-115.5 -43t-110.5 -28.5t-79 -10q-37 0 -61 8q14 29 38.5 37t69.5 24l12 5h11q27 8 38 17t48 13h4l8 4q8 0 18.5 3.5t10.5 7.5h-9 l-8 4q-86 -18 -151.5 -29.5t-109.5 -24t-66.5 -31t-22.5 -52.5z" />
<glyph unicode="t" horiz-adv-x="702" d="M41 762q0 -35 5 -67.5t16.5 -58.5t31 -42t49.5 -16q14 0 15 4q-2 8 -3 11t-3 7q-16 12 -20.5 24.5t-4.5 18.5t8 17.5t19 11.5h20l10 4q31 0 45 -21l21 -536q27 -49 68.5 -81t90 -50.5t94.5 -25.5t79 -7l-25 39q0 12 8 26.5t18.5 27.5t18.5 24.5t8 17.5 q-80 92 -104.5 160.5t-26.5 95.5l-20 283q6 35 45 35q29 0 45 -2.5t33 -2.5q31 0 55.5 47.5t24.5 112.5q0 33 -19.5 45.5t-40.5 12.5q-49 0 -71.5 -7.5t-32.5 -7.5q-35 0 -45.5 24.5t-10.5 61.5t-3 79t-7 80t-11 65.5t-15 35.5q-33 33 -68 67t-76 34q-25 0 -38 -3t-23 -10 v-2q0 -55 4 -100t9 -85t9 -78t4 -75q0 -61 -18.5 -80.5t-56.5 -19.5q-63 0 -87 -26.5t-24 -67.5z" />
<glyph unicode="u" horiz-adv-x="1007" d="M41 922q18 -51 31.5 -144.5t21.5 -200t12.5 -211t4.5 -176.5q12 -35 36.5 -63.5t53 -52t57.5 -40t49 -24.5q51 4 95 30t84 63.5t79 86t82 97.5l25 -4q4 -8 8 -16.5t4 -18.5q0 -25 -1 -56.5t-2 -60.5t-2 -48.5t-1 -21.5q0 -57 39 -101t143 -44q18 -6 45 -6q2 0 12.5 1 t21.5 3t19.5 5t8.5 9q0 16 -12.5 36t-14.5 44q-43 346 -43 492q0 72 3 105.5t13 53.5q31 41 39.5 75t8.5 42t-19.5 21.5t-47.5 27t-55.5 22.5t-39.5 9q-35 0 -70 -33q-6 -25 -26.5 -70.5t-52.5 -99t-71.5 -109t-82.5 -100.5t-87 -73.5t-85 -28.5q-23 0 -30 16 q0 84 -1.5 148.5t-5.5 117t-8.5 97.5t-8.5 88q-8 25 -16 39t-18 22q-16 6 -37 16.5t-42.5 19.5t-42 16.5t-34.5 7.5q-16 0 -39 -8z" />
<glyph unicode="v" horiz-adv-x="872" d="M43 868q0 -37 18.5 -102.5t41 -132t43 -122.5t26.5 -75q23 -49 39 -91t34.5 -75.5t40 -57.5t56.5 -34q27 -27 38 -52.5t20.5 -47t24.5 -40t50 -30.5q39 -16 46 -19t11 -3q18 0 41 32.5t47.5 82t49 106.5t44 109.5t33 90t17.5 46.5q27 59 47 109t20 110q0 82 -49 135 t-127 53q-33 0 -53 -11t-32.5 -24.5t-18.5 -27t-10 -19.5q-70 -106 -70 -168v-6q16 16 30.5 39t29 43.5t31 36.5t36.5 22q0 -39 -16.5 -99t-40 -125.5t-51 -128t-50.5 -105.5l-26 -17q-57 166 -99.5 303.5t-78.5 223.5q-53 37 -84 58.5t-45.5 31.5t-18.5 12t-6 2 q-27 0 -33 -10.5t-6 -22.5z" />
<glyph unicode="w" horiz-adv-x="1445" d="M41 868q10 -20 32.5 -76.5t52.5 -132t60.5 -162.5t57 -167t43 -144.5t16.5 -95.5l49 -70q29 0 54.5 11.5t45 30t31 42t11.5 48.5t9 53t24.5 56t36 49.5t42.5 31.5q20 -18 48 -68.5t52.5 -102.5t41.5 -93l18 -41q16 0 34.5 9t35 19.5t30 19.5t19.5 9h8q0 -33 -22.5 -63.5 t-22.5 -57.5q0 -20 18.5 -33.5t63.5 -13.5q14 0 50 5.5t74 20.5t67.5 46t29.5 80q0 47 26.5 70.5t43.5 37.5q25 49 56.5 107.5t60 122t48 128t19.5 124.5q0 29 -6 63.5t-24.5 64t-50.5 50t-83 20.5q-16 0 -23.5 -3t-15.5 -3l-137 -463q-35 -70 -62.5 -100.5t-80.5 -30.5h-13 q-49 100 -71.5 176t-34.5 143.5t-20.5 134t-26.5 148.5q-94 -6 -133 -69q-16 -31 -27.5 -92.5t-25 -123t-34 -108.5t-57.5 -47q-20 0 -28 14q-63 119 -105 235.5t-67 194.5q-6 0 -29 4.5t-49.5 8.5t-51 7t-30.5 3q-53 0 -78 -27z" />
<glyph unicode="x" horiz-adv-x="997" d="M45 201q0 -33 12.5 -73t30.5 -76t41 -60.5t45 -24.5q6 0 27.5 14.5t44 32t40 32.5t17.5 20q-16 8 -22.5 13t-6.5 11q0 33 29 63.5t63.5 52t62.5 35t26 13.5q37 0 71.5 -32t67.5 -70.5t63.5 -70.5t59.5 -32q45 0 78.5 34t55 81t32 97t10.5 85q0 47 10 89t21.5 81t21.5 79 t10 85q0 55 -30.5 97t-98.5 42q-80 0 -221 -110q-12 -10 -26.5 -23.5t-28.5 -26t-27.5 -21.5t-23.5 -9q-20 0 -43 18.5t-44.5 44t-39 53t-23.5 46.5l-35 94h-16q-18 0 -48 -16.5t-30 -45.5q0 -86 33 -179t72 -157q-14 -35 -50 -72.5t-79 -76.5t-85 -74t-67 -63zM614 397 q10 20 45 55t75 69t76 59.5t48 25.5h23q12 0 12 -20q0 -74 -3 -123t-14.5 -88t-32 -74t-55.5 -80q-43 16 -86 68.5t-88 107.5z" />
<glyph unicode="y" horiz-adv-x="956" d="M41 -365q0 -45 41 -79.5t94 -34.5q18 0 53 10t70 22.5t65.5 25.5t43.5 20l10 30q-20 27 -21 60q0 31 15.5 65.5t38 63t48 48t46.5 19.5q37 0 73.5 24.5t68.5 58.5t57.5 68l37.5 50q2 51 10.5 134t23.5 180.5t40 199.5t59 193q0 35 -27.5 59.5t-92.5 34.5h-2 q-31 -12 -62 -49t-61.5 -87.5t-61 -107.5t-58.5 -110.5t-54.5 -97.5t-49.5 -66q-82 43 -119.5 107.5t-61 132t-47 128t-75.5 94.5q-27 0 -43 -11t-25 -28.5t-12.5 -38t-3.5 -36.5q2 -68 8.5 -133.5t24 -129t47 -124t80.5 -117.5q78 -90 84 -141q-115 -182 -188.5 -292 t-73.5 -145zM666 164q0 33 14 74t34.5 82.5t45 81.5t43.5 69q-8 -98 -32.5 -187.5t-65.5 -144.5l-13 -4q-27 0 -26 29z" />
<glyph unicode="z" horiz-adv-x="935" d="M43 184q0 -109 76 -184q57 0 121.5 3t119 6t93.5 6t45 3q76 4 147.5 21.5t126.5 48.5t89 72t34 92q0 43 -18.5 67.5t-41 39t-41 21.5t-18.5 13q6 8 22.5 25.5t34 38t29.5 39t12 30.5l-28 35q-31 -49 -127 -49q-66 0 -87.5 -1t-23.5 -1l-28 18q25 37 58.5 66t68 52.5 t65.5 42t49 36.5q0 33 -6 56t-29 46q-12 -6 -20 -6q-10 0 -16.5 3t-10.5 3q-31 -8 -101.5 -14t-156.5 -10t-173 -6t-148 -2l-76 32q-8 -10 -8 -24q0 -4 6 -24.5t6 -33.5l-8 -30q0 -20 24.5 -35.5t38.5 -15.5l482 24q16 -25 16 -24l-170 -148l-182 -24q-12 -4 -17 -5 q-29 0 -52 10.5t-38 10.5q-14 0 -25.5 -10.5t-11.5 -26.5q0 -39 32 -71.5t71 -61.5q-20 -18 -54 -38.5t-68 -40t-58.5 -39t-24.5 -36.5zM240 213q6 12 17 29.5t26.5 36t34 35t36.5 26.5q104 12 156.5 16t67.5 4q96 0 149 -3t88 -13l21 -20q0 -39 -34 -61.5t-103.5 -33 t-174 -13.5t-248.5 -3h-36z" />
<glyph unicode="{" horiz-adv-x="1032" d="M41 535q0 -117 25.5 -215.5t81 -169t143.5 -110.5t211 -40q57 0 69.5 6t12.5 17q0 23 -14.5 62.5t-35 80.5t-43 74.5t-36.5 46.5q-23 18 -55.5 24t-63.5 11.5t-53.5 15.5t-22.5 35q0 162 54.5 294t135 238.5t176 188.5t176.5 142l135 100t54 63q0 47 -73 47q-10 0 -42 2 t-72 4t-82 4t-75 2q-172 0 -266 -76q29 -14 51 -14q16 0 33.5 -4t17.5 -12q0 -16 -7 -22.5t-17 -12.5q-90 -51 -167 -140.5t-132.5 -196t-87 -223t-31.5 -222.5z" />
<glyph unicode="|" horiz-adv-x="337" d="M41 123q8 -18 29.5 -41t48 -42.5t54.5 -31.5t48 -12q35 0 41 33q4 29 6 51t2 39q0 33 -4 49t-4 45q0 27 5 61.5t12.5 69.5t12.5 64.5t5 44.5q0 -2 -2 -2h-6q-2 0 -14.5 6t-12.5 10q-2 170 -4 299t-5 229.5t-7 176t-8 141.5q-8 31 -17.5 45t-22 23.5t-26.5 17.5t-29 26 l-2 5q-8 0 -23.5 12t-19.5 16q-20 -8 -35.5 -15t-17.5 -28q25 -332 25 -829l16 -185q0 -72 -13.5 -146.5t-31.5 -131.5z" />
<glyph unicode="}" horiz-adv-x="1032" d="M41 59q0 -47 74 -47q12 0 43.5 -2t71.5 -4t82 -4t73 -2q172 0 266 76q-102 20 -102 30q0 16 8 28.5t18 21.5q82 68 158 155.5t133.5 188t91 209t33.5 215.5q0 260 -143 440q-39 20 -91 37.5t-106.5 30t-104.5 19.5t-83 7q-14 0 -14 -22q0 -23 14 -63t34.5 -81t42 -74.5 t38.5 -46.5q23 -18 55.5 -24t63 -11.5t53 -15.5t22.5 -35q0 -276 -117.5 -489t-371.5 -356q-25 -14 -66 -34t-80 -44.5t-67.5 -50t-28.5 -52.5z" />
<glyph unicode="&#xa0;" />
<glyph unicode="&#xa7;" horiz-adv-x="587" d="M45 -51q0 -4 9 -29.5t32 -83.5q53 -25 86 -34t61 -9q98 0 148.5 47t50.5 135q0 18 -5 34t-7 24q33 8 57.5 28.5t39.5 46t22.5 53t7.5 50.5q0 63 -31 99t-73 54.5t-85 26.5t-69 17q12 39 37.5 63.5t54.5 36.5t54.5 16t37.5 4q14 0 30.5 -5t31.5 -13q-25 119 -138 119 q-55 0 -108.5 -32t-69.5 -95q-4 -16 -7 -53t-3 -66q-39 -12 -72 -42t-33 -75v-2q0 -53 -20 -59q0 -55 23.5 -86t58.5 -47.5t75 -25.5t74 -21q0 -37 -12 -58.5t-30.5 -34t-40 -16.5t-42.5 -4q-88 0 -145 37zM170 186q23 59 67 82t97 23q33 0 64.5 -7.5t31.5 -23.5 q0 -39 -9 -62.5t-23.5 -37t-33 -18.5t-38.5 -5q-59 0 -99.5 8t-56.5 41z" />
<glyph unicode="&#xad;" horiz-adv-x="368" d="M39 397q0 -6 33 -6h71q33 0 72 2t47 10l8 9q49 31 56 69l2 13q-2 2 -2 20h-187q-16 0 -28.5 -12.5t-22.5 -24.5t-16 -23.5t-11 -27.5v-4q-10 -16 -16 -19.5t-6 -5.5z" />
<glyph unicode="&#xc0;" horiz-adv-x="1617" d="M41 410q18 -47 64.5 -88t95.5 -52q0 -47 -15.5 -89t-15.5 -70q0 -16 17.5 -33t42 -30t52 -21.5t48.5 -8.5q25 0 51.5 27t47 60.5t33.5 65.5t13 42q29 0 69 -3t52 -3q156 -59 370 -110.5t502 -96.5q55 0 56 41q0 20 -22.5 60t-50.5 87.5t-50.5 94.5t-22.5 82q0 18 11.5 23 t15.5 5q39 -4 62.5 -5t36 -2t16.5 -1h12q33 0 45 12q-51 39 -83 68t-53.5 47t-34.5 27.5t-26 9.5l-53 -17q-29 27 -55.5 80.5t-51 119t-48 137t-42 139t-33 125t-24.5 90.5q-10 37 -19.5 64.5t-21.5 48t-30.5 32.5t-49.5 23q-61 31 -106 47t-76 20q-35 -63 -78 -147 t-88 -179.5t-90 -193.5t-85 -188.5t-72.5 -168t-53.5 -128.5q-23 -2 -66.5 -3t-87 -5.5t-76 -12.5t-32.5 -22zM565 238v18q94 6 164 18.5t131.5 26.5t120.5 24.5t137 10.5q51 0 89 -22.5t38 -61.5q14 -53 41 -80q0 -33 -33 -33q-23 0 -29.5 2t-9.5 2q-47 0 -113.5 6.5 t-138 15.5t-143 19.5t-128 21.5t-91.5 19t-35 13zM586 483q14 29 27.5 58.5t25.5 60.5q43 106 76 183t58.5 131.5t45 91t35.5 61.5h16v-2q10 -14 27.5 -50t39 -84t43 -103.5t40 -107.5t30 -95t11.5 -66t-10 -22q-31 -12 -94.5 -18.5t-134 -11.5t-135 -10t-101.5 -16z" />
<glyph unicode="&#xc1;" horiz-adv-x="1335" d="M41 1290q0 -45 15.5 -85t35 -71.5t39 -54t29.5 -30.5q94 -184 200 -230q12 -27 22.5 -68.5t18 -91t11.5 -103.5t4 -105q0 -113 -19 -181q-23 0 -51.5 11.5t-54 24.5t-45 24.5t-25.5 11.5q-16 0 -16 -35q0 -82 32.5 -140t90 -95t134.5 -54.5t165 -17.5q96 0 211.5 20.5 t217 61.5t170 102.5t68.5 145.5q0 78 -38.5 137t-100 104t-137.5 75t-149.5 48.5t-137 26.5t-100.5 8t-37 33q0 29 -2 70.5t-4 86t-4 84t-2 66.5q0 70 5 115t9 78q78 -4 129 -5q53 0 111.5 -6t139.5 -25.5t218 -62.5q0 37 -23.5 64.5t-56.5 49t-65.5 37t-53.5 27.5 q-59 35 -108 57.5t-98.5 36t-106.5 18.5t-133 5q-160 0 -277.5 -31.5t-216.5 -97.5v-2q-14 -14 -14 -37zM242 1145v39q47 35 100 47t117 35v-13q0 -33 -49 -69q-29 -29 -37 -48.5t-8 -72.5q0 -25 -1.5 -50.5t-4.5 -48t-6 -38t-5 -15.5q-4 0 -20.5 36t-36 79t-34.5 80t-15 39 zM596 250q6 66 11 107.5t5 93.5v90q0 4 7.5 10t15.5 6h39q16 0 35.5 10.5t27.5 10.5q125 -12 196 -46t109 -92v-2q-10 -59 -59 -101t-110.5 -69.5t-123 -41t-94.5 -13.5q-18 0 -34.5 8t-24.5 29z" />
<glyph unicode="&#xc2;" horiz-adv-x="1335" d="M41 1290q0 -37 15.5 -75.5t35 -72.5t39 -59.5t29.5 -33.5q94 -184 200 -230q14 -45 22.5 -124t11.5 -156.5t4 -137t1 -65.5q0 -51 -16 -66.5t-27 -15.5q-25 0 -47 13.5t-39.5 30.5t-30 30.5t-18.5 13.5q-16 0 -16 -35q0 -82 32.5 -140t89 -95t133.5 -54.5t167 -17.5 q92 0 207.5 8t218 38t172 89.5t69.5 163.5q0 82 -24.5 137.5t-61.5 97t-81 74.5t-85 70v12q45 27 86 72t72 97t48.5 108.5t17.5 105.5q0 53 -34 102.5t-89.5 92.5t-129 77.5t-153.5 60.5t-161 39t-150 13q-160 0 -277.5 -31.5t-216.5 -97.5v-2q-14 -14 -14 -37zM242 1145v39 q16 12 36.5 23.5t40.5 17.5q6 2 24.5 8t40.5 12t42 11.5t33 9.5v-13q0 -33 -49 -69q-39 -25 -50.5 -61t-11.5 -89q0 -61 4 -96t8 -53q-8 18 -19 45.5t-28 60.5q-8 25 -20 45.5t-23.5 38t-19.5 34.5t-8 36zM594 762v215q0 90 1 148.5t1 88.5v48q141 0 244.5 -29t158.5 -107 v-2q-12 -68 -63 -138.5t-112.5 -127.5t-117 -93t-75.5 -36q-37 0 -37 33zM596 250q6 66 11 107.5t5 93.5v98q0 4 7.5 7t15.5 3q51 0 72.5 9.5t29.5 9.5q117 0 192 -40t113 -98v-2q-10 -59 -59 -101t-110.5 -69.5t-123 -41t-94.5 -13.5q-18 0 -34.5 8t-24.5 29z" />
<glyph unicode="&#xc3;" horiz-adv-x="1183" d="M41 1163q6 -51 61 -51q31 0 41.5 3t30.5 3q41 0 54.5 -12t13.5 -35q0 -61 -10.5 -122.5t-22.5 -123t-22.5 -122t-10.5 -119.5q0 -86 20.5 -174t67.5 -160q23 -14 45.5 -28.5t24.5 -33.5q-6 -12 -31 -12q-35 0 -51 -12t-16 -25q0 -31 37.5 -56.5t89 -45t102.5 -30.5 t80 -11q135 0 135 147q0 39 -22.5 52.5t-54.5 16.5t-65.5 4t-56.5 17q-12 8 -21 45t-17.5 84.5t-12.5 98.5t-4 90q0 23 2 57.5t5 70.5t6 65.5t3 41.5t-5 43t-5 39q0 10 5 15.5t5 17.5v66q0 78 23.5 111.5t71.5 33.5q72 0 123 5t92 12.5t73.5 12.5t67.5 5q78 0 127 -49 t49 -160q8 -66 12 -113t4 -82l37 -2q-4 25 -6 47.5t-4 45.5q-2 45 -3 77.5t-3 58t-4 47t-4 44.5q45 20 45 69q0 23 -9.5 42.5t-19.5 39t-19.5 42t-9.5 53.5q0 33 2.5 53t3.5 30.5t3 15.5t2 11q0 23 -11.5 30t-40.5 7q-12 0 -34.5 -4t-63.5 -18q-23 -53 -71 -77t-130 -24 q-70 0 -116.5 4t-71.5 4q-31 0 -60.5 14.5t-54 31t-43 31t-26.5 14.5q-57 0 -116.5 -32t-107 -75t-78 -88t-30.5 -72z" />
<glyph unicode="&#xc4;" horiz-adv-x="1376" d="M41 1249q0 -29 13.5 -72.5t34 -92t44 -97.5t43.5 -86q6 -12 10 -26.5t11 -30.5q8 -29 22 -59.5t43 -39.5v17q0 16 -12 57t-27.5 88t-29 91t-17.5 69q45 98 193 117q20 -8 20 -25q0 -14 -10 -31.5t-22.5 -34t-23.5 -29.5t-11 -20q-4 -45 -5.5 -96t-1.5 -86l29 -543 q0 -66 -61 -65q-33 0 -71 14.5t-69 14.5h-10q12 -86 55 -140.5t104.5 -86t137.5 -44t158 -12.5q131 0 258 39t230.5 111.5t173 175t85.5 231.5q-10 82 -17 128t-7 93q0 10 2 13.5t2 5.5v18l4 12q0 39 -12.5 67t-22.5 56q-41 104 -89 177t-122 124q-37 23 -110.5 57.5 t-164.5 68.5t-189.5 57.5t-184.5 23.5q-66 0 -133.5 -9t-122.5 -32.5t-91 -64t-36 -103.5zM506 270q0 10 10 38t16 42q35 53 41.5 104.5t6.5 118.5q0 39 -3.5 91.5t-8.5 107.5t-8 106.5t-3 88.5q0 27 3 62.5t7 67t8.5 53t6.5 21.5l24 9q109 -39 208 -85t179 -110.5 t134.5 -150.5t70.5 -205v-2q-49 -88 -121.5 -156t-162 -114t-188.5 -70.5t-202 -24.5l-6 -1t-10 -1q-2 6 -2 10z" />
<glyph unicode="&#xc5;" horiz-adv-x="1458" d="M41 186q0 -61 23.5 -97t61.5 -56.5t84 -26.5t89 -6q184 0 317.5 6t226.5 16.5t152.5 22.5t99.5 24.5t63.5 23.5t45.5 18q123 39 172 180q4 16 22.5 38.5t18.5 41.5q0 23 -39 22q-115 0 -230.5 -21.5t-225 -46t-210 -46t-184.5 -21.5h-36q-16 12 -21.5 38t-5.5 64v119 q31 43 61.5 68.5t58 40t48 21.5t31.5 14q49 27 104 40t137 13q57 0 110.5 13t97.5 32.5t76 41t48 38.5q-6 6 -9 19.5t-7 27.5v4q0 45 -43 56.5t-99 11.5q-74 0 -175 -3.5t-193.5 -8.5t-159 -9t-74.5 -6q-23 10 -22 25q0 33 -6.5 49t-6.5 45q4 18 8.5 30.5t4.5 22.5 q0 78 -8.5 110.5t-8.5 36.5q35 0 100.5 5.5t140.5 10.5t150.5 10t133.5 5q8 0 23 -8t15 -21q-45 -37 -109.5 -68.5t-133 -59t-132 -53t-106.5 -52.5l684 240q33 8 50.5 27.5t25.5 38t10 32.5l2 14q0 12 -8 31.5t-22.5 40t-33 35t-38.5 14.5h-2q-12 0 -28.5 1l-33 2t-28.5 1 h-17q-166 0 -304 -5t-242.5 -10t-172 -9t-94.5 -4q-43 0 -89 9t-93 15q-23 -23 -23 -59q0 -16 4.5 -45t13.5 -57.5t25.5 -49t43.5 -20.5q47 -8 65 -31l12 -262q-18 0 -38.5 -16.5t-38 -39t-29.5 -45t-12 -34.5q0 -23 13 -50.5t44 -31.5q47 -20 57 -65.5t10 -115.5 q0 -37 -4 -61.5t-14 -42.5t-25.5 -34.5t-37.5 -37.5q-39 -37 -75 -73.5t-36 -96.5zM133 297q0 25 22.5 50.5t45.5 25.5q41 0 45 -35v-31q0 -51 -53 -51q-33 0 -46.5 12.5t-13.5 28.5zM451 608q0 70 77 70q43 0 71 -5t52 -5q23 0 37 8v-4q4 -8 4 -17q0 -8 -13 -12t-22 -4 q-18 -4 -40.5 -15.5t-45 -24.5t-43 -23.5t-36.5 -10.5q-10 2 -23.5 9.5t-13.5 15.5z" />
<glyph unicode="&#xc6;" horiz-adv-x="1775" d="M45 676q0 -31 13.5 -50.5t32 -37t39 -37t36.5 -51.5l20 -357q113 -123 250 -143q51 43 51 131q0 47 -4 79t-4 40q0 76 16.5 99.5t41.5 23.5q33 0 77.5 -23.5t85.5 -42.5l32 -8t30 -8q-12 -94 -47 -174q14 -18 45 -41t68.5 -42.5t76.5 -31.5t70 -12q18 0 31.5 13 t20.5 32.5t11 40t4 37.5q0 29 -5 45t-7 39q80 -25 123 -31q-10 6 -29.5 13t-40 16.5t-35 22.5t-14.5 30q0 25 6.5 50.5t14.5 50t15 45t9 36.5q20 -2 45 -3t44.5 -2t33.5 -2l15 -1l47 -41q-2 -8 -4.5 -17.5t-2.5 -19.5q0 -18 7.5 -58t7.5 -65q0 -63 -62 -90 q33 -20 58.5 -34.5t46.5 -22.5q41 -12 69.5 -25.5t53 -24t49 -17.5t55.5 -7q35 0 57.5 15.5t22.5 33.5q0 23 -11.5 40t-11.5 34q0 23 -3 48.5t-6 49t-5 43t-2 31.5q0 49 6 78.5t21 50.5h43q82 0 82 61q0 27 -9.5 52.5t-23.5 47t-28.5 38t-26.5 28.5q-37 37 -51.5 70 t-14.5 80q0 63 4 143t10.5 155t10.5 134t4 82q0 29 -32 49t-89 35q-35 8 -47 11t-33 15q-18 10 -26.5 13.5t-18.5 3.5q-16 0 -22.5 -3t-6.5 -1q-29 -178 -45 -310.5t-16 -236.5q0 -35 -2 -73t-8.5 -69.5t-15.5 -52t-21 -20.5q-51 0 -100.5 5t-98.5 9q-4 186 -12 340t-21 277 q-25 35 -54.5 61.5t-57 44t-51 26.5t-35.5 13q-27 -10 -49.5 -16t-26.5 -27q10 -59 17 -137t11.5 -167t6.5 -186.5t2 -197.5l-266 47v514q-20 27 -58.5 57.5t-80.5 56t-81 42t-61 16.5q-27 0 -41 -4t-25 -12q18 -88 29.5 -170t11.5 -162q0 -27 -3 -66t-12 -78.5t-26.5 -74.5 t-44.5 -51q-16 -6 -27.5 -29t-17.5 -49.5t-8 -50t-2 -31.5zM563 463q0 8 39 8q37 0 88 -5t76 -9q0 -49 -1 -80t-3 -47q-86 39 -142.5 72.5t-56.5 60.5z" />
<glyph unicode="&#xc7;" horiz-adv-x="1660" d="M41 147q0 -18 4 -43.5t12.5 -49t22.5 -39t37 -15.5q43 0 68.5 3t41 9t22.5 15.5t11 21.5q25 0 114 -1t210 -1t257 -2t253 -2q119 0 201.5 -1t99.5 -1q29 0 64.5 6t68.5 17.5t54.5 28t21.5 38.5q0 119 -55.5 214t-137.5 170t-177 133.5t-175 101.5q27 31 62.5 61.5 t76.5 62.5q33 25 91.5 68t122 89t119.5 89t83 68l6 37q-35 76 -67.5 128t-92.5 105q-35 -2 -104.5 -8t-155.5 -13t-182 -14.5t-184.5 -14.5t-162 -11t-114.5 -4q-72 0 -126 6t-101 14t-92 14.5t-99 6.5q4 -70 18.5 -133.5t45.5 -81.5q14 -8 91 -15.5t186.5 -14.5 t236.5 -12.5t241.5 -10.5t201.5 -7t116 -2v-24q-104 -100 -203.5 -188.5t-193.5 -164.5q-104 51 -187.5 75t-169.5 24q-18 0 -42.5 -3.5t-46 -10.5t-36 -19t-14.5 -31q0 -53 35 -104.5t89 -91t120.5 -65.5t132.5 -26q117 0 230.5 -8t209.5 -28.5t168 -56.5t109 -89v-10 q0 -16 -11.5 -36.5t-33.5 -20.5q-53 0 -135.5 1t-175.5 2t-188 3t-177 3t-141.5 2t-79.5 1q-127 0 -196 -6t-101.5 -14.5t-43 -14.5t-20.5 -8q-133 -23 -133 -101zM514 819v25q94 0 160.5 -16.5t138.5 -57.5v-2l-9 -1t-20.5 -2t-22.5 -2t-16 -1q-68 0 -130 12t-101 45z" />
<glyph unicode="&#xc8;" horiz-adv-x="1431" d="M41 311q0 -59 5 -115.5t22.5 -100.5t50.5 -70.5t86 -26.5q135 0 239.5 64.5t195.5 156.5t177 193.5t184 173.5q2 -25 3.5 -51.5t1.5 -55.5v-223q-39 -78 -39 -184q0 -45 14 -58.5t41 -13.5q121 0 219 109q0 39 -1 114.5t-1 167.5t-2 189.5t-2 181.5t-1 141.5t-1 69.5 q82 86 120 180t38 160q0 18 -3.5 42.5t-10.5 47t-20.5 39t-33.5 16.5t-30.5 -20.5t-18.5 -46t-17.5 -46t-27.5 -20.5q-23 0 -49.5 21.5t-51.5 21.5q-41 0 -63.5 -24.5t-32.5 -60.5t-13 -72.5t-3 -61.5q0 -47 -3 -80t-7 -53q-31 -45 -71 -111.5t-87 -140.5t-102.5 -147.5 t-116 -132t-128 -95.5t-139.5 -37q-10 0 -11 10.5t-13 10.5q0 76 8 190.5t17.5 250.5t17.5 284.5t8 294.5q0 37 -16.5 47t-38.5 10q-74 0 -119 -30.5t-92 -90.5q-16 -63 -22.5 -136t-6.5 -159q0 -84 4 -182t10.5 -195.5t10.5 -185.5t4 -152v-28q0 -4 -4 -4h-21 q-12 0 -19 25.5t-7 33.5q0 23 2 39t2 21q0 33 -3 51t-10 30l-12 -4q-2 -33 -6 -74.5t-4 -97.5z" />
<glyph unicode="&#xc9;" horiz-adv-x="1431" d="M41 311q0 -201 82 -307q14 -4 37.5 -5t44.5 -1q135 0 240.5 64.5t196.5 156.5t178 193.5t186 173.5v-330q-20 -41 -28.5 -75t-8.5 -87q0 -59 13 -76.5t40 -17.5q59 0 121.5 33t111.5 86q0 20 -2 81.5t-4 145.5t-5 179.5t-5 183.5t-4 158.5t-2 105.5q82 86 120 180t38 160 q0 18 -3.5 42.5t-10.5 47t-20.5 39t-33.5 16.5t-30.5 -20.5t-18.5 -46t-17.5 -46t-27.5 -20.5q-23 0 -49.5 21.5t-51.5 21.5q-41 0 -63.5 -24.5t-32.5 -60.5t-13 -72.5t-3 -61.5q0 -47 -3 -80t-7 -53q-20 -51 -59.5 -120t-89.5 -143.5t-109.5 -147.5t-123 -130t-128 -93 t-123.5 -36q-12 0 -19.5 12.5t-10.5 28.5t-4 34.5t-1 31.5q0 86 8 194.5t17.5 231t17.5 254t8 260.5q0 29 -14.5 41t-18.5 12q-74 0 -130 -28.5t-103 -88.5q-16 -63 -22.5 -136t-6.5 -159q0 -174 14.5 -355t14.5 -360q0 -23 -3 -27.5t-11 -4.5h-11q-6 0 -11 8t-8 19.5 t-4 20.5t-1 13q0 27 1 40t1 18q0 33 -3 51t-10 30l-12 -4q-2 -33 -6 -74.5t-4 -97.5zM557 1018h21q12 14 54 53t86 88t78.5 100.5t34.5 90.5q0 16 3.5 26t23.5 10q0 29 6 51.5t21 49.5q29 53 28 92q-12 20 -34 20q-18 0 -37 -6t-37.5 -13t-32.5 -13t-22 -6 q-23 -119 -53.5 -217.5t-60.5 -170t-52.5 -112.5t-26.5 -43z" />
<glyph unicode="&#xca;" horiz-adv-x="1204" d="M41 209q0 -29 29.5 -74t87.5 -78q29 -23 49 -36t37 -13q23 0 41 34t31.5 77t20.5 81t7 46q0 37 8 75.5t25 38.5q100 -106 183 -175.5t161 -110.5t155.5 -57.5t167.5 -16.5q35 0 57.5 10t37 27.5t19.5 38t5 39.5q0 25 -50 66.5t-111.5 83.5t-111.5 72l-50 30q0 -10 14 -41 t14 -54q0 -10 -6 -17t-16 -7q-41 0 -100.5 35.5t-126 86t-130 104.5t-112.5 91v35q109 80 233.5 174t231 185.5t177.5 168t71 121.5q0 29 -16.5 63t-41 63.5t-51.5 52t-47 30.5q-20 -14 -21 -39q-117 -152 -247.5 -271.5t-284.5 -217.5l-33 -4q-4 72 -16.5 156.5t-39 158.5 t-70.5 124t-107 50q-29 0 -43 -20q8 -78 16 -169t16.5 -180.5t13.5 -167t5 -124.5q0 -6 -10.5 -19.5t-21.5 -29t-21.5 -28.5t-10.5 -22q0 -25 8.5 -39t18.5 -22t19.5 -14.5t9.5 -14.5v-39l4 -43q0 -2 2 -3t2 -5q0 -14 2 -23.5t2 -17.5q0 -49 -13.5 -84t-29.5 -60.5 t-29.5 -44t-13.5 -36.5z" />
<glyph unicode="&#xcb;" horiz-adv-x="1312" d="M41 70q0 -16 8 -35t17 -19q14 0 18 7.5t4 11.5v14q98 16 227 127q6 18 14.5 46t17.5 59.5t19.5 63.5t22.5 61q20 53 21 102q12 43 32.5 113.5t45 149.5t51 157t51.5 133l24 -12q63 -109 116.5 -207.5t103 -206t96.5 -236.5t102 -301q4 -8 8 -17t4 -26q8 -57 41 -57 q25 0 60 19.5t76 19.5l20 4q0 37 15.5 65.5t15.5 53.5q0 16 -3 26.5t-3 18.5q-16 33 -27.5 71.5t-22 78.5t-21.5 81t-28 78q-25 57 -58.5 128t-67 140.5t-62.5 130t-47 97.5l-16 17q-17 17 -35.5 40t-34 47.5t-15.5 40.5q-33 47 -58 86t-52 74q10 8 14 10t6 2q8 0 17.5 -12 t19.5 -26.5t22.5 -27t26.5 -12.5q10 0 12.5 2t2.5 6q0 18 -14.5 51t-39 66t-56.5 56.5t-66 23.5q-18 0 -41 -8t-45.5 -17.5t-42 -16.5t-31.5 -7t-25.5 3t-29.5 13q-41 -18 -41 -41q0 -12 9 -26.5t20.5 -29.5t20.5 -30.5t9 -29.5q0 -74 -28.5 -159t-70.5 -175t-89.5 -185.5 t-83.5 -191.5q-45 -119 -84 -239.5t-72 -243.5z" />
<glyph unicode="&#xcc;" horiz-adv-x="1581" d="M41 121q0 -29 13.5 -58.5t23.5 -29.5q53 0 95 39t74 99t53.5 134t34.5 144.5t19 129t6 89.5q0 57 6.5 71.5t18.5 14.5q35 -57 83 -114.5t91 -110t74 -98.5t31 -81q0 -23 -9.5 -46t-9.5 -56q0 -20 14.5 -44t36 -45.5t45 -35.5t41.5 -14q23 0 36 17t28 17q10 0 25.5 -7 t32 -14t30.5 -14.5t20 -7.5q23 0 46.5 35t23.5 82q16 59 32.5 97t16.5 83q0 20 -2 38t-6 18t-4 -2h-4q-8 -33 -21.5 -61t-26 -48t-23.5 -31.5t-15 -11.5q-14 0 -21.5 17.5t-7.5 23.5q33 100 66.5 177t66.5 140.5t61.5 120t50 115.5t34 128t12.5 159q0 47 -15.5 76.5 t-52.5 29.5q-16 0 -38.5 -36t-51 -95t-63.5 -134t-74 -151.5t-82 -149.5t-90 -126q-47 31 -107.5 107.5t-124 172t-125 199t-110.5 189.5t-82 141t-37 55q-23 0 -47 -16.5t-43.5 -37t-33 -39.5t-13.5 -26q0 -41 25.5 -95t56.5 -107.5t56.5 -97.5t25.5 -62q0 -27 -12.5 -85 t-31 -136t-40 -166t-39.5 -174t-30.5 -164t-12.5 -131zM1253 883q0 -90 1 -144.5t1 -87.5v-49v-37q0 -33 1 -90t3.5 -121.5t5.5 -127t7 -103.5q41 -27 80 -49.5t71.5 -38t54 -23.5t27.5 -8q14 0 24.5 10.5t10.5 38.5q0 104 -4 229.5t-11 254.5t-15.5 252.5t-15.5 228 t-12 180.5t-7 107q-23 25 -51.5 47t-59.5 39.5t-59.5 28t-51.5 10.5v-324v-223z" />
<glyph unicode="&#xcd;" horiz-adv-x="1732" d="M41 848q0 -33 8 -76t8 -67q0 -35 20.5 -61t51.5 -48.5t65.5 -45t63.5 -50.5l16 -357q94 -123 207 -143q43 43 43 131q0 12 -1 30.5t-3 37t-3 33t-1 18.5q2 123 47 123q18 0 42 -10.5t48.5 -24.5t49 -27.5t47.5 -19.5q14 -4 35.5 -10.5t44 -14.5t45 -18t38.5 -23 q66 -29 104 -42t56 -17q-55 31 -138 70.5t-161 80.5t-133 79t-55 67l4 12q76 -8 153.5 -16t149.5 -15.5t132 -13.5t101 -8l39 -41q-2 -10 -3 -19.5t-1 -17.5q0 -18 5 -58t5 -65q0 -63 -49 -90q86 -45 135.5 -71.5t77 -40t39.5 -16.5t23 -3q31 0 47 15.5t16 33.5 q-14 102 -22 161.5t-8 84.5q0 45 4 73.5t14 49.5q39 8 68 8q106 2 141 17.5t35 31.5q0 25 -15.5 62.5t-25.5 60.5q-14 31 -39 42t-60 11q-43 0 -67.5 7.5t-38.5 19.5t-18.5 28.5t-4.5 34.5q0 72 11.5 128.5t11.5 91.5q0 117 3 211t3 143q0 29 -26.5 48t-73.5 36 q-33 10 -64 26.5t-39 16.5q-12 0 -18 -3t-6 -1q0 -27 -4 -83.5t-10.5 -127t-12.5 -147t-11 -140t-9 -108t-4 -48.5q0 -37 -6.5 -70.5t-32.5 -37.5q-324 23 -607 92v514q-12 8 -43.5 36t-67.5 58.5t-70 54t-52 23.5q-23 0 -34 -4t-19 -12q16 -88 24 -181.5t8 -150.5 q0 -23 -2 -68t-8 -90t-20.5 -78.5t-38.5 -33.5q-33 0 -54.5 8t-37 17t-27.5 16.5t-29 7.5q-10 -16 -13 -23.5t-3 -13.5z" />
<glyph unicode="&#xce;" horiz-adv-x="1372" d="M41 680q0 -152 52 -276.5t137 -215t193.5 -139.5t219.5 -49q123 0 197.5 36t117.5 81t59.5 85t20.5 46q94 0 152.5 41t89.5 105.5t41 144t10 157.5q0 129 -40 264.5t-113.5 246t-180 181t-239.5 70.5q-33 0 -58.5 -10t-50 -22.5t-53.5 -24.5t-68 -17q-6 -4 -21 -7 t-32.5 -7t-34 -7t-24.5 -7q-88 -47 -158 -122t-118 -167t-73.5 -192.5t-25.5 -194.5zM305 508q6 563 389 741q74 0 131.5 -40t99.5 -102.5t69.5 -138t44 -146t23.5 -128t7 -84.5q0 -8 -1 -50t-5 -90t-12.5 -86t-20.5 -38q-6 0 -13 12.5t-14.5 27.5t-12.5 31.5t-7 24.5v7 q-6 6 -9 17t-5 23.5t-4 22.5t-2 12q-2 4 -9.5 12.5t-14.5 16.5t-13 14t-6 8q-4 -16 -5 -14q0 -41 14.5 -88t14.5 -72q0 -35 -30.5 -59.5t-72.5 -39.5t-87 -21.5t-72 -6.5q-86 0 -152.5 30t-113.5 70t-75 78t-36 56z" />
<glyph unicode="&#xcf;" horiz-adv-x="1204" d="M41 1163q6 -51 57 -51q6 0 17.5 1l23 2t21.5 2t12 1q35 0 49.5 -10t14.5 -31q0 -43 -17.5 -124t-38 -168t-38 -161.5t-17.5 -103.5q0 -70 13.5 -141.5t45.5 -128.5q4 -4 6.5 -5t4.5 -3q10 -6 31.5 -22.5t21.5 -29.5q0 -14 -33 -14q-61 0 -61 -24l2 -9q0 -37 18 -45 q94 -68 152.5 -85t109.5 -17q-4 20 -9 64t-11 98.5t-12.5 115t-10.5 115.5t-7 98t-3 66q0 57 7 121.5t15.5 123t15.5 103.5t7 66q0 78 28.5 110.5t75.5 34.5q43 0 91.5 6t96.5 12.5t91 11.5t78 5q0 -14 -4 -77.5t-9.5 -152t-10.5 -188.5t-10 -187t-8 -147.5t-3 -68.5 q0 -31 12 -88.5t38 -112.5t63.5 -96t89.5 -41q31 0 43 32.5t12 75.5q0 25 -4 54.5t-4 37.5q0 20 10 57.5t22.5 75t22.5 69.5t10 42q-10 0 -25.5 6t-15.5 11q0 86 6 204.5t13.5 239.5t13.5 228.5t6 172.5q-10 31 -23.5 44.5l-23.5 23.5q-2 51 -11 71.5t-28 20.5 q-16 0 -36.5 -7t-65.5 -7q-47 -14 -61.5 -28.5t-16.5 -55.5q-49 -25 -129 -25q-53 0 -107.5 4t-79.5 4t-52 14.5t-52 31t-45 31t-29 14.5q-59 0 -112.5 -32t-99.5 -75t-82.5 -88t-61.5 -72z" />
<glyph unicode="&#xd0;" horiz-adv-x="1261" d="M41 1257q0 -61 13.5 -117.5t35 -105.5t47 -91t51.5 -77l13 -2q-4 41 -13 66q-16 61 -35.5 119.5t-19.5 103.5q0 43 15.5 68.5t38 39t49 17.5t51.5 4q18 0 45.5 -6t36.5 -14q-78 -90 -78 -254q0 -45 1 -72t1 -43q0 -14 1 -20.5t1 -12.5q0 -39 -2 -62.5t-4 -39t-4 -24.5 t-2 -15q0 -20 8 -38.5t8 -29.5q0 -18 -10 -23t-19 -5q-8 0 -21 14t-28.5 30.5t-31 31t-27.5 14.5q-14 0 -22.5 -15.5t-13.5 -39t-6 -49.5t-1 -44q0 -88 37 -132t69 -44q29 -10 49.5 -23.5t20.5 -50.5v-108q0 -41 2 -66.5t4 -40t6 -30.5q94 -70 203 -70q29 0 50.5 4t21.5 25 q0 39 -10.5 81t-23.5 78.5t-23.5 65.5t-10.5 45q0 29 11.5 42t49.5 17q133 14 251 54.5t205 109t138.5 165.5t51.5 226q0 141 -71 244t-179.5 169.5t-236.5 99t-245 32.5q-115 0 -198.5 -22.5t-139 -54t-83 -65.5t-27.5 -59zM514 643q10 61 12 193q0 14 3 72.5t8.5 127 t8.5 129t3 80.5q80 -6 162 -43t149.5 -95t109.5 -133t42 -159q-96 -102 -200.5 -147t-254.5 -45z" />
<glyph unicode="&#xd1;" horiz-adv-x="1200" d="M41 535q0 -117 25.5 -215.5t81 -169t143.5 -110.5t211 -40q125 0 242.5 49t210 125t148.5 166t56 170q0 10 -6 19.5t-20 11.5q-18 -33 -71.5 -64t-123.5 -58.5t-147.5 -52t-147.5 -42t-121 -27.5t-67 -10q-29 0 -63 4t-63.5 13t-49 25.5t-19.5 43.5q0 135 34 259 t97.5 232.5t153.5 198.5t205 156q68 -51 97.5 -97.5t29.5 -109.5q0 -59 -9.5 -101.5t-25.5 -74.5q49 4 97 28.5t86 64.5t61.5 91t23.5 108q-16 55 -25.5 88t-14.5 50.5l-7 24.5t-2 14q0 141 -143 141h-78q-47 4 -95.5 8t-97.5 4q-172 0 -266 -76q29 -14 51 -14q16 0 33.5 -4 t17.5 -12q-14 -23 -18 -28t-6 -7q-96 -37 -174 -124t-132.5 -197.5t-83 -232.5t-28.5 -228z" />
<glyph unicode="&#xd2;" horiz-adv-x="1173" d="M41 1298q0 -47 15.5 -75.5t42 -45t61.5 -21.5t76 -5q27 0 67.5 2t82.5 4t76 4t46 2t16 -12t4 -16q-20 -137 -26 -254t-10 -226q-37 90 -59.5 141.5t-35.5 104.5q-14 16 -18 36.5t-8 40t-13.5 37t-31.5 27.5l-4 -18q57 -164 92 -336t65 -383q0 -20 -9 -44.5t-21.5 -47.5 t-21.5 -41t-9 -25q0 -37 29.5 -64.5t71.5 -46t86 -27.5t73 -9q14 0 31.5 1t33 6t25.5 15.5t10 30.5q0 6 -8 22.5t-18.5 37t-18.5 40t-8 29.5q0 16 -1 85t-2 164t-2 204.5t-2 208t-2 172.5t-1 98q0 41 39 41q43 0 97 5t105.5 17.5t91 32t56.5 47.5q12 23 20.5 67t8.5 65 q-2 12 -3.5 27.5t-5.5 21.5q-41 -6 -117.5 -11.5t-170 -9.5t-194.5 -6t-191.5 -4t-160 -3t-102.5 -1q-20 0 -32.5 8t-22.5 19.5t-19.5 19.5t-21.5 8q-16 0 -26.5 -21.5t-15.5 -49t-7 -54.5t-2 -35z" />
<glyph unicode="&#xd3;" horiz-adv-x="1484" d="M43 1274q14 0 22.5 2t14.5 2q45 0 86 -56.5t81 -140.5t76.5 -183t74.5 -183t76 -140.5t77 -56.5q16 0 27.5 4t42.5 4q47 0 47 -12q0 -23 -22.5 -72t-49.5 -98t-48.5 -85t-17.5 -30q-27 -20 -57 -20q-57 0 -88 16.5t-49.5 35t-29.5 34.5t-25 16h-5q-14 -61 -32.5 -110 t-18.5 -88q0 -37 33 -58.5t81 -34t100.5 -16.5t90.5 -4q172 0 381 18q14 6 54.5 36t80 66t71.5 72.5t32 59.5v29q-12 -14 -59.5 -23.5t-103.5 -15.5t-108.5 -9.5t-76.5 -3.5h-4q-20 0 -21 25q195 213 352 604q311 219 316 541q0 14 -13.5 25.5t-33 18.5t-44 11t-44.5 4 q-41 0 -81 -18.5t-74 -45t-60.5 -58t-42.5 -58.5q-16 -29 -50 -99.5t-71 -150.5t-70 -152.5t-47 -107.5q-20 -47 -35.5 -80t-46.5 -33q-80 45 -128 121t-81 164t-58.5 178t-58 163t-82 119t-128.5 46q-57 0 -70 -29q-13 -27 -29 -37q-6 -10 -15 -27.5t-18.5 -35t-15.5 -30.5 t-4 -13zM1186 975q2 4 13 16.5t23.5 29.5t22.5 35.5t10 37.5v4q43 94 91 141v-2q0 -121 -129 -250l-23 -20z" />
<glyph unicode="&#xd4;" horiz-adv-x="1650" d="M41 721q0 -113 60.5 -205t150.5 -157.5t193.5 -101.5t191.5 -36q-18 -29 -35.5 -55.5t-28.5 -48.5q14 -18 46 -39t71 -38t80 -27.5t72 -10.5q47 0 53 25q10 33 20.5 58.5t20.5 41.5q12 18 17 45t5 49q55 20 108.5 40t94.5 41.5t66.5 45t25.5 49.5q190 0 273.5 88 t83.5 248q0 115 -47 209t-125 165t-176.5 117t-200.5 62q-8 2 -22.5 4t-28 5t-23.5 7.5t-10 10.5q0 20 -19.5 39.5t-49 36t-63.5 30t-63 23.5l-37 12q-16 0 -28 -7t-12 -17q4 -41 7 -83t3 -87q-104 0 -223 -41t-219.5 -113t-166 -170t-65.5 -215zM348 709q0 78 27.5 142 t76 118.5t115 97.5t146.5 76q-2 -63 -5 -124t-6.5 -122t-5.5 -128t-2 -142q0 -12 2 -44t5.5 -67t5.5 -66.5t2 -39.5q0 -4 -7.5 -9.5t-13.5 -5.5q-88 0 -151.5 34t-105.5 83t-62.5 102.5t-20.5 94.5zM969 467q0 10 2 61.5t4 124t5 155.5t5 156.5t4 128t2 70.5q43 -6 83 -37.5 t73 -79t59.5 -101.5t45 -107.5t28.5 -98t10 -71.5q0 -6 -1 -37t-6 -66t-14 -63.5t-26 -30.5q-27 23 -40 40t-17 32v4q-14 8 -20.5 24.5t-11.5 31.5t-14.5 27.5t-31.5 12.5q-4 0 -4 -12q0 -31 18.5 -66t18.5 -53q0 -10 -14.5 -29.5t-35 -40t-42 -35t-35.5 -14.5q-20 0 -21 21 q0 4 8 12q-14 12 -20 21.5t-12 19.5z" />
<glyph unicode="&#xd5;" horiz-adv-x="1429" d="M41 268q10 -14 13 -28.5t3 -34.5q0 -33 12.5 -66t22.5 -39q27 -16 56.5 -35.5t68.5 -19.5q55 0 114.5 43t115 103.5t105.5 125t91 109.5l33 -2q45 -43 99 -114.5t116.5 -140.5t133.5 -119t151 -50q35 0 53 7t28 22q8 78 14.5 124t9.5 72.5t4 37.5t1 20q0 20 -6 33.5 t-23 13.5q-10 0 -15 -13.5t-9 -29t-10 -28.5t-17 -13q-27 0 -64.5 24.5t-78.5 62.5t-81 84t-71.5 88t-51 73.5t-19.5 44.5q0 33 30.5 81t76.5 100t102.5 105.5t106.5 97.5t89 76.5l51 42.5l19 -51v-28q14 0 23.5 22.5t14.5 51t7 55t2 32.5q4 47 15.5 89t11.5 92q0 23 -24 46 t-46 23q-104 -14 -189.5 -75.5t-161 -143.5t-147 -169t-151.5 -152l-23 -5q-43 47 -82 120t-79 144.5t-85 129t-102 73.5q-31 0 -61.5 -17t-57 -44t-49 -60.5t-35.5 -66.5q8 -4 19 -4q6 0 15 7t18.5 15.5t17.5 15.5t12 7q25 0 56.5 -39t63.5 -97.5t61.5 -127t52 -129 t37 -103.5t14.5 -49v-8q-82 -109 -199 -212t-223 -200z" />
<glyph unicode="&#xd6;" horiz-adv-x="1306" d="M41 1407q0 -14 6 -20.5t12 -16.5q6 -14 12.5 -55t10.5 -93.5t6 -108.5t2 -101q0 -135 -14.5 -237.5t-14.5 -184.5q0 -115 19.5 -214.5t63.5 -172t117 -113.5t179 -41q141 0 243.5 32t174.5 114q27 -6 31 -24.5t4 -39.5q0 -37 -42 -69.5t-91 -61.5t-91 -52.5t-42 -43.5 q6 0 37.5 5t73.5 13t91.5 17.5t91.5 19.5t69.5 18.5t31.5 14.5l240 336q0 14 -7.5 27.5t-21.5 13.5q-23 0 -47.5 -5.5t-49 -11.5t-44 -12t-31.5 -6v428q0 74 15.5 140.5t32.5 123.5t32.5 101t15.5 71q0 80 -59 127q-51 31 -79 49.5t-44.5 27.5t-25.5 11t-21 2q-39 0 -51 -31 q0 -10 -1.5 -49t-3.5 -94t-5 -121.5t-5 -130t-3 -119t-1 -88.5v-407q-45 -70 -160 -70q-49 0 -74 -6l-26 -6h-94q-150 0 -213 39q-10 96 -13.5 199.5t-3.5 207.5q0 137 7.5 255t23.5 184q0 49 -19.5 94t-52 79.5t-72.5 55t-81 20.5q-14 0 -26.5 -3t-12.5 -17z" />
<glyph unicode="&#xd7;" horiz-adv-x="1732" d="M41 848q0 -33 7 -76t9 -67q2 -27 31 -58t73 -61.5t98 -59t106.5 -51t98.5 -36t73 -13.5q49 0 49 37l4 12q20 -4 67.5 -9t106.5 -11t123.5 -12.5t118 -10.5t86.5 -7l34 -3l39 -41q-2 -10 -3 -19.5t-1 -17.5q0 -18 5 -58t5 -65q0 -63 -49 -90q25 -27 67 -50.5t85 -42 t77.5 -28.5t45.5 -10q31 0 47 15.5t16 33.5q0 23 -9 40t-9 34q0 47 -6 98t-6 74q0 47 6 77.5t16 51.5q23 2 58.5 4t58.5 2q70 0 96.5 14.5t26.5 30.5q0 33 -11.5 64.5t-30 56.5t-44 40t-54.5 15q-43 0 -67.5 7.5t-38.5 19.5t-18.5 28.5t-4.5 34.5q0 74 4.5 157t10.5 161 t10 145.5t4 110.5q0 55 -100 84q-29 8 -39 11t-27 15q-16 10 -22.5 13.5t-14.5 3.5q-12 0 -17 -2t-9 -6q-29 -174 -39 -306.5t-10 -236.5q0 -39 -1.5 -77t-5.5 -68.5t-11 -50t-21 -19.5q-324 23 -607 92v514q-23 27 -51 55.5t-59 53t-62.5 41t-60.5 16.5q-23 0 -34 -1 t-19 -9q32 -170 32 -332q0 -25 -2 -71t-8 -91t-20.5 -76.5t-38.5 -31.5q-33 0 -54.5 8t-37 17t-27.5 16.5t-29 7.5q-10 -16 -13 -23.5t-3 -13.5z" />
<glyph unicode="&#xd8;" horiz-adv-x="1691" d="M41 215q0 -43 6 -58.5t13.5 -18.5t16.5 -2t15 -9q29 -43 67 -66.5t77.5 -36t77.5 -16.5t67 -8q68 0 155 9t164 9q35 -6 75 -10t77 -6t70 -2h51q6 0 24.5 3t47 6t62.5 6t71 3q96 0 152 -3t87 -6t44.5 -6t25.5 -3q47 0 69.5 21.5t38.5 54.5q12 4 21.5 18.5t17.5 30.5 t12.5 30.5t4.5 20.5q0 33 -4.5 48.5t-15.5 23.5t-27.5 15t-40.5 22q-27 43 -34 126t-7 169q0 80 5 185t11 209.5t11 197t5 143.5q0 29 -31.5 49t-88.5 35q-35 8 -47.5 11t-32.5 15q-18 10 -26.5 13.5t-18.5 3.5q-16 0 -22.5 -3t-6.5 -1q-16 -100 -28.5 -220t-20.5 -234 t-13.5 -205t-5.5 -134q0 -133 -1 -204.5t-7 -112.5q-2 -23 -8 -47.5t-16 -26.5l-201 22q-2 63 -4 153.5t-5 192t-6 206t-7.5 197.5t-8.5 167t-8 115q-25 35 -59.5 61.5t-69.5 44t-64.5 25.5t-41.5 8q-16 0 -25.5 -7t-13.5 -30q4 -45 8 -121t8 -171t8 -201.5t7 -212t5.5 -203 t4.5 -172.5q-2 -35 -2 -47q0 -10 -3 -19q-31 -10 -56 -14t-48 -4q-45 0 -86 7t-92 34q-2 0 -4 24.5t-3 62.5t-2 83t-1 86q0 188 11 370.5t15 370.5q0 14 -39 43t-88 57.5t-94 50t-59 21.5q-29 0 -42.5 -4t-23.5 -12q16 -115 26.5 -188.5t16.5 -144.5t9 -157t3 -225 q0 -35 -3 -82t-10 -96t-17.5 -94t-22.5 -74q-10 -23 -30.5 -68t-20.5 -94z" />
<glyph unicode="&#xd9;" horiz-adv-x="1759" d="M41 215q0 -43 6 -58.5t13.5 -18.5t16.5 -2t15 -9q29 -43 67 -66.5t77.5 -36t77.5 -16.5t67 -8q53 0 107.5 6t132.5 6q23 0 42 1t37 5q35 -6 75 -10t77 -6t70 -2h51q6 0 25.5 3t48 6t62.5 6t69 3q51 0 101 -3t93 -6t73 -6t42 -3q27 0 31 2q0 -25 -8.5 -49.5t-17.5 -46 t-17.5 -35.5t-8.5 -18l4 -29l164 131q29 104 45.5 163.5t25.5 90.5t11 42t2 19q-2 4 -10 23.5t-24.5 43t-34.5 23.5q-8 0 -12.5 -12t-10.5 -27.5t-14 -28.5t-27 -13q-18 0 -29.5 33.5t-19.5 81.5t-11 99.5t-3 86.5q0 51 3 142t8 190.5t10 192.5t8 149.5t3 60.5 q0 29 -31.5 49t-88.5 35q-35 8 -47.5 11t-32.5 15q-18 10 -26.5 13.5t-18.5 3.5q-16 0 -22.5 -3t-6.5 -1q-29 -178 -45 -310.5t-16 -236.5q0 -18 -1 -65.5t-3.5 -110t-5.5 -132t-7 -133t-10 -114.5t-14 -74l-199 14q-2 63 -4 153.5t-5 192t-6 206t-7.5 197.5t-8.5 167 t-8 115q-33 39 -68.5 65.5t-68.5 43t-59.5 23.5t-38.5 7q-16 0 -25.5 -7t-13.5 -30q4 -45 8 -121t8 -171t8 -201.5t7 -212t5.5 -203t4.5 -172.5q-2 -35 -2 -47q0 -10 -3 -19q-31 -10 -56 -14t-48 -4q-45 0 -86 7t-92 34q-2 0 -4 24.5t-3 62.5t-2 83t-1 86q0 188 11 370.5 t15 370.5q0 25 -38 54.5t-87 55t-95 44t-60 18.5q-29 0 -42.5 -4t-23.5 -12q16 -115 26.5 -188.5t16.5 -144.5t9 -157t3 -225q0 -76 -16 -139.5t-35.5 -124t-36 -119.5t-16.5 -125z" />
<glyph unicode="&#xda;" horiz-adv-x="1304" d="M43 1313q0 -10 11.5 -20.5t39.5 -10.5q35 0 83 5t87 5q33 0 53.5 -4t20.5 -18v-127q0 -37 -20.5 -55.5t-45.5 -18.5q-41 0 -70.5 -37t-35.5 -74q-4 -33 -7 -46t-3 -21q0 -18 3 -44t9 -48.5t15.5 -38t21.5 -15.5q-2 -4 9 10.5t28.5 32t37 33t33.5 15.5q20 0 21 -37 q0 -18 -4 -37t-4 -23q0 -14 6 -29.5t6 -31.5q0 -49 -2 -81t-2 -44q0 -80 5 -137.5t14 -98.5t24.5 -69.5t34.5 -50.5q-16 -16 -37 -17q-45 10 -82 17.5t-62.5 19.5t-40 32.5t-14.5 55.5q0 29 9.5 63.5t21.5 72.5t22.5 77t14.5 76l-13 -2q-8 -10 -21 -38t-29.5 -64.5 t-34 -78.5t-31 -82t-22.5 -74t-9 -54q0 -51 55.5 -89t129 -62.5t148.5 -37t115 -12.5q111 0 240 31.5t237.5 97.5t181.5 166t73 237q0 131 -49.5 231.5t-136.5 170.5t-204.5 110.5t-255.5 55.5q-41 4 -51 17t-10 42q0 14 11.5 40t23.5 56.5t23.5 65.5t11.5 68t-18.5 51 t-20.5 18q-27 0 -77 -8t-110.5 -20.5t-124 -29t-115.5 -32.5t-85 -30.5t-33 -24.5zM545 797q0 20 13 31.5t34 11.5q80 0 144.5 -8.5t120.5 -30t104.5 -59t93.5 -99.5q-6 -102 -49 -176t-110 -124t-146.5 -81t-157.5 -49q0 14 -1 45t-4 72t-7.5 90t-10.5 102q0 41 -3 84 t-7 80t-8 65.5t-6 45.5z" />
<glyph unicode="&#xdb;" horiz-adv-x="1619" d="M41 201q0 -55 54.5 -94t128 -63t149.5 -34t116 -10q111 0 240 31.5t237.5 97.5t181.5 166t73 237q0 131 -49.5 231.5t-136.5 170.5t-204.5 110.5t-255.5 55.5q-39 4 -50 17t-11 42q0 14 10.5 44t23.5 66t23.5 73.5t10.5 70.5t-17.5 39t-19.5 6q-80 0 -135.5 -17.5 t-102.5 -51.5q0 -20 -2 -50t-4 -64t-4 -69t-2 -63q0 -14 -11.5 -27.5t-26.5 -25t-31.5 -17.5t-24.5 -6q-25 0 -41.5 -25.5t-25.5 -57.5t-12 -59.5t-3 -31.5q0 -18 2 -44t6 -49.5t10 -40t17 -16.5q2 0 16 14.5t32.5 32t37 32t30.5 14.5q20 0 21 -37q0 -14 -4 -32.5t-4 -27.5 q0 -14 6 -29.5t6 -31.5q0 -31 -2 -72t-2 -53q0 -80 5 -137.5t14 -98.5t24.5 -69.5t34.5 -50.5q-16 -16 -37 -17q-86 0 -142.5 28t-56.5 97q0 29 9.5 63.5t20.5 72.5t22.5 77t15.5 76l-13 -2q-14 -37 -38.5 -92.5t-49 -111.5t-42 -106t-17.5 -81zM514 815q2 8 9 14.5t14 6.5 q86 -10 160.5 -21.5t136 -31t106.5 -52.5t72 -88q0 -94 -43 -167t-110.5 -125t-149.5 -86t-160 -52q0 96 -9.5 184t-9.5 201q-6 66 -9 126t-7 91zM1212 123q14 -18 45 -41t69 -42.5t77 -31.5t70 -12q18 0 31.5 13.5t20.5 31.5t11 39.5t4 38.5q0 33 -6 49t-6 45q0 31 8 68.5 t17.5 71.5t17.5 61.5t8 38.5q0 -2 -4 -2q-16 0 -27.5 6t-17.5 10q-4 170 -8 299t-8.5 229.5t-9.5 176t-11 141.5q0 37 -29.5 63.5t-66.5 44t-69 26.5t-34 11q-29 -2 -51 -12t-24 -31q37 -332 36 -829q0 -35 4.5 -82t4.5 -98q0 -174 -52 -283z" />
<glyph unicode="&#xdc;" horiz-adv-x="1261" d="M41 201q0 -63 54.5 -102.5t128 -61t149.5 -29.5t116 -8q111 0 240 31.5t237.5 97.5t181.5 166t73 237q0 131 -49.5 231.5t-136.5 170.5t-204.5 110.5t-255.5 55.5q-39 4 -50 17t-11 42q0 14 10.5 44t23.5 66t23.5 73.5t10.5 70.5q0 23 -11.5 34t-25.5 11 q-80 0 -135.5 -17.5t-102.5 -51.5q-8 -33 -10 -55.5t-2 -63.5v-127q0 -37 -6 -50.5t-33 -23.5q-37 0 -63.5 -25.5t-43 -58.5t-23.5 -60.5t-7 -31.5q0 -18 2 -44t6 -49.5t13.5 -39t21.5 -15.5q-2 -4 9 10.5t28.5 32t37 33t33.5 15.5q20 0 21 -37q-4 -35 -6 -45.5t-2 -14.5 q0 -14 6 -29.5t6 -31.5q0 -35 -1 -56.5t-1 -35.5q0 -12 -1 -19.5t-1 -13.5q0 -80 5 -137.5t14 -98.5t24.5 -69.5t34.5 -50.5q-16 -16 -37 -17q-57 0 -95 13.5t-61.5 33t-33 41t-9.5 37.5q0 29 9.5 63.5t20.5 72.5t22.5 77t15.5 76l-13 -2q-16 -47 -40.5 -102.5t-48 -109.5 t-41 -101t-17.5 -78zM514 815q6 16 23 21q86 -10 160.5 -12.5t136 -16.5t106.5 -50t72 -114q-2 -92 -45 -163.5t-109.5 -125t-148.5 -88.5t-160 -53q-23 84 -23 160q0 127 -2 205.5t-3 127t-3 71t-4 38.5z" />
<glyph unicode="&#xdd;" horiz-adv-x="1200" d="M41 510q0 -109 56.5 -201t142.5 -161.5t190.5 -108.5t200.5 -39q145 0 245.5 33t164 98.5t91 166.5t27.5 237q0 115 -32.5 219t-82 194t-106.5 162t-106.5 124t-82 82t-32.5 32q0 8 13 13t30.5 8t34 6t24.5 7q-94 76 -266 76q-31 0 -70 -3t-73.5 -6t-60 -6t-27.5 -3 q-10 0 -15.5 3t-7.5 3q-86 0 -123 -35t-37 -106q0 -2 -4 -22.5t-12 -29.5q-33 -57 -33 -125q0 -57 23.5 -108t61.5 -91t86 -64.5t97 -28.5q-18 31 -26 71.5t-8 87.5q0 76 29.5 124t97.5 100q80 -25 145.5 -74t117.5 -113.5t89 -142.5t55 -160l-141 -61q-23 -8 -68 -9 q-33 0 -66.5 4.5t-56.5 8.5l-28 -92q0 -20 46 -37t101 -17q59 0 102.5 10.5t76 22.5t56 22.5t42.5 10.5q0 -59 -7.5 -114.5t-27 -97.5t-54 -67.5t-88.5 -25.5q-96 0 -177 12t-156.5 41t-150.5 77t-159 122q-41 0 -51 -9.5t-10 -19.5z" />
<glyph unicode="&#xde;" horiz-adv-x="1558" d="M41 129q14 -18 45 -40.5t69 -42t76.5 -32t69.5 -12.5q53 0 61 33q0 55 -3 95t-3 89q0 45 8.5 84t17.5 68.5t17.5 51t8.5 32.5q25 29 47 53t39 43q14 -92 50 -188.5t94 -174t140 -128t189 -50.5q45 0 100 23.5t103.5 60.5t81 80t32.5 84q86 0 133 44t69.5 109.5t27 144.5 t4.5 151q0 125 -28 260t-88.5 246.5t-154.5 183t-227 71.5q-12 0 -24.5 -10t-29 -23.5t-39 -25.5t-53.5 -14h-2q-4 -4 -15 -7.5t-25.5 -7.5t-27.5 -7t-20 -7q-74 -49 -127 -123t-90 -160t-57.5 -177t-24.5 -173l-110 -84v-2l-11 -2q-10 -2 -10 -4v25q-4 199 -12 361.5 t-20 291.5q-18 31 -53.5 56.5t-72 44t-67.5 28.5t-43 10q-16 0 -25.5 -7t-13.5 -30q37 -332 37 -829q2 -27 5 -46.5t3 -33.5v-100q0 -174 -51 -283zM696 518q2 141 24.5 263t62.5 218.5t97.5 163t127.5 97.5q55 0 99 -36t78 -93.5t57.5 -128t37.5 -141t21.5 -134t7.5 -106.5 q0 -10 -1 -50.5t-4.5 -86.5t-10.5 -85t-17 -43q-16 41 -25.5 65.5t-14.5 39t-7 23t-2 16.5q-4 33 -4 35q-2 8 -15.5 26.5t-15.5 22.5h-4l-2 -25q0 -35 11 -79t11 -68q0 -35 -22.5 -58.5t-55 -39t-69.5 -22.5t-64 -7q-43 0 -96 18.5t-98 51t-76 74.5t-31 89z" />
<glyph unicode="&#xdf;" horiz-adv-x="1343" d="M43 276q0 -35 8 -82t22.5 -90t34 -73.5t42.5 -30.5q47 0 112.5 30.5t138 77t145 100.5t134 103t105.5 86t57 47q14 -14 20 -35.5t6 -41.5q0 -25 -8 -48q0 -82 32 -142t62 -83q49 -18 68.5 -21t30.5 -3q27 0 33 19.5t6 47.5q0 51 -2.5 125t-6.5 146.5t-8 131t-6 83.5 q8 12 28.5 25.5t43 27.5t40 31.5t17.5 37.5q0 39 -20.5 57.5t-42.5 41.5q-20 0 -30.5 -2t-17.5 -2q-16 0 -21 14t-5 47q0 57 -3 105.5t-15.5 82t-39 53t-77.5 19.5q-20 0 -46 8.5t-40 8.5t-24.5 -6.5t-16.5 -24.5q0 -12 -2 -16.5t-2 -6.5q0 -43 4 -79.5t8 -72.5t8 -75t4 -86 q0 -20 4 -40.5t4 -29.5q0 -41 -43 -41q-59 0 -128.5 35t-130 88.5t-101.5 115.5t-41 118q0 25 45 55.5t112.5 56t146.5 43t149 17.5q117 0 208 -24.5t160 -94.5q0 -35 -6 -56.5t-6 -29.5h14q39 51 68 109.5t29 123.5q0 53 -35 91t-90.5 63t-122 36t-129.5 11 q-178 0 -323.5 -42t-247 -108.5t-157 -148.5t-55.5 -164q0 -100 56.5 -160.5t142.5 -95t187.5 -50t191.5 -25.5v-25q-14 -12 -56 -46t-99.5 -76t-123 -88t-129 -84t-116 -62.5t-82.5 -24.5q-37 70 -56 70q-16 0 -16 -52z" />
<glyph unicode="&#xe0;" horiz-adv-x="1110" d="M41 279q0 -84 20.5 -132.5t51 -72t68.5 -28.5t75 -5q254 0 481 317q8 8 15.5 11.5t23.5 3.5q12 0 15 -25q-2 -12 -5.5 -42t-5.5 -64.5t-4 -67.5t-2 -51q0 -45 4 -83t16.5 -65.5t35 -43t59.5 -15.5q49 0 84 47t56.5 107.5t30.5 115t9 70.5q-12 -6 -20 -6q-10 0 -21.5 7 t-19.5 15q0 88 -7.5 160t-7.5 100q0 117 -10 163t-51 46q-23 0 -45.5 12.5t-45 29t-44.5 32t-47 21.5q-20 4 -40 6t-38 2q-68 0 -141.5 -25.5t-143.5 -68.5t-133.5 -99.5t-110.5 -120t-74.5 -128t-27.5 -123.5zM279 279q0 66 55 141.5t133 141t160 109.5t137 44h59v-2 q0 -66 -19.5 -138.5t-86.5 -140.5q-31 -27 -83 -60.5t-108.5 -63t-111 -50t-88.5 -20.5q-47 0 -47 39z" />
<glyph unicode="&#xe1;" horiz-adv-x="1216" d="M41 92q0 -51 15.5 -101t42 -92t64.5 -70t81 -34q37 6 49 21.5t12 38.5q0 41 3 67.5t20 30.5q106 -20 143 -26.5t45 -6.5q55 6 125 16.5t140.5 29t137 46t119 68.5t84 98.5t31.5 132.5q0 78 -51 151t-127 129t-165 90t-165 34q-47 0 -89 -12.5t-77 -26.5t-61.5 -26.5 t-42.5 -12.5q-25 0 -25 37q0 27 12 57q0 68 63.5 103.5t164.5 35.5q76 0 166 -11t171 -32.5t142 -53.5t82 -75q12 23 18.5 51.5t6.5 59.5q0 68 -25 132.5t-66 92.5q-41 27 -92 43.5t-103 25.5t-101.5 13t-83.5 4q-35 0 -89.5 -5t-116 -16.5t-124 -30.5t-113.5 -49t-83 -71 t-32 -94q0 -10 6.5 -17.5t14.5 -12.5t16.5 -9t12.5 -10q-37 -74 -61.5 -181.5t-24.5 -252.5q0 -74 -1 -119t-2.5 -69.5t-2.5 -36t-1 -17.5q0 -29 -26 -29q-10 2 -17.5 17.5t-7.5 23.5v4q-4 0 -7 -8t-4 -17t-1 -18v-10zM324 66v2q12 37 12 90q0 -2 -2 6t-2 26q-2 47 -3 62 l-1 16v47q0 57 33.5 90t83 50.5t107.5 22.5t107 5q121 0 205 -24.5t117 -73.5q-63 -76 -121.5 -139.5t-127 -110.5t-153.5 -73.5t-202 -26.5q-31 0 -42 8t-11 23z" />
<glyph unicode="&#xe2;" horiz-adv-x="1193" d="M41 178q0 -51 16.5 -101t44 -92t66.5 -70t82 -34q33 6 44 21.5t11 38.5q0 12 -2 23t-2 16q0 20 4 36.5t23 22.5q25 0 53.5 -5t55 -11.5t48 -11.5t31.5 -5q86 0 195.5 18.5t208 62.5t166 120t67.5 190q0 57 -28.5 109.5t-73.5 97.5t-97.5 82t-99.5 64q55 35 94 65.5 t63.5 63t36 70.5t11.5 87q0 90 -38 147.5t-94.5 89.5t-123 43t-123.5 11q-29 0 -79 -14.5t-108.5 -40t-120 -62t-111.5 -80t-82 -91.5t-32 -99q0 -10 6.5 -17.5t14.5 -12.5t16.5 -9t12.5 -10q-18 -37 -30.5 -76t-21 -85t-13.5 -101.5t-9 -126.5q-4 -76 -7 -127t-6.5 -85 t-4.5 -51.5t-1 -23.5q0 -29 -26 -29q-10 2 -17.5 17.5t-7.5 23.5q-8 -12 -10 -28.5t-2 -20.5zM324 152v2q6 18 12 48.5t6 57.5q-2 41 -9 80t-7 72q0 49 33.5 83.5t84 58.5t106.5 34t103 10q121 0 210 -34t118 -93q-8 -82 -68.5 -146.5t-147.5 -109.5t-190.5 -69.5 t-197.5 -24.5q-31 0 -42 8t-11 23zM350 760q8 74 42 141.5t83 119.5t111.5 85t130.5 41q115 0 156.5 -42t41.5 -120q0 -55 -39.5 -107.5t-87.5 -103.5q-73 27 -143 27q-47 0 -89 -12.5t-77 -26.5t-61.5 -26.5t-42.5 -12.5q-25 0 -25 37z" />
<glyph unicode="&#xe3;" horiz-adv-x="917" d="M41 272q0 -82 31.5 -137t86 -89t126 -49t149.5 -15q84 0 152.5 11t154.5 27q27 8 50.5 39t42 65t29.5 60.5t11 30.5q-2 2 -8 2t-25.5 -8t-46 -18.5t-57 -18.5t-57.5 -8q-23 0 -77 3t-116.5 17.5t-120 41t-85.5 73.5l8 29q45 16 94 26.5t99 19.5t100.5 20.5t97.5 29.5 q90 37 102 170q-41 10 -41 84q0 51 -35.5 88t-89 60.5t-114 34.5t-109.5 11q-41 0 -98 -7t-109.5 -24.5t-88.5 -47t-36 -76.5v-23q70 31 138 31q35 0 102.5 -8t134 -26.5t116.5 -49.5t50 -76q-16 -27 -63 -42t-109.5 -27.5t-131.5 -27.5t-126 -38.5t-94 -60.5t-37 -97z" />
<glyph unicode="&#xe4;" horiz-adv-x="1216" d="M35 -92q0 -82 47 -137.5t118.5 -88t155.5 -46t156 -13.5q33 0 88 5t116.5 16.5t124 31t114 49t83 70.5t31.5 94q0 20 -20.5 28.5t-28.5 21.5q20 16 34.5 66t25 116.5t17.5 143.5t10 145.5t4 124t1 79.5q0 29 27 29q10 0 16 -13.5t6 -21.5q0 -10 1 -17t3 -7t3 9t3.5 21.5 t3.5 23.5t1 13q0 51 -18.5 104.5t-50.5 96.5t-72 70.5t-83 27.5h-2q-16 0 -27.5 -19.5t-11.5 -41.5q0 -10 1 -15.5t1 -7.5q0 -37 -6 -53t-18 -22q-27 0 -49.5 5t-44 11t-45 11t-50.5 5q-57 0 -126.5 -7t-140.5 -24.5t-137.5 -46t-117.5 -72.5t-83 -103.5t-32 -137.5 t50.5 -150.5t127 -129t165 -90t165.5 -33.5q47 0 89 12t77 26.5t61.5 26.5t43.5 12q25 0 24 -36q-10 -111 -74.5 -154t-164.5 -43q-86 0 -174 4t-164 21.5t-134.5 52.5t-88.5 94q-16 -39 -23.5 -72.5t-7.5 -64.5zM236 358q27 117 92 186.5t149 105.5t179.5 47.5t183.5 11.5 q31 0 42 -8.5t11 -22.5v-2q-4 -20 -6 -54t-2 -69q2 -47 3 -63l1 -15v-47q0 -55 -34 -88t-83 -50.5t-107.5 -23.5t-107.5 -6q-59 0 -117.5 7t-103.5 19.5t-72.5 31t-27.5 40.5z" />
<glyph unicode="&#xe5;" d="M41 371q0 -109 40 -180.5t106.5 -114.5t155.5 -60.5t187 -17.5q86 0 152 18.5t118 56.5t96 99t87 147l-12 11q-111 -45 -239 -79t-253 -34q-117 0 -178 21.5t-61 91.5l4 55q2 23 18.5 31t38.5 8q31 0 68 -7t71 -7q76 0 110 2t64 6q4 0 9.5 -4t11.5 -4t26.5 6t43 13 t43 13.5t28.5 6.5q18 0 31.5 -7.5t26.5 -27.5q20 0 36.5 11t25.5 28.5t14 36t5 34.5q0 68 -32.5 131.5t-85 110.5t-119 75.5t-131.5 28.5h-2q-53 0 -88 -27.5t-49 -62.5q-184 -68 -275.5 -159t-91.5 -250zM309 610q0 10 3 15.5t10 17.5q23 47 51 68.5t63 21.5 q76 0 148.5 -28.5t105.5 -83.5q0 -47 -37 -48l-331 13q-12 12 -13 24z" />
<glyph unicode="&#xe6;" horiz-adv-x="1277" d="M43 655q0 -8 1 -15t5 -7q6 0 14.5 7t19.5 14.5t21.5 14.5t20.5 7q20 0 39.5 -19.5t40 -47t42 -58.5t46.5 -53q12 -12 32.5 -34t41 -42.5t36 -36.5t15.5 -20v-23q-80 -68 -162 -93.5t-168 -25.5q0 -16 6 -48t17.5 -62.5t30 -54t42.5 -23.5q25 0 70 21.5t97 53t103.5 67.5 t88.5 67q6 6 24 6q14 0 15 -10q0 -14 -1 -46t-2 -66t-3.5 -60.5t-2.5 -32.5q0 -10 3.5 -21.5t7.5 -11.5q12 0 37.5 -3t52.5 -3q31 0 54.5 8t23.5 35t-3.5 42t-8.5 27.5t-8 27.5t-3 42v84q37 -18 92.5 -55t113.5 -75t108.5 -65.5t76.5 -27.5q25 0 43.5 25.5t31.5 56.5 t21.5 58.5t12.5 31.5q-4 16 -8 16q-18 0 -31 -16q-74 14 -154 47t-145 88v23q6 6 19.5 20t30.5 32.5t36.5 39t36.5 37.5q170 170 223 290q-6 14 -20.5 33t-32 34t-37 25.5t-37.5 10.5q-43 0 -69.5 -23.5t-45 -52.5t-29 -57.5t-18.5 -36.5q0 -12 -24.5 -47t-57 -71 t-65.5 -63.5t-49 -27.5q-4 0 -13.5 2t-9.5 6v361v16t-2 25l-6 26q0 8 4 17.5t4 13.5q0 23 -31.5 37t-58.5 20q-12 0 -20.5 -16t-13.5 -37.5t-8 -44.5t-3 -35l-14 -387q-4 -6 -11 -6q-4 0 -8 -2q-31 0 -73 33.5t-80.5 79t-67.5 90.5t-35 67q0 -4 -8 11.5t-21.5 36t-29 37 t-29.5 16.5q-23 0 -49.5 -28t-51 -64.5t-45 -74.5t-28.5 -57z" />
<glyph unicode="&#xe7;" horiz-adv-x="1134" d="M221 -231q0 -39 56.5 -67t128 -45t140 -25.5t93.5 -8.5q94 0 174 27.5t138.5 82t91 136.5t32.5 190q0 49 -27.5 78t-63.5 45.5t-70.5 24.5t-51.5 18q-10 6 -10 15q0 14 29.5 27.5t64.5 28.5t64.5 33.5t29.5 41.5q-23 80 -39 157.5t-47.5 139t-90 99.5t-165.5 38 q-47 0 -101 -24.5t-100 -68.5t-76 -105.5t-30 -137.5q0 -29 70 -51q16 43 30.5 92t36 90t54 68.5t84.5 27.5q51 0 83.5 -28.5t52 -65.5t27 -69.5t7.5 -40.5q0 -55 -14.5 -93.5t-37 -65t-52.5 -44t-60 -31.5q0 -45 30.5 -69.5t68.5 -41t68.5 -32t30.5 -41.5q0 -72 -17 -123 t-47 -83t-71 -46.5t-88 -14.5q-31 0 -62.5 4.5t-59 8.5t-48 8t-28.5 4q-16 0 -26.5 28.5t-23 62.5t-32 62.5t-50.5 28.5q-16 0 -33.5 -32.5t-30.5 -74.5t-22.5 -82t-9.5 -56z" />
<glyph unicode="&#xe8;" horiz-adv-x="1007" d="M41 922q18 -51 31.5 -144.5t21.5 -200t12.5 -211t4.5 -176.5q12 -35 36.5 -63.5t53 -52t57.5 -40t49 -24.5q51 4 95 30t84 63.5t79 86t82 97.5l25 -4q4 -8 8 -16.5t4 -18.5q0 -25 -1 -56.5t-2 -60.5t-2 -48.5t-1 -21.5q0 -57 39 -101t143 -44q18 -6 45 -6q2 0 12.5 1 t21.5 3t19.5 5t8.5 9q0 16 -12.5 36t-14.5 44q-43 346 -43 492q0 72 3 105.5t13 53.5q31 41 39.5 75t8.5 42t-19.5 21.5t-47.5 27t-55.5 22.5t-39.5 9q-35 0 -70 -33q-6 -25 -26.5 -70.5t-52.5 -99t-71.5 -109t-82.5 -100.5t-87 -73.5t-85 -28.5q-23 0 -29 16q0 84 -2 148.5 t-6 117t-8.5 97.5t-8.5 88q-8 25 -16 39t-18 22q-16 6 -37 16.5t-42.5 19.5t-42 16.5t-34.5 7.5q-16 0 -39 -8z" />
<glyph unicode="&#xe9;" horiz-adv-x="1007" d="M41 922q23 -86 38 -205t15 -275q4 -80 7 -142t10 -110q0 -33 23.5 -61.5t55 -53t64.5 -41t53 -24.5q39 6 81 32t85 63.5t87 85t87 96.5q16 0 26.5 -14.5t10.5 -24.5q0 -14 -1 -42t-2 -56.5t-2 -54t-1 -34.5q0 -74 58.5 -112.5t168.5 -38.5q14 2 38 7t24 11q0 16 -12.5 36 t-14.5 44q-43 346 -43 492q0 72 3 105.5t13 53.5q31 41 39.5 75t8.5 42q0 12 -20.5 26.5t-47.5 27t-54.5 19.5t-39.5 7q-35 0 -70 -33q-6 -25 -26.5 -70.5t-52.5 -99t-71.5 -109t-82.5 -100.5t-87 -73.5t-85 -28.5q-23 0 -29 16q-2 88 -4 154t-4 119t-5 97t-8 87 q-16 25 -43.5 45.5t-57.5 35.5t-55.5 24.5t-37.5 9.5q-16 0 -39 -8zM375 791q0 -4 8 -5.5t19.5 -3.5t19.5 -6t8 -12q-6 -23 -7 -28t-1 -7q0 -8 10 -11t27 -3q27 0 57.5 8t40.5 18q33 35 52.5 55.5t28.5 34t11 23.5t2 23q0 47 -17.5 58t-43.5 11l-207 -149q-8 -4 -8 -6z" />
<glyph unicode="&#xea;" horiz-adv-x="962" d="M41 350q0 -4 8 -10t17.5 -14.5t17.5 -15.5t8 -11q0 -14 4 -29.5t4 -36.5l-4 -118q4 -12 4 -13v-28q-4 -12 -5 -22.5t-3 -18.5q0 -8 3 -20.5t9 -12.5l109 49q12 31 21.5 53.5t9.5 36.5q10 49 26.5 81t40.5 32q57 -31 125 -69t131.5 -70.5t118.5 -54t90 -21.5 q29 0 52.5 25.5t40 56.5t27.5 58.5t15 31.5q-4 16 -10 16q-23 0 -39 -16q-92 14 -191.5 47t-181.5 88v23q47 39 115 96t133.5 116.5t116.5 115t68 91.5q-10 16 -26.5 34t-38 33t-45.5 24.5t-48 9.5q-35 0 -78 -26.5t-85 -61.5t-74.5 -70t-47.5 -53q2 2 11.5 9t21.5 15.5 t23.5 14.5t19.5 6q4 0 10 -6t6 -10q0 -18 -33.5 -50t-77.5 -65t-86 -56.5t-59 -23.5q-20 0 -28 8v397q-4 23 -6 42.5t-11.5 35t-31 25.5t-64.5 16l-41 -12l-33 -41v-532q-4 -10 -13 -21.5t-19.5 -24t-18.5 -24.5t-8 -23v-6z" />
<glyph unicode="&#xeb;" horiz-adv-x="872" d="M43 16q0 -29 10 -32h29l22 16l132 88q37 86 78.5 223.5t99.5 302.5l26 -16q47 -111 77 -185.5t47.5 -127t24.5 -86t9 -60.5q-27 18 -59.5 63.5t-67.5 80.5v-9q0 -70 16.5 -116.5t41 -76.5t52 -43t50.5 -13q98 0 149 51t51 117q0 49 -9 90t-24.5 79.5t-32.5 77.5t-34 84 q-6 14 -17.5 47t-26.5 75t-33.5 86t-39 82t-42 61.5t-40.5 23.5q-14 0 -30.5 -8t-26.5 -14q-35 -12 -50 -31t-24.5 -40.5t-20.5 -47t-38 -51.5q-35 -10 -56.5 -34t-40 -57.5t-34.5 -75.5t-39 -91q-6 -18 -26.5 -75t-43 -123.5t-41 -132t-18.5 -102.5z" />
<glyph unicode="&#xec;" horiz-adv-x="1445" d="M41 147q0 -29 6 -63.5t24.5 -64t50.5 -50t83 -20.5q16 0 23.5 3t15.5 3q47 160 87 273.5t73.5 184t63.5 103.5t56 33q61 -98 85 -174t34 -144.5t16.5 -136t30.5 -147.5q94 6 133 69q16 31 26.5 92.5t25 123t35 108.5t57.5 47q23 0 28 -14q61 -150 96 -236t51.5 -129 t20.5 -54l4 -11h4q10 -2 35 -5.5t51.5 -7.5t47 -7t22.5 -3q53 0 78 27q-8 27 -28.5 90t-48.5 143t-58.5 167t-57 164t-46 135.5t-23.5 78.5q-14 29 -30.5 49.5t-39.5 20.5q-43 0 -73.5 -42t-47.5 -89q-8 -25 -22.5 -58t-30.5 -62.5t-31.5 -50t-27.5 -20.5q-27 82 -58.5 157 t-72.5 140q-8 6 -15.5 7t-13.5 1q2 -2 -19.5 -7t-42.5 -21l-65 -29q0 33 22.5 63.5t22.5 57.5q0 20 -18.5 33.5t-63.5 13.5q-12 -2 -39.5 -12.5t-60.5 -30t-67 -46t-54 -63.5q-41 -68 -85 -135t-82 -140t-62.5 -151t-24.5 -164z" />
<glyph unicode="&#xed;" horiz-adv-x="952" d="M47 158q0 -33 14.5 -67t35 -61.5t43 -45t40.5 -17.5q6 0 27.5 12.5t44 29t40 32.5t17.5 25q-16 8 -22 13t-6 11q0 109 24 217q6 43 55.5 62.5t110.5 19.5q39 0 78 -6t67.5 -18.5t47 -31t18.5 -40.5q-8 -63 -14 -104.5t-11.5 -67t-8.5 -39.5t-3 -23q0 -16 13.5 -25 t31 -13.5t34.5 -5.5t28 -1q66 0 106.5 27.5t40.5 56.5v508q8 49 10 69.5t2 31.5q0 66 -12 89t-65 23q-25 0 -51.5 17.5t-45.5 17.5q-27 0 -26 -59q0 -82 -14.5 -135.5t-38 -85t-53.5 -45t-58 -13.5h-131q-16 0 -25.5 -9t-17.5 -9q-14 0 -25.5 26.5t-20 60t-13.5 65.5t-5 40 q4 53 6 84t2 47q0 20 -11 33.5t-26.5 20t-35 8.5t-33.5 2q-10 0 -35.5 -1t-54.5 -4t-50.5 -10.5t-21.5 -21.5q0 -20 6 -67.5t13.5 -100.5t13.5 -101.5t6 -72.5q0 -4 -6 -50t-14.5 -104.5t-14.5 -115t-6 -78.5z" />
<glyph unicode="&#xee;" horiz-adv-x="966" d="M41 426q0 -96 27.5 -176t79 -137.5t123 -89t157.5 -31.5q88 0 177 35.5t161 97t116 142.5t44 171q0 74 -10.5 145.5t-41 127t-85 90.5t-142.5 35q-49 0 -100 -14.5t-91 -42t-65.5 -68.5t-25.5 -95q0 -12 12 -23t24 -11q72 29 123 43t94 14q49 0 91 -18q-2 -80 -17.5 -158 t-53.5 -139.5t-103.5 -99.5t-169.5 -38q-41 0 -69 39t-43 92.5t-21.5 108.5t-6.5 90q0 76 29 132.5t76 100.5t106.5 81.5t120.5 78.5q-119 0 -214 -47t-162.5 -118.5t-103.5 -156.5t-36 -159v-2z" />
<glyph unicode="&#xef;" horiz-adv-x="976" d="M41 866q29 -135 36 -271t11 -304q-25 -35 -25 -105q0 -98 39 -143t119 -45h17q8 0 18 2q20 66 30.5 121t10.5 127v94q0 25 24.5 68t58.5 90t67.5 88t52.5 63q20 25 39 25q12 0 24 -4t15 -13q2 -68 4 -125t5 -108t7 -100.5t10 -104.5q4 -29 13.5 -66.5t27 -71.5t42 -56.5 t58.5 -22.5q41 0 76 33t60.5 75t40 80.5t14.5 49.5l-2 16q-14 -23 -28.5 -37t-22.5 -14q-4 0 -15.5 5t-13.5 9q-10 47 -15 92t-9.5 97.5t-10.5 117t-14 148.5q-6 61 -51 106t-117 45q-49 0 -98.5 -26.5t-92.5 -57t-74.5 -57.5t-45.5 -27q-35 0 -50.5 25t-15.5 53 q0 72 -49 107t-107 35q-33 0 -63 -11v-2z" />
<glyph unicode="&#xf0;" horiz-adv-x="1054" d="M39 883q0 -10 9 -21.5t15 -17.5q14 -18 17.5 -26.5t3.5 -16.5q14 -92 23.5 -186.5t13.5 -174.5t6 -140t2 -87q0 -45 -12 -45q-6 0 -21.5 18.5t-19.5 18.5q-14 -4 -17.5 -24.5t-3.5 -24.5q0 -33 23.5 -71t50.5 -56q8 -31 8 -78q-4 -70 -6 -104.5t-2 -51.5 q0 -35 12.5 -71.5t36 -67.5t57 -50.5t76.5 -19.5q27 0 43 17l-24 364l20 23q61 -18 137 -19q66 0 156 23.5t173 70t140.5 116t57.5 161.5q0 90 -20.5 182t-71 168t-134 123t-210.5 47q-59 0 -101.5 -31.5t-71 -81t-50 -106.5t-42.5 -106q-18 0 -26 55q-10 61 -25.5 115.5 t-38 96.5t-57.5 66.5t-86 24.5h-35q-6 -6 -6 -12zM322 342q0 61 14 119.5t42 102.5t69.5 72t97.5 28q121 0 176 -40t55 -132q0 -74 -48 -142.5t-114.5 -122t-138.5 -86t-117 -32.5h-20q-6 80 -9 123.5t-4 67.5t-2 31t-1 11z" />
<glyph unicode="&#xf1;" horiz-adv-x="913" d="M41 365q0 -72 19.5 -138.5t59.5 -118t98 -82t136 -30.5q80 0 153 11t135.5 38t113.5 72t88 112q6 31 17 66t11 55q0 35 -16 35q-43 -59 -113.5 -99t-146.5 -64.5t-147.5 -35t-116.5 -10.5q-23 0 -52.5 8.5t-56 23.5t-45 36.5t-18.5 50.5q0 53 25.5 117.5t77.5 121 t132 94.5t189 38q43 0 71.5 -28t53 -59.5t52 -59t68.5 -27.5q35 0 35 45q0 51 -25.5 110.5t-61.5 109.5t-74.5 82.5t-67.5 32.5l-82 -41q-109 0 -203 -32.5t-162.5 -94t-107.5 -147.5t-39 -192z" />
<glyph unicode="&#xf2;" horiz-adv-x="1419" d="M25 686q0 -23 1 -71t3 -109.5t4 -128t4 -123.5t3 -99t1 -57q33 -41 54.5 -64.5t33.5 -34.5t19.5 -14t13.5 -3q20 0 33 20q27 41 64.5 116t79.5 156.5t83 154.5t76 112q45 0 45 -49q-2 -59 -3 -77t-1 -26q0 -57 2 -112.5t13 -99.5t33.5 -70.5t65.5 -26.5q25 0 54.5 27.5 t62.5 69.5t68.5 91t71.5 93.5t70 77t67 40.5q16 0 23 -19.5t7 -31.5q0 -74 -3 -136.5t-3 -121.5q0 -45 2 -89t13.5 -79t37 -56.5t72.5 -21.5q141 43 182 121q-6 25 -12 60.5t-10 73.5t-6 74t-2 62q0 68 -2.5 142.5t-12.5 136t-31.5 102.5t-62.5 41q-51 0 -105.5 -18.5 t-106.5 -48t-102.5 -66.5t-93.5 -72q-10 27 -18 68t-8 94q0 57 -4 95t-19.5 60.5t-43 31t-72.5 8.5q-14 0 -20.5 1t-8.5 1q-121 -82 -196.5 -203t-129.5 -264h-8l-6 -2q-2 0 -7 2t-5 8v68q0 29 -1 49t-2 36.5t-1 35.5q-10 131 -25 202q-61 100 -207 123v-2q0 -14 -4 -50 t-8 -76t-8 -78t-4 -54z" />
<glyph unicode="&#xf3;" horiz-adv-x="956" d="M41 -365q0 -45 41 -79.5t94 -34.5q18 0 53 10t70 22.5t65.5 25.5t43.5 20l10 30q-20 27 -21 60q0 31 15.5 65.5t38 63t48 48t46.5 19.5q37 0 73.5 24.5t68.5 58.5t57.5 68l37.5 50q2 51 10.5 134t23.5 180.5t40 199.5t59 193q0 35 -27.5 59.5t-92.5 34.5h-2 q-31 -12 -62 -49t-61.5 -87.5t-61 -107.5t-58.5 -110.5t-54.5 -97.5t-49.5 -66q-82 43 -119.5 107.5t-61 132t-47 128t-75.5 94.5q-27 0 -43 -11t-25 -28.5t-12.5 -38t-3.5 -36.5q2 -68 8.5 -133.5t24 -129t47 -124t80.5 -117.5q78 -90 84 -141q-115 -182 -188.5 -292 t-73.5 -145zM666 164q0 33 14 74t34.5 82.5t45 81.5t43.5 69q-8 -98 -32.5 -187.5t-65.5 -144.5l-13 -4q-27 0 -26 29z" />
<glyph unicode="&#xf4;" horiz-adv-x="1056" d="M41 358q0 -86 39 -153.5t99.5 -113.5t136 -70.5t149.5 -24.5q8 -29 15 -54.5t7 -47.5q0 -27 -12 -43.5t-27.5 -38t-27.5 -54t-12 -92.5q0 -37 13 -68.5t44 -31.5q55 0 86 41t47 97t21.5 116.5t7.5 101.5q2 39 4 61.5t4 32.5q43 8 97 34t105.5 60.5t94.5 74.5t65 79 q18 51 19 107q0 29 -6 64.5t-16.5 72.5t-25 69.5t-30.5 57.5q-27 41 -89.5 55.5t-139.5 14.5q-33 0 -47.5 2t-24.5 8t-22.5 19.5t-43.5 37.5q-25 20 -52 26.5t-54 6.5h-12q2 -16 5 -28.5t5 -22.5q-4 -2 -32 -9.5t-62.5 -17.5t-69.5 -22.5t-49 -22.5q-100 -55 -154.5 -136.5 t-54.5 -187.5zM240 455q0 33 16 70.5t46 68.5t71 51.5t90 20.5q8 0 8 -7q-33 -23 -53.5 -60.5t-20.5 -76.5q0 -12 13.5 -21t27.5 -9q16 0 28 4l13 4q0 -68 -1 -116t-1 -85q0 -35 -1 -60.5t-1 -43.5q0 -51 -35 -52q-74 0 -114.5 41t-59 93.5t-22.5 103.5t-4 74zM653 152 q10 106 18.5 187t8.5 169q0 31 10 51.5t45 20.5q53 0 74.5 -30t21.5 -75q0 -12 -4 -58t-21.5 -100.5t-53 -102.5t-99.5 -62z" />
<glyph unicode="&#xf5;" horiz-adv-x="997" d="M45 201q0 -33 12.5 -73t30.5 -76t41 -60.5t45 -24.5q6 0 27.5 14.5t44 32t40 32.5t17.5 20q-16 8 -22.5 13t-6.5 11q0 33 29 63.5t63.5 52t62.5 35t26 13.5q37 0 71.5 -32t67.5 -70.5t63.5 -70.5t59.5 -32q45 0 78.5 34t55 81t32 97t10.5 85q0 47 10 89t21.5 81t21.5 79 t10 85q0 55 -30.5 97t-98.5 42q-80 0 -221 -110q-12 -10 -26.5 -23.5t-28.5 -26t-27.5 -21.5t-23.5 -9q-20 0 -43 18.5t-44.5 44t-39 53t-23.5 46.5l-35 94h-16q-18 0 -48 -16.5t-30 -45.5q0 -86 33 -179t72 -157q-14 -35 -50 -72.5t-79 -76.5t-85 -74t-67 -63zM614 397 q10 20 45 55t75 69t76 59.5t48 25.5h23q12 0 12 -20q0 -74 -3 -123t-14.5 -88t-32 -74t-55.5 -80q-43 16 -86 68.5t-88 107.5z" />
<glyph unicode="&#xf6;" horiz-adv-x="1050" d="M41 635l2 -17q23 33 32 42.5t13 9.5t17.5 -3t17.5 -12q27 -53 38 -174t11 -280q0 -63 48 -107.5t120 -44.5q49 0 98 26.5t92 57.5t75 57.5t46 26.5q31 0 48.5 -8t25.5 -23.5t9 -35t1 -41.5q0 -43 23.5 -64.5t60.5 -38.5q-16 -25 -25.5 -52.5t-9.5 -47.5l4 -29l150 137 l39 142q23 12 28 18t5 10q0 39 -12.5 59.5t-24.5 20.5t-26.5 -9t-29 -21.5t-27.5 -21.5t-22 -9l21 383q25 33 24 104q0 98 -38.5 143.5t-118.5 45.5l-35 -2q-23 -66 -32 -138.5t-9 -156.5q0 -41 3 -79t3 -73q0 -31 -25.5 -59.5t-59.5 -54t-68.5 -48t-55.5 -43.5 q-10 -10 -16 -17t-10 -7q-47 0 -52 16q-4 68 -5 125t-4 108.5t-7 100.5t-10 104q-4 29 -13.5 67t-27 71.5t-42 56t-59.5 22.5q-41 0 -75.5 -32.5t-60 -74.5t-40 -81t-14.5 -49z" />
<glyph unicode="&#xf7;" horiz-adv-x="917" d="M41 272q0 -82 31.5 -137t86 -89t126 -49t149.5 -15q88 0 161 8t146 30q23 25 46.5 59t42 64.5t29.5 52.5l11 21q-6 0 -25.5 -8t-46 -18.5t-57 -18.5t-57.5 -8q-57 0 -114.5 3t-109.5 16.5t-98.5 41t-80.5 74.5q6 18 26.5 30.5t49 20.5t59 12.5t57.5 8.5q53 8 104.5 20 t102.5 33q45 18 73.5 61t28.5 109q-25 6 -24 33q0 8 6 23.5t14 33.5t15.5 35.5t9.5 32.5q0 14 -10.5 19t-20.5 5q-18 0 -40.5 -15.5t-51.5 -33.5t-62.5 -33.5t-70.5 -15.5q-66 0 -109 18.5t-78.5 42t-69.5 47t-79 35.5l-72 -182q0 -20 21 -21q23 0 53.5 18.5t52.5 18.5 q10 0 15 -10q12 -35 66 -45t120 -10q51 0 98 3t78 5q-27 -51 -69 -67.5t-97 -21.5t-121.5 -12.5t-142.5 -37.5q-76 -33 -124 -80t-48 -107z" />
<glyph unicode="&#xf8;" horiz-adv-x="1540" d="M41 770q8 -27 22.5 -38t30 -20.5t26.5 -21.5t11 -41q0 -10 -5 -67.5t-10 -125t-10.5 -125t-5.5 -65.5q0 -39 3 -81t15.5 -77.5t35 -59t59.5 -23.5q68 0 122 39.5t102 92t96.5 104.5t105.5 75q20 -49 27 -162q2 -59 7 -96t18.5 -59.5t40 -30.5t73.5 -8q68 0 121 54t95 129 t75.5 153.5t62.5 127.5q6 6 15 7q2 0 7 -4.5t5 -10.5q0 -121 6 -210t22 -181q61 -100 207 -123l78 176q0 16 -12 17q-10 0 -22.5 -10.5t-22.5 -10.5q-16 0 -17 23v119v137v141q0 70 1 125t1 90q0 37 3 41q-29 59 -69 88t-52 29q-20 0 -33 -21q-27 -41 -56.5 -110.5 t-66.5 -146.5t-81 -152.5t-99 -128.5q-45 0 -45 49q2 74 4 130t5 101t5 81t2 69q0 84 -17.5 128t-82.5 44q-37 0 -66.5 -34t-59.5 -87t-60.5 -116.5t-65.5 -124t-77 -108.5t-95 -71q-14 0 -20.5 19.5t-6.5 31.5q0 68 -3 155t-14 165t-35 131t-67 53q-37 0 -73.5 -19.5 t-69.5 -47t-56.5 -57t-33.5 -50.5z" />
<glyph unicode="&#xf9;" horiz-adv-x="1597" d="M41 770q8 -27 22.5 -38t30 -20.5t26.5 -21.5t11 -41q0 -47 -3 -122.5t-3 -159.5q0 -63 3 -125t13.5 -110t26.5 -77.5t45 -29.5q68 0 122 39.5t102 92t96.5 104.5t105.5 75q20 -49 27 -162q2 -59 7 -96t18.5 -59.5t40 -30.5t73.5 -8q49 0 91 33.5t79 85t67.5 111.5 t55 111.5t44 87t32.5 37.5q2 0 7 -2t5 -8q0 -41 1 -68.5t1 -48.5q0 -20 1 -36.5t1 -34.5q0 -123 39 -192.5t151 -88.5q0 -25 -22.5 -42t-49 -31.5t-49 -26.5t-22.5 -23q0 -4 -1 -11t-1 -21q0 -27 12 -27q86 0 136.5 15.5t79 44t39.5 72.5t20 99q16 14 25 26.5t9 29.5 q0 37 -10 62.5t-28 25.5q-12 0 -20.5 -6.5t-16.5 -13.5t-15.5 -13t-19.5 -6q-8 0 -13.5 29.5t-9.5 69.5t-6 77t-2 53q0 70 2 136.5t4 123t5.5 98.5t3.5 62q-6 31 -23.5 52.5t-37 35.5t-37 21.5t-23.5 7.5q-20 0 -33 -21q-76 -289 -272 -522q-8 -12 -31 -16q-45 0 -45 49 q2 74 4 130t5 101t5 81t2 69q0 82 -17.5 127t-82.5 45q-10 0 -21.5 -4t-21.5 -8q-18 -37 -47 -91.5t-64 -113t-72.5 -116.5t-74.5 -104.5t-69 -75t-54 -28.5q-14 0 -20.5 19.5t-6.5 31.5q0 68 -4 155t-16.5 165t-36 131t-62.5 53q-37 0 -73.5 -19.5t-69.5 -47t-56.5 -57.5 t-33.5 -50z" />
<glyph unicode="&#xfa;" horiz-adv-x="1036" d="M45 907q0 -18 23 -18q14 0 36.5 7t46 16.5t44 16.5t32.5 7t13 -10q-4 -10 -16.5 -42t-27 -77t-24.5 -96.5t-10 -102.5q0 -39 1 -82t4 -85t9 -79.5t17 -66.5l-31 -217q18 -41 43 -41q18 0 35.5 9t34 21.5t32 21.5t31.5 9q14 -4 30.5 -18t36 -29.5t43 -27t52.5 -11.5 q66 0 150.5 20.5t161.5 61.5t130 101.5t53 140.5q0 70 -33.5 129t-87 102t-121 67.5t-137.5 24.5q-68 0 -110.5 -39.5t-95.5 -109.5l-29 -2q-12 61 -12 156l24 374l-65 27q-35 0 -84 -12.5t-93.5 -34t-75 -50t-30.5 -61.5zM377 371q0 25 9 55.5t28.5 57t48.5 45t67 18.5 q35 0 74 -20.5t71 -52.5t53.5 -67.5t21.5 -66.5q0 -41 -31 -68.5t-77 -44t-100.5 -24.5t-99.5 -10q-6 6 -7 20t-1 16q0 55 58 107l-17 10l-82 -53q-4 14 -10 39t-6 39z" />
<glyph unicode="&#xfb;" horiz-adv-x="1249" d="M41 567q0 -31 2 -68.5t7 -74.5t11.5 -69.5t14.5 -55.5l-31 -217q18 -41 43 -41q37 0 72 31q33 31 61 30q14 -4 29.5 -18t36 -29.5t44 -27t52.5 -11.5q63 0 149 20.5t163 61.5t130.5 101.5t53.5 140.5q0 70 -33 129t-87 102t-122 68t-137 25q-68 0 -111 -40t-96 -110 l-29 -2q-12 61 -12 156q0 102 12 213q2 41 4 70.5t4 49.5l4 41q0 12 -12 18.5t-22 6.5h-2q-57 -10 -92 -36.5t-53.5 -60.5t-25 -72t-6.5 -69q-6 -45 -11 -78.5t-7 -62.5t-3 -57.5t-1 -63.5zM260 375q0 25 9.5 55.5t28.5 57t48 45t68 18.5q72 0 114.5 -20.5t66 -52.5 t31 -67.5t7.5 -66.5q0 -47 -31 -75.5t-77 -44t-100 -20.5t-99 -7q-4 12 -6.5 22t-2.5 14q0 55 58 107l-17 10l-82 -53q-2 14 -9 39t-7 39zM895 412q0 -47 2 -114t11.5 -128t26.5 -105.5t48 -44.5q39 0 77 33t68.5 77t52 88t27.5 69q-6 0 -15 -5.5t-26 -7.5q-14 0 -22 5 q-6 49 -10.5 124.5t-7.5 153.5t-4 144.5t-1 99.5q10 27 20.5 44t19.5 30.5t15.5 23.5t6.5 27q0 4 -1 21.5t-5 38t-13.5 41t-25.5 32.5q-63 -4 -116.5 -41t-90.5 -144q-29 -115 -33 -223t-4 -239z" />
<glyph unicode="&#xfc;" horiz-adv-x="919" d="M41 567q0 -31 2 -68.5t7 -74.5t11.5 -69.5t14.5 -55.5l-31 -217q18 -41 43 -41q37 0 72 31q33 31 61 30q14 -4 30.5 -18t37 -29.5t44 -27t50.5 -11.5q66 0 150.5 20.5t161.5 60.5t130.5 101.5t53.5 141.5q0 70 -33 129t-87 102t-122 68t-137 25q-68 0 -111 -40t-96 -110 l-29 -2q-12 61 -12 156l24 374q0 16 -13 20.5t-17 4.5h-4q-68 -12 -108 -69.5t-60.5 -133.5t-26.5 -157t-6 -140zM260 375q0 25 9.5 55.5t28.5 57t48 45t68 18.5q35 0 73.5 -11.5t70.5 -36t53.5 -63.5t21.5 -96q0 -49 -31 -77.5t-77 -44t-100 -19.5t-99 -6q-8 16 -9 36 q0 55 58 107l-17 10l-82 -53q-2 14 -9 39t-7 39z" />
<glyph unicode="&#xfd;" horiz-adv-x="913" d="M41 350q0 -88 44 -154.5t112.5 -111.5t153.5 -67.5t165 -22.5t146.5 25.5t112.5 72.5t71.5 112.5t25.5 143.5q0 104 -35.5 192.5t-98 153t-147.5 101t-183 36.5h-60q-16 10 -30.5 25.5t-34.5 15.5q-37 0 -78 -34.5t-75 -85t-55.5 -106.5t-21.5 -99q0 -31 10.5 -43 t28.5 -12q35 0 59.5 22.5t48 50t49 50t60.5 22.5q63 0 121.5 -25.5t113 -64.5t101.5 -86l88 -88l-2 -13q-84 10 -129 34t-72 24l-151 31q-2 0 -14.5 -8.5t-12.5 -16.5l111 -90q20 -16 47 -17q29 0 53 -4l107 -18q6 0 30.5 8t40.5 8q12 0 13 -8q0 -33 -17.5 -52.5t-40 -29.5 t-44 -13t-29.5 -3q-131 0 -224.5 17.5t-159 43t-108.5 57t-74 62.5q-16 0 -16 -35z" />
<glyph unicode="&#xfe;" horiz-adv-x="1097" d="M43 385q0 -47 2 -113.5t11.5 -128t26.5 -105.5t48 -44q27 0 56.5 22.5t61.5 59.5t62.5 82t57.5 92q14 -51 41.5 -97.5t65.5 -80t83 -53t98 -19.5q82 0 155 40t127 103.5t86 143.5t32 159q0 33 -4 75t-11.5 85t-17.5 83t-23 69q-20 47 -66 66.5t-101 19.5q-41 0 -81 -14.5 t-72 -42t-52.5 -68.5t-20.5 -94q0 -12 9.5 -23.5t19.5 -11.5q109 57 174 57q41 0 72 -18q-8 -127 -22.5 -211t-43.5 -133t-79 -69.5t-130 -20.5q-37 23 -59.5 67.5t-33.5 97t-15 103.5t-4 88q0 66 23.5 116t61 93t85 80t96.5 78q-92 -6 -168 -44t-130 -101.5t-85 -149.5 t-31 -187q0 -43 2 -63.5t2 -32.5l-65 -29q-6 45 -9.5 86t-5.5 86t-2 97v120v125q-23 20 -57 21q-53 -10 -85 -29.5t-54 -48.5v-4q-18 -84 -24.5 -180.5t-6.5 -198.5z" />
<glyph unicode="&#xff;" horiz-adv-x="919" d="M41 741q0 -72 36 -131t93 -102t128 -66.5t142 -23.5q6 0 31 23.5t55.5 51t59 51t41.5 23.5h8q-33 -72 -71 -142.5t-84 -131t-102 -101t-126 -49.5q-8 2 -19.5 9.5t-21.5 15.5t-19 14l-8 6q-8 0 -12 -16t-4 -39q0 -57 22.5 -101t69.5 -44q100 0 164.5 41t109 109.5 t74 159.5t58.5 189q2 -16 2 -34v-39q0 -35 -2 -79t-5.5 -89t-7.5 -88t-6 -78l-4 -41q0 -8 11.5 -13.5t19.5 -5.5q70 12 110.5 68.5t61 131.5t27 155t6.5 139q0 31 -2.5 69t-7.5 74.5t-11 69.5t-14 55l30 217q-18 41 -43 41q-18 0 -35.5 -9t-34 -21.5t-31.5 -21.5t-32 -9 q-14 4 -30.5 18.5t-36 29.5t-43 26.5t-51.5 11.5q-66 0 -151 -20.5t-162 -61.5t-130 -101.5t-53 -140.5zM283 737q0 37 31.5 63.5t78.5 45t101.5 28t99.5 11.5q0 -6 4 -19.5t4 -17.5q0 -55 -57 -107l16 -10l82 53q4 -14 10 -38.5t6 -38.5q0 -25 -9 -55.5t-28.5 -57.5 t-48 -45.5t-67.5 -18.5q-47 0 -88 22.5t-71 55.5t-47 68.5t-17 60.5z" />
<glyph unicode="&#x2000;" horiz-adv-x="799" />
<glyph unicode="&#x2001;" horiz-adv-x="1599" />
<glyph unicode="&#x2002;" horiz-adv-x="799" />
<glyph unicode="&#x2003;" horiz-adv-x="1599" />
<glyph unicode="&#x2004;" horiz-adv-x="533" />
<glyph unicode="&#x2005;" horiz-adv-x="399" />
<glyph unicode="&#x2006;" horiz-adv-x="266" />
<glyph unicode="&#x2007;" horiz-adv-x="266" />
<glyph unicode="&#x2008;" horiz-adv-x="199" />
<glyph unicode="&#x2009;" horiz-adv-x="319" />
<glyph unicode="&#x200a;" horiz-adv-x="88" />
<glyph unicode="&#x2010;" horiz-adv-x="368" d="M39 397q0 -6 33 -6h71q33 0 72 2t47 10l8 9q49 31 56 69l2 13q-2 2 -2 20h-187q-16 0 -28.5 -12.5t-22.5 -24.5t-16 -23.5t-11 -27.5v-4q-10 -16 -16 -19.5t-6 -5.5z" />
<glyph unicode="&#x2011;" horiz-adv-x="368" d="M39 397q0 -6 33 -6h71q33 0 72 2t47 10l8 9q49 31 56 69l2 13q-2 2 -2 20h-187q-16 0 -28.5 -12.5t-22.5 -24.5t-16 -23.5t-11 -27.5v-4q-10 -16 -16 -19.5t-6 -5.5z" />
<glyph unicode="&#x2012;" horiz-adv-x="368" d="M39 397q0 -6 33 -6h71q33 0 72 2t47 10l8 9q49 31 56 69l2 13q-2 2 -2 20h-187q-16 0 -28.5 -12.5t-22.5 -24.5t-16 -23.5t-11 -27.5v-4q-10 -16 -16 -19.5t-6 -5.5z" />
<glyph unicode="&#x2013;" horiz-adv-x="354" d="M43 653q0 -6 29 -6q86 0 134 2t54 10q53 41 53 78q-2 12 -3 18.5t-3 12.5h-26t-47 1t-58 1h-51h-2q-10 0 -28.5 -10t-18.5 -27q-6 -16 -10.5 -25.5t-8.5 -25.5q-2 -8 -8 -17.5t-6 -11.5z" />
<glyph unicode="&#x2014;" horiz-adv-x="448" d="M43 336q0 -6 39 -6q10 0 51 1t85 3t81 5t41 9q39 23 53.5 37t14.5 35q-2 10 -4.5 17t-4.5 14q-31 0 -70.5 1t-76.5 2t-66 1h-34h-5q-16 0 -37.5 -12.5t-21.5 -26.5v-4q-10 -14 -14 -22.5t-11 -24.5q-4 -8 -12 -17.5t-8 -11.5z" />
<glyph unicode="&#x202f;" horiz-adv-x="319" />
<glyph unicode="&#x205f;" horiz-adv-x="399" />
<glyph unicode="&#x25fc;" horiz-adv-x="880" d="M0 0v881h881v-881h-881z" />
</font>
</defs>
</svg>
